<svg width="53" height="53" viewBox="0 0 53 53" fill="none" xmlns="http://www.w3.org/2000/svg">
<path d="M14.6585 7.62256H41.0439V9.89464H14.6585V7.62256Z" fill="#18191A"/>
<path d="M42.5093 11.7268H14.4528C14.0788 11.7215 13.7096 11.6405 13.3677 11.4886C13.0258 11.3368 12.7181 11.1173 12.4634 10.8433C12.2086 10.5694 12.0119 10.2466 11.8853 9.89461C11.7586 9.54258 11.7045 9.16855 11.7263 8.79507C11.7245 8.05181 12.0051 7.33561 12.5112 6.79134C13.0174 6.24708 13.7114 5.91538 14.4528 5.86335H42.5093C42.8981 5.86335 43.2709 5.70892 43.5458 5.43401C43.8207 5.15911 43.9752 4.78627 43.9752 4.3975C43.9752 4.00873 43.8207 3.63588 43.5458 3.36098C43.2709 3.08608 42.8981 2.93164 42.5093 2.93164H14.4528C12.9336 2.98485 11.4944 3.62601 10.4388 4.7199C9.3832 5.81379 8.7937 7.2749 8.79463 8.79507C8.78045 9.03428 8.78045 9.27412 8.79463 9.51334C8.78051 9.63018 8.78051 9.7483 8.79463 9.86514V43.9756C8.7937 45.4958 9.3832 46.9569 10.4388 48.0508C11.4944 49.1447 12.9336 49.7858 14.4528 49.8391H42.5093C42.8981 49.8391 43.2709 49.6846 43.5458 49.4097C43.8207 49.1348 43.9752 48.762 43.9752 48.3732V13.5591V13.4272V13.2952C43.976 12.8964 43.825 12.5123 43.5526 12.2209C43.2803 11.9296 42.9073 11.7529 42.5093 11.7268V11.7268Z" fill="#18191A"/>
</svg>
