<?xml version="1.0" encoding="utf-8"?>
<!-- Generator: Adobe Illustrator 16.0.0, SVG Export Plug-In . SVG Version: 6.00 Build 0)  -->
<!DOCTYPE svg PUBLIC "-//W3C//DTD SVG 1.1//EN" "http://www.w3.org/Graphics/SVG/1.1/DTD/svg11.dtd">
<svg version="1.1" id="Layer_1" xmlns="http://www.w3.org/2000/svg" xmlns:xlink="http://www.w3.org/1999/xlink" x="0px" y="0px"
	 width="660px" height="656px" viewBox="0 0 660 656" enable-background="new 0 0 660 656" xml:space="preserve">
<g id="Illustration">
	<path id="Vector" fill="#F9EFE4" d="M566.429,321.596c8.399,42.847,25.419,129.688-15.311,187.782
		c-73.918,105.435-325.301,98.013-431.481-34.924c-9.182-11.491-55.23-71.442-50.206-153.53
		C78.139,178.535,235.453,52.332,361.528,77.119c73.791,14.507,122.829,77.971,143.021,104.097
		C512.868,191.983,550.976,242.747,566.429,321.596z"/>
	
		<linearGradient id="Vector_2_1_" gradientUnits="userSpaceOnUse" x1="385.915" y1="519.0859" x2="261.8641" y2="397.9814" gradientTransform="matrix(1 0 0 -1 116 735)">
		<stop  offset="0" style="stop-color:#799B91"/>
		<stop  offset="1" style="stop-color:#3E6764"/>
	</linearGradient>
	<path id="Vector_2" fill="url(#Vector_2_1_)" d="M191.89,511.471c24.199-11.461,57.842-31.894,81.83-68.375
		c31.459-47.843,18.673-81.252,49.702-169.41c19.617-55.743,33.871-94.447,68.972-106.304c27.506-9.295,64.525-0.986,81.447,21.278
		c14.081,18.515,15.896,48.845,12.907,69.113c-2.436,16.521-8.196,27.229-1.816,38.399c6.521,11.412,18.025,9.858,24.656,18.871
		c13.435,18.307-10.225,57.049-14.049,63.311c-42.529,69.635-128.493,98.165-166.138,110.161
		C298.274,498.434,251.369,509.902,191.89,511.471z"/>
	<g id="Group">
		<g id="Group_2" opacity="0.5">
			<g id="Vector_3" opacity="0.5">
				<path fill="#FFFFFF" d="M166.773,519.024l-0.065-1.25c36.243-1.879,68.722-7.565,96.577-16.899
					c41.073-13.781,70.775-35.205,88.282-63.651c13.71-22.289,19.673-48.015,27.925-83.618c6.591-28.422,8.695-49.156,10.552-67.448
					c2.424-23.885,3.714-43.374,14.575-68.134c11.022-25.125,28.529-47.573,50.8-67.953l0.846,0.924
					c-22.141,20.262-38.919,43.193-49.872,68.159c-10.781,24.576-12.674,43.353-15.103,67.126
					c-1.86,18.33-3.971,39.107-10.575,67.595c-7.967,34.379-14.263,61.529-28.079,83.994
					c-17.665,28.728-47.599,50.312-88.953,64.192C235.737,511.432,203.13,517.143,166.773,519.024z"/>
			</g>
			<g id="Vector_4" opacity="0.5">
				<path fill="#FFFFFF" d="M384.62,333.442l-0.532-0.467c-0.158-0.142-15.916-14.198-28.203-39.022
					c-7.153-14.358-11.81-29.828-13.773-45.748c-2.399-19.715-0.547-40.098,5.512-60.568l1.203,0.355
					c-6.011,20.307-7.85,40.512-5.462,60.061c1.946,15.78,6.562,31.113,13.648,45.346c10.923,22.062,24.574,35.513,27.391,38.157
					c31.226-45.283,68.226-68.049,93.822-79.182c27.883-12.111,48.634-13.455,48.84-13.465l0.073,1.25
					c-0.202,0-20.787,1.338-48.468,13.39c-25.54,11.119-62.526,33.905-93.642,79.312L384.62,333.442z"/>
			</g>
			<g id="Vector_5" opacity="0.5">
				<path fill="#FFFFFF" d="M366.656,409.822c-0.459,0-0.909,0-1.362-0.021h-0.454l-0.129-0.437
					c-0.339-1.143-10.162-33.456-25.821-63.28c-15.987-30.446-68.108-56.008-68.632-56.262l0.563-1.126
					c0.527,0.256,53.014,25.993,69.193,56.805c15.094,28.743,24.563,59.081,25.778,63.069c0.282,0,0.58,0,0.873,0
					c32.716,0,76.157-30.741,107.025-56.731c33.967-28.59,60.461-57.755,60.726-58.048l0.928,0.846
					c-0.263,0.281-26.813,29.52-60.837,58.162c-19.996,16.834-38.633,30.179-55.386,39.664
					C398.759,403.983,381.119,409.822,366.656,409.822z"/>
			</g>
			<g id="Vector_6" opacity="0.5">
				<path fill="#FFFFFF" d="M335.777,503.123c-34.876,0-59.005-4.627-59.264-4.681l-1.228-0.239l0.926-0.847
					c12.595-11.434,20.279-25.152,22.85-40.772c1.648-10.021,0.679-29.683-3.579-40.918c-9.241-24.396-22.073-44.024-22.219-44.219
					l0.994-0.763c0.146,0.191,14.8,19.434,22.425,44.615c4.487,14.82,5.706,28.779,3.617,41.484
					c-2.536,15.519-10.055,29.187-22.315,40.644c5.867,1.022,32.128,5.168,67.232,4.317c36.67-0.887,90.758-7.567,140.183-34.36
					l95.912-51.98l0.598,1.101l-95.912,51.98c-49.657,26.912-103.967,33.618-140.783,34.508
					C341.99,503.082,338.846,503.125,335.777,503.123z"/>
			</g>
		</g>
	</g>
	
		<linearGradient id="Vector_7_1_" gradientUnits="userSpaceOnUse" x1="487.9297" y1="289.0425" x2="262.541" y2="294.5801" gradientTransform="matrix(1 0 0 -1 116 735)">
		<stop  offset="0" style="stop-color:#46736E"/>
		<stop  offset="1" style="stop-color:#2F4F4F"/>
	</linearGradient>
	<path id="Vector_7" fill="url(#Vector_7_1_)" d="M226.927,503.996c30.73,21.887,73.174,44.666,123.533,51.259
		c12.854,1.69,92.247,12.066,105.31-24.351c4.601-12.829-2.915-20.631,2.972-37.87c6.974-20.428,21.988-22.551,42.439-39.769
		c12.203-10.276,47.912-40.346,41.745-75.174c-3.688-20.813-22.16-42.386-42.051-49.662c-29.176-10.675-55.682,11.49-100.003,49.783
		c-39.29,33.947-42.811,46.573-71.446,70.519C308.173,466.494,275.438,488.536,226.927,503.996z"/>
	<g id="Group_3" opacity="0.5">
		<g id="Vector_8" opacity="0.5">
			<path fill="#FFFFFF" d="M248.138,504.376c-22.087,0-43.304-3.617-63.652-10.852c-36.864-13.156-69.395-37.233-96.686-71.601
				l0.983-0.776c27.142,34.18,59.487,58.134,96.137,71.194c48.826,17.403,103.155,13.719,161.479-10.948
				c60.748-25.695,110.605-67.711,141.732-98.435c21.577-21.299,38.282-49.913,49.646-85.058l1.191,0.386
				c-11.428,35.329-28.236,64.113-49.959,85.556c-31.203,30.802-81.192,72.926-142.124,98.697
				C312.499,497.093,279.476,504.376,248.138,504.376z"/>
		</g>
		<g id="Vector_9" opacity="0.5">
			<path fill="#FFFFFF" d="M421.167,440.194l-0.022-0.625c0-0.184-0.665-18.78,4.554-42.827
				c4.819-22.205,15.772-53.746,40.608-77.911l0.873,0.898c-24.6,23.939-35.465,55.219-40.25,77.244
				c-4.656,21.436-4.613,38.503-4.549,41.922c97.281-3.621,132.838-60.896,141.432-78.396c0.248-0.498,0.349-0.707,0.423-0.819
				l1.053,0.681l-0.526-0.34l0.526,0.34c-0.042,0.065-0.191,0.37-0.349,0.69c-8.692,17.696-44.697,75.695-143.147,79.12
				L421.167,440.194z"/>
		</g>
		<g id="Vector_10" opacity="0.5">
			<path fill="#FFFFFF" d="M440.533,525.86c-0.792,0-1.592,0-2.405-0.029c-13.732-0.335-27.603-3.478-41.256-9.342
				c-17.03-7.322-33.735-18.932-49.651-34.504l-0.236-0.23l0.059-0.327c0.102-0.563,10.545-56.921,52.578-114.066l42.43-57.69
				l1.011,0.741l-42.433,57.692c-40.207,54.662-51.38,108.549-52.29,113.222c19.761,19.273,51.311,42.317,89.819,43.255
				c23.069,0.563,37.882-7.207,38.023-7.286l0.59,1.104C476.629,518.473,462.561,525.86,440.533,525.86z"/>
		</g>
	</g>
	
		<linearGradient id="Vector_11_1_" gradientUnits="userSpaceOnUse" x1="418.2627" y1="169.5679" x2="220.3479" y2="363.6025" gradientTransform="matrix(1 0 0 -1 116 735)">
		<stop  offset="0" style="stop-color:#EF9F8E"/>
		<stop  offset="1" style="stop-color:#E68273"/>
	</linearGradient>
	<path id="Vector_11" fill="url(#Vector_11_1_)" d="M126.385,546.626c-9.602,2.331-19.91,1.665-29.066-2.603
		c-20.279-9.446-27.095-32.835-15.153-52.076l174.187-282.86c5.709-9.196,15.39-15.612,26.5-17.598
		c11.063-1.972,22.464,0.634,31.263,7.131l91.955,67.857l65.584-110.916c9.813-16.592,31.632-21.994,48.691-12.201
		c16.951,9.733,22.925,30.891,13.392,47.392L449.22,337.011c-5.265,9.108-14.316,15.665-24.837,17.961
		c-10.564,2.304-21.57,0.078-30.135-6.118l-92.679-66.967l-146.851,244.39C148.401,536.712,137.898,543.828,126.385,546.626z"/>
	
		<linearGradient id="Vector_12_1_" gradientUnits="userSpaceOnUse" x1="49459.4375" y1="-102833.5781" x2="79914.6797" y2="-167053.4219" gradientTransform="matrix(1 0 0 -1 116 735)">
		<stop  offset="0" style="stop-color:#EF9F8E"/>
		<stop  offset="1" style="stop-color:#E68273"/>
	</linearGradient>
	<path id="Vector_12" fill="url(#Vector_12_1_)" d="M560.232,203.203l-109.51-62.125l111.656-65.117l8.382-1.735l-2.132,126.233
		L560.232,203.203z"/>
	
		<linearGradient id="Vector_13_1_" gradientUnits="userSpaceOnUse" x1="305.1313" y1="264.3315" x2="659.2819" y2="-170.4656" gradientTransform="matrix(1 0 0 -1 116 735)">
		<stop  offset="0" style="stop-color:#F6AF9A"/>
		<stop  offset="1" style="stop-color:#F89F8A"/>
	</linearGradient>
	<path id="Vector_13" fill="url(#Vector_13_1_)" d="M134.764,544.891c-9.602,2.335-19.907,1.665-29.066-2.603
		c-20.279-9.446-27.094-32.834-15.152-52.073l174.187-282.86c5.712-9.198,15.389-15.614,26.5-17.597
		c11.063-1.971,22.464,0.63,31.263,7.128l91.954,67.86l65.594-110.918c9.81-16.592,31.631-21.991,48.688-12.198
		c16.955,9.73,22.929,30.888,13.393,47.389l-84.522,146.251c-5.267,9.111-14.318,15.667-24.838,17.96
		c-10.564,2.305-21.569,0.082-30.136-6.117l-92.69-66.967L163.111,524.556C156.781,534.978,146.278,542.094,134.764,544.891z"/>
	
		<linearGradient id="Vector_14_1_" gradientUnits="userSpaceOnUse" x1="119505.0703" y1="-199045.2656" x2="245293.875" y2="-409921.7813" gradientTransform="matrix(1 0 0 -1 116 735)">
		<stop  offset="0" style="stop-color:#F6AF9A"/>
		<stop  offset="1" style="stop-color:#F89F8A"/>
	</linearGradient>
	<path id="Vector_14" fill="url(#Vector_14_1_)" d="M568.611,201.471l-109.51-62.128L570.76,74.227L568.611,201.471z"/>
	
		<linearGradient id="Vector_15_1_" gradientUnits="userSpaceOnUse" x1="149.7886" y1="125.8779" x2="100.9173" y2="219.8637" gradientTransform="matrix(1 0 0 -1 116 735)">
		<stop  offset="0" style="stop-color:#5D535A"/>
		<stop  offset="1" style="stop-color:#464143"/>
	</linearGradient>
	<path id="Vector_15" fill="url(#Vector_15_1_)" d="M159.222,477.607l16.538,74.355c0,4.788,14.713,8.687,32.863,8.687
		c18.149,0,32.859-3.89,32.859-8.687l16.538-74.355H159.222z"/>
	
		<linearGradient id="Vector_16_1_" gradientUnits="userSpaceOnUse" x1="-10664.1338" y1="-151856.1406" x2="-11761.2451" y2="-167381.4063" gradientTransform="matrix(1 0 0 -1 116 735)">
		<stop  offset="0" style="stop-color:#5D535A"/>
		<stop  offset="1" style="stop-color:#464143"/>
	</linearGradient>
	<path id="Vector_16" opacity="0.3" fill="url(#Vector_16_1_)" enable-background="new    " d="M224.468,545.789
		c-6.909-9.336-3.13-15.823-10.928-26.306c-11.744-15.772-28.271-11.778-36.425-23.067c-2.839-3.942-4.687-9.775-3.538-18.809
		h-14.364l16.539,74.355c0,4.788,14.713,8.687,32.862,8.687c12.509,0,23.377-1.849,28.934-4.568
		C231.098,553.076,227.09,549.335,224.468,545.789z"/>
	
		<linearGradient id="Vector_17_1_" gradientUnits="userSpaceOnUse" x1="43.2275" y1="257.3916" x2="142.0269" y2="257.3916" gradientTransform="matrix(1 0 0 -1 116 735)">
		<stop  offset="0" style="stop-color:#3B3138"/>
		<stop  offset="1" style="stop-color:#241F21"/>
	</linearGradient>
	<path id="Vector_17" fill="url(#Vector_17_1_)" d="M258.027,477.608c0,4.788-22.118,8.689-49.401,8.689
		c-27.283,0-49.398-3.89-49.398-8.689c0-4.799,22.118-8.689,49.398-8.689S258.027,472.81,258.027,477.608z"/>
	
		<linearGradient id="Vector_18_1_" gradientUnits="userSpaceOnUse" x1="90.8726" y1="234.1392" x2="92.0863" y2="250.5309" gradientTransform="matrix(1 0 0 -1 116 735)">
		<stop  offset="0" style="stop-color:#D3C5CB"/>
		<stop  offset="1" style="stop-color:#ADA0A6"/>
	</linearGradient>
	<path id="Vector_18" fill="url(#Vector_18_1_)" d="M208.62,484.14c25.417,0,46.023-3.08,46.023-6.881
		c0-3.8-20.605-6.881-46.023-6.881c-25.418,0-46.024,3.081-46.024,6.881C162.596,481.06,183.202,484.14,208.62,484.14z"/>
	
		<linearGradient id="Vector_19_1_" gradientUnits="userSpaceOnUse" x1="99.8672" y1="271.6904" x2="84.0837" y2="236.4792" gradientTransform="matrix(1 0 0 -1 116 735)">
		<stop  offset="0" style="stop-color:#96888E"/>
		<stop  offset="1" style="stop-color:#706369"/>
	</linearGradient>
	<path id="Vector_19" fill="url(#Vector_19_1_)" d="M165.042,479.471c6.16,2.715,23.337,4.669,43.579,4.669
		c20.242,0,37.423-1.954,43.584-4.669c-8.317-2.738-24.706-4.604-43.584-4.604C189.742,474.867,173.355,476.732,165.042,479.471z"/>
	
		<linearGradient id="Vector_20_1_" gradientUnits="userSpaceOnUse" x1="79683.9531" y1="-18508.4375" x2="57556.2305" y2="-13267.9121" gradientTransform="matrix(1 0 0 -1 116 735)">
		<stop  offset="0" style="stop-color:#5D535A"/>
		<stop  offset="1" style="stop-color:#464143"/>
	</linearGradient>
	<path id="Vector_20" fill="url(#Vector_20_1_)" d="M208.623,479.729c-0.319,0-0.635-0.063-0.93-0.185
		c-0.295-0.122-0.563-0.301-0.789-0.526c-0.226-0.225-0.405-0.493-0.526-0.788c-0.123-0.295-0.186-0.609-0.186-0.929V310.134
		c0.021-0.631,0.287-1.228,0.74-1.666c0.454-0.438,1.06-0.683,1.689-0.683c0.63,0,1.236,0.245,1.689,0.683
		c0.454,0.438,0.719,1.035,0.739,1.666v167.168c0,0.644-0.255,1.261-0.71,1.717C209.885,479.474,209.267,479.729,208.623,479.729z"
		/>
	<g id="Coin">
		
			<linearGradient id="Vector_21_1_" gradientUnits="userSpaceOnUse" x1="-34.7969" y1="624.0313" x2="8.3342" y2="589.3269" gradientTransform="matrix(1 0 0 -1 116 735)">
			<stop  offset="0" style="stop-color:#DDCBBD"/>
			<stop  offset="1" style="stop-color:#C9AD9A"/>
		</linearGradient>
		<path id="Vector_21" fill="url(#Vector_21_1_)" d="M317.755,214.427c0,63.706-49.814,113.821-113.483,111.864
			c-66.26-2.033-121.992-59.259-121.992-127.737c0-68.479,55.732-118.193,121.992-111.292
			C267.94,93.891,317.755,150.722,317.755,214.427z"/>
		
			<linearGradient id="Vector_22_1_" gradientUnits="userSpaceOnUse" x1="154.752" y1="652.2813" x2="32.1604" y2="381.8169" gradientTransform="matrix(1 0 0 -1 116 735)">
			<stop  offset="0" style="stop-color:#F0E3D9"/>
			<stop  offset="1" style="stop-color:#D9C5B7"/>
		</linearGradient>
		<path id="Vector_22" fill="url(#Vector_22_1_)" d="M334.958,208.935c0,63.706-49.815,113.818-113.48,111.864
			c-66.252-2.033-121.99-59.27-121.99-127.74s55.738-118.19,121.99-111.29C285.143,88.396,334.958,145.229,334.958,208.935z"/>
		
			<linearGradient id="Vector_23_1_" gradientUnits="userSpaceOnUse" x1="219914.125" y1="-330221.75" x2="99067.7734" y2="-148382.2188" gradientTransform="matrix(1 0 0 -1 116 735)">
			<stop  offset="0" style="stop-color:#F0E3D9"/>
			<stop  offset="1" style="stop-color:#D9C5B7"/>
		</linearGradient>
		<path id="Vector_23" fill="url(#Vector_23_1_)" d="M329.962,208.598c0,60.899-47.664,108.715-108.485,106.743
			c-63.184-2.044-116.232-56.659-116.232-121.908c0-65.249,53.048-112.709,116.232-106.237
			C282.298,93.443,329.962,147.697,329.962,208.598z"/>
		
			<linearGradient id="Vector_24_1_" gradientUnits="userSpaceOnUse" x1="86563.2266" y1="-137651.3594" x2="255374.9688" y2="-407451.4375" gradientTransform="matrix(1 0 0 -1 116 735)">
			<stop  offset="0" style="stop-color:#F0E3D9"/>
			<stop  offset="1" style="stop-color:#D9C5B7"/>
		</linearGradient>
		<path id="Vector_24" fill="url(#Vector_24_1_)" d="M326.382,208.354c0,58.893-46.119,105.085-104.904,103.11
			c-60.991-2.047-112.135-54.794-112.135-117.728S160.486,84.938,221.478,91.1C280.277,97.048,326.382,149.465,326.382,208.354z"/>
		
			<linearGradient id="Vector_25_1_" gradientUnits="userSpaceOnUse" x1="38952.7813" y1="79362.9219" x2="-17166.625" y2="-34508.6641" gradientTransform="matrix(1 0 0 -1 116 735)">
			<stop  offset="0" style="stop-color:#DDCBBD"/>
			<stop  offset="1" style="stop-color:#C9AD9A"/>
		</linearGradient>
		<path id="Vector_25" fill="url(#Vector_25_1_)" d="M220.874,111.131c3.129,0.298,5.659,3.112,5.659,6.289v10.843
			c6.324,0.71,12.601,1.8,18.794,3.261c4.625,1.087,9.218,2.381,13.781,3.881c2.734,0.898,4.599,3.662,4.32,6.506l-1.332,13.597
			c-0.062,0.827-0.324,1.626-0.764,2.329c-0.44,0.703-1.044,1.288-1.762,1.703c-0.716,0.417-1.524,0.652-2.352,0.685
			c-0.829,0.033-1.652-0.135-2.4-0.492c-3.007-1.342-6.095-2.492-9.246-3.445c-5.682-1.7-11.528-2.792-17.439-3.258l-1.6-0.133
			v31.063c16.336,4.565,28.305,10.702,36.051,18.431c7.745,7.728,11.547,17.27,11.547,28.775c0,12.439-4.257,22.411-12.77,29.914
			c-8.572,7.552-20.614,11.792-36.127,12.719v11.968c0.012,0.741-0.126,1.477-0.409,2.162c-0.283,0.687-0.702,1.308-1.231,1.825
			c-0.531,0.519-1.162,0.922-1.854,1.188c-0.692,0.266-1.432,0.387-2.173,0.356h-0.098c-1.535-0.084-2.979-0.753-4.036-1.869
			c-1.058-1.115-1.648-2.593-1.65-4.13v-11.807l-2.521-0.112c-7.016-0.301-14.006-1.047-20.929-2.233
			c-4.878-0.845-9.706-1.955-14.462-3.327c-2.845-0.822-4.788-3.531-4.538-6.443l1.566-17.477c0.338-3.779,4.135-5.977,7.729-4.559
			c4.154,1.635,8.401,3.025,12.719,4.163c6.66,1.758,13.468,2.895,20.337,3.396l0.099-34.541c-15.662-3.87-27.39-9.61-35.096-17.215
			c-7.706-7.604-11.632-17.42-11.632-29.308c0-12.302,4.201-21.79,12.604-28.463c8.351-6.63,20.22-9.931,35.53-9.922V116.37
			C215.194,113.181,217.751,110.849,220.874,111.131z M215.194,152.586c-4.841,0.353-8.614,1.683-11.32,3.991
			c-2.706,2.308-4.059,5.415-4.059,9.323c0,3.691,1.252,6.779,3.754,9.263c2.503,2.484,6.378,4.456,11.624,5.915V152.586z
			 M225.234,215.134v31.677c5.258,0.011,9.294-1.244,12.11-3.766c2.817-2.521,4.225-6.076,4.225-10.662
			c0-4.19-1.307-7.663-3.92-10.422C235.035,219.203,230.897,216.928,225.234,215.134z"/>
	</g>
	
		<linearGradient id="Vector_26_1_" gradientUnits="userSpaceOnUse" x1="110090.1719" y1="-136659.3125" x2="206465.9063" y2="-256839.7188" gradientTransform="matrix(1 0 0 -1 116 735)">
		<stop  offset="0" style="stop-color:#F0E3D9"/>
		<stop  offset="1" style="stop-color:#D9C5B7"/>
	</linearGradient>
	<path id="Vector_26" opacity="0.5" fill="url(#Vector_26_1_)" enable-background="new    " d="M202.492,222.778
		c3.545-35.009,35.718-49.826,31.519-82.027c-2.588-19.847-17.631-36.574-34.411-49.617c-50.897,5.323-90.257,47.469-90.257,102.589
		c0,62.948,51.144,115.695,112.135,117.742c5.789,0.195,11.584-0.088,17.327-0.844C214.583,286.518,199.444,252.852,202.492,222.778
		z"/>
	<g id="Leaf">
		
			<linearGradient id="Vector_27_1_" gradientUnits="userSpaceOnUse" x1="121080" y1="-177113.6563" x2="179126.2969" y2="-262226.375" gradientTransform="matrix(1 0 0 -1 116 735)">
			<stop  offset="0" style="stop-color:#46736E"/>
			<stop  offset="1" style="stop-color:#2F4F4F"/>
		</linearGradient>
		<path id="Vector_27" fill="url(#Vector_27_1_)" d="M207.102,476.722c-4.886,2.691-21.199-14.114-32.33-32.331
			c-7.238-11.851-4.172-12.919-10.018-21.247c-13.666-19.465-29.976-16.989-36.068-32.578c-4.402-11.266,3.188-14.927-1.253-25.066
			c-8.106-18.51-37.245-15.175-40.019-27.73c-1.825-8.27,8.688-19.344,19.262-24.075c29.5-13.201,80.762,15.454,92.171,52.279
			c6.135,19.791-4.248,25.81,0.69,63.97C203.21,458.358,211.459,474.318,207.102,476.722z"/>
		<path id="Vector_28" opacity="0.17" fill="#FFFFFF" enable-background="new    " d="M99.862,328.533
			c3.842-7.343,28.029-7.185,44.5,2.507c16.617,9.778,17.251,24.503,38.219,81.455c13.519,36.718,21,51.656,18.172,53.259
			c-2.921,1.65-15.868-11.429-23.185-27.57c-7.019-15.49-2.67-20.146-9.398-28.82c-11.142-14.364-28.382-8.427-33.834-20.051
			c-5.667-12.088,10.395-24.007,4.385-33.837c-6.277-10.271-27.188-2.746-36.332-16.291
			C101.713,338.199,97.817,332.448,99.862,328.533z"/>
	</g>
	
		<linearGradient id="Vector_29_1_" gradientUnits="userSpaceOnUse" x1="408.8506" y1="194.3311" x2="416.5614" y2="185.1811" gradientTransform="matrix(1 0 0 -1 116 735)">
		<stop  offset="0" style="stop-color:#3B3138"/>
		<stop  offset="1" style="stop-color:#241F21"/>
	</linearGradient>
	<path id="Vector_29" fill="url(#Vector_29_1_)" d="M531.538,535.388c1.218,0.07,2.862,0.389,3.961,1.589
		c2.658,2.909,0.689,9.466-3.048,12.919c-3.943,3.662-10.379,4.278-11.266,2.735c-0.438-0.762,0.453-2.064,0.985-2.845
		c2.017-2.961,4.436-2.341,5.59-4.507c1.178-2.214-0.782-3.92,0.373-6.607C528.877,536.932,530.432,535.938,531.538,535.388z"/>
	
		<linearGradient id="Vector_30_1_" gradientUnits="userSpaceOnUse" x1="663.0088" y1="-14138.3574" x2="704.1947" y2="-15894.7227" gradientTransform="matrix(1 0 0 -1 116 735)">
		<stop  offset="0" style="stop-color:#3B3138"/>
		<stop  offset="1" style="stop-color:#241F21"/>
	</linearGradient>
	<path id="Vector_30" fill="url(#Vector_30_1_)" d="M451.269,547.118c0,0,0.487,3.864,0.161,5.16s-11.567,2.23-15.384,1.78
		c-3.816-0.451,2.273-4.346,4.704-5.07C443.181,548.265,451.269,547.118,451.269,547.118z"/>
	
		<linearGradient id="Vector_31_1_" gradientUnits="userSpaceOnUse" x1="327.2632" y1="196.7739" x2="340.4846" y2="182.8901" gradientTransform="matrix(1 0 0 -1 116 735)">
		<stop  offset="0" style="stop-color:#FAEBD7"/>
		<stop  offset="1" style="stop-color:#E8D0BA"/>
	</linearGradient>
	<path id="Vector_31" fill="url(#Vector_31_1_)" d="M445.603,540.655l1.187,7.756c0,0,3.021,1.357,4.473,0.015l0.16-8.118
		L445.603,540.655z"/>
	
		<linearGradient id="Vector_32_1_" gradientUnits="userSpaceOnUse" x1="-30757.9941" y1="-10836.0205" x2="-17255.9336" y2="-6013.4141" gradientTransform="matrix(1 0 0 -1 116 735)">
		<stop  offset="0" style="stop-color:#3B3138"/>
		<stop  offset="1" style="stop-color:#241F21"/>
	</linearGradient>
	<path id="Vector_32" fill="url(#Vector_32_1_)" d="M422.071,397.502c-1.211,11.908-1.354,23.898-0.431,35.832
		c1.537,19.825,5.501,32.369,10.474,53.513c3.037,12.916,7.132,31.93,10.835,55.709c2.01,1.159,4.347,1.616,6.645,1.302
		c1.423-0.214,2.784-0.73,3.991-1.516c9.722-29.702,6.85-48.107,2.16-59.576c-1.999-4.887-4.425-8.731-5.721-16.257
		c-1.715-9.942,0.405-15.491,3.431-38.526c2.155-16.411,1.78-18.949,0.347-21.405C448.069,396.72,430.541,396.92,422.071,397.502z"
		/>
	
		<linearGradient id="Vector_33_1_" gradientUnits="userSpaceOnUse" x1="-23200.3477" y1="-5775.7642" x2="-12976.6338" y2="-3151.2161" gradientTransform="matrix(1 0 0 -1 116 735)">
		<stop  offset="0" style="stop-color:#5D535A"/>
		<stop  offset="1" style="stop-color:#464143"/>
	</linearGradient>
	<path id="Vector_33" opacity="0.3" fill="url(#Vector_33_1_)" enable-background="new    " d="M455.742,482.76
		c-2-4.887-4.425-8.731-5.72-16.256c-1.717-9.942,0.405-15.491,3.43-38.527c2.155-16.411,1.78-18.949,0.347-21.404
		c-3.115-5.353-9.714-7.721-16.451-8.689c0.09,0.344,0.18,0.689,0.253,1.025c3.535,16.141-9.953,25.987-3.87,43.73
		c3,8.731,7.788,10.752,8.903,20.899c1.042,9.502-2.745,11.481-1.935,20.124c1.208,12.912,10.381,16.036,12.77,25.928
		c1.553,6.424,0.245,15.821-11.086,29.423c0.189,1.172,0.378,2.347,0.563,3.543c2.01,1.159,4.347,1.616,6.645,1.302
		c1.423-0.214,2.784-0.73,3.991-1.516C463.307,512.634,460.435,494.229,455.742,482.76z"/>
	
		<linearGradient id="Vector_34_1_" gradientUnits="userSpaceOnUse" x1="18851.5938" y1="-6375.2441" x2="19614.125" y2="-6647.2617" gradientTransform="matrix(1 0 0 -1 116 735)">
		<stop  offset="0" style="stop-color:#FAEBD7"/>
		<stop  offset="1" style="stop-color:#E8D0BA"/>
	</linearGradient>
	<path id="Vector_34" fill="url(#Vector_34_1_)" d="M526.86,529.656l2.817,8.917c0.379,1.197,1.887,1.69,2.816,0.865
		c0.265-0.238,0.498-0.51,0.692-0.809v-10.944L526.86,529.656z"/>
	
		<linearGradient id="Vector_35_1_" gradientUnits="userSpaceOnUse" x1="61398.7266" y1="-276232.5938" x2="55439.25" y2="-249227.2813" gradientTransform="matrix(1 0 0 -1 116 735)">
		<stop  offset="0" style="stop-color:#3B3138"/>
		<stop  offset="1" style="stop-color:#241F21"/>
	</linearGradient>
	<path id="Vector_35" fill="url(#Vector_35_1_)" d="M453.46,405.169c-2.182,3.25,0.335,8.193,28.446,48.789
		c16.618,24.014,21.109,30.032,27.425,41.121c7.064,12.408,13.118,25.365,18.101,38.745c1.232,0.257,2.512,0.174,3.701-0.239
		c0.988-0.403,1.883-1.01,2.625-1.779c1.391-1.474,7.351-13.747-0.353-41.18c-3.456-12.303-6.799-24.221-16.598-35.927
		c-6.382-7.636-9.77-8.328-14.949-16.701c-7.27-11.748-4.746-17.08-10.105-24.084C482.014,401.203,458.057,398.334,453.46,405.169z"
		/>
	
		<linearGradient id="hair_1_" gradientUnits="userSpaceOnUse" x1="93154.2734" y1="-208565.4688" x2="124567.2656" y2="-279337.9375" gradientTransform="matrix(1 0 0 -1 116 735)">
		<stop  offset="0" style="stop-color:#3B3138"/>
		<stop  offset="1" style="stop-color:#241F21"/>
	</linearGradient>
	<path id="hair" fill="url(#hair_1_)" d="M436.367,299.896c-9.669-11.548-18.789-9.576-25.815-20.561
		c-4.16-6.5-7.128-16.828-2.65-22.965c2.32-3.183,5.914-4.225,8.776-5.036c10.463-2.923,17.13,1.408,24.942,2.186
		c13.477,1.337,15.685-9.382,36.729-17.744c7.093-2.816,29.616-11.762,48.593-1.949c2.448,1.268,16.212,8.731,17.065,20.13
		c0.676,9.012-7.286,13.211-5.298,18.216c3.459,8.7,28.533-1.408,39.864,9.787c10.573,10.446,5.802,36.102-5.688,52.068
		c-16.989,23.61-47.452,24.349-53.818,24.503c-31.918,0.771-64.417-18.871-73.948-41.568
		C443.042,312.018,441.856,306.455,436.367,299.896z"/>
	<g id="pail">
		
			<linearGradient id="Vector_36_1_" gradientUnits="userSpaceOnUse" x1="-2123.1377" y1="-4827.7588" x2="-1448.4768" y2="-3312.0811" gradientTransform="matrix(1 0 0 -1 116 735)">
			<stop  offset="0" style="stop-color:#FAEBD7"/>
			<stop  offset="1" style="stop-color:#E8D0BA"/>
		</linearGradient>
		<path id="Vector_36" fill="url(#Vector_36_1_)" d="M320.678,349.839c0,0-9.387-0.751-12.135,0.35
			c-2.75,1.102-6.799,5.634-6.479,7.906l0.307,2.253c0,0,5.825,2.493,7.425-0.281c1.599-2.774,3.351-5.124,6.241-5.588
			C318.927,354.014,320.673,352.613,320.678,349.839z"/>
		
			<linearGradient id="Vector_37_1_" gradientUnits="userSpaceOnUse" x1="51743.6992" y1="-67617.8203" x2="60719.8398" y2="-79453.1563" gradientTransform="matrix(1 0 0 -1 116 735)">
			<stop  offset="0" style="stop-color:#D3C5CB"/>
			<stop  offset="1" style="stop-color:#ADA0A6"/>
		</linearGradient>
		<path id="Vector_37" fill="url(#Vector_37_1_)" d="M293.494,386.558l9.7,24.855c0.594,1.525,1.736,2.775,3.202,3.504
			c1.466,0.729,3.151,0.886,4.727,0.439c8.824-2.495,25.252-8.564,31.95-20.442c0.638-1.158,0.909-2.481,0.781-3.796
			c-0.127-1.315-0.65-2.562-1.499-3.575l-16.68-20.14c-0.563-0.681-1.351-1.136-2.221-1.286c-0.871-0.149-1.766,0.017-2.524,0.47
			l-25.883,15.442c-0.754,0.447-1.324,1.149-1.609,1.979C293.153,384.838,293.173,385.741,293.494,386.558z"/>
		
			<linearGradient id="Vector_38_1_" gradientUnits="userSpaceOnUse" x1="13530.7734" y1="-34159.4844" x2="15858.3838" y2="-40169.3789" gradientTransform="matrix(1 0 0 -1 116 735)">
			<stop  offset="0" style="stop-color:#D3C5CB"/>
			<stop  offset="1" style="stop-color:#ADA0A6"/>
		</linearGradient>
		<path id="Vector_38" fill="url(#Vector_38_1_)" d="M266.82,387.96l33.073,4.321l3.681,14.039l-35.149-14.643L266.82,387.96z"/>
		
			<linearGradient id="Vector_39_1_" gradientUnits="userSpaceOnUse" x1="14762.9688" y1="-19645.9863" x2="17145.2695" y2="-22904.625" gradientTransform="matrix(1 0 0 -1 116 735)">
			<stop  offset="0" style="stop-color:#D3C5CB"/>
			<stop  offset="1" style="stop-color:#ADA0A6"/>
		</linearGradient>
		<path id="Vector_39" fill="url(#Vector_39_1_)" d="M257.945,384.578c-0.194,4.766,0.205,8.584,1.106,11.604
			c0.11,0.378,0.366,0.698,0.709,0.891c0.344,0.192,0.75,0.242,1.131,0.138l12-3.313v-5.146l-12.863-5.51
			c-0.224-0.094-0.468-0.133-0.711-0.111c-0.243,0.021-0.478,0.1-0.682,0.231c-0.206,0.131-0.375,0.31-0.496,0.522
			C258.02,384.097,257.953,384.335,257.945,384.578z"/>
		
			<linearGradient id="Vector_40_1_" gradientUnits="userSpaceOnUse" x1="25818.543" y1="-43880.1836" x2="27430.7617" y2="-46663.5664" gradientTransform="matrix(1 0 0 -1 116 735)">
			<stop  offset="0" style="stop-color:#96888E"/>
			<stop  offset="1" style="stop-color:#706369"/>
		</linearGradient>
		<path id="Vector_40" fill="url(#Vector_40_1_)" d="M298.947,381.457c-0.315,0-0.624-0.085-0.895-0.246
			c-0.271-0.161-0.493-0.392-0.643-0.668c-0.464-0.847-11.226-21-0.425-27.011c10.578-5.889,24.114,15.901,25.629,18.405
			c0.24,0.397,0.311,0.873,0.199,1.324c-0.111,0.45-0.397,0.838-0.795,1.078c-0.397,0.238-0.873,0.311-1.324,0.199
			c-0.451-0.112-0.838-0.398-1.078-0.796c-3.38-5.594-14.459-20.769-20.923-17.152c-7.684,4.275,1.704,22.104,1.8,22.281
			c0.146,0.267,0.218,0.565,0.213,0.87c-0.006,0.303-0.091,0.599-0.246,0.86c-0.155,0.261-0.375,0.477-0.639,0.627
			c-0.264,0.149-0.562,0.229-0.865,0.228H298.947z"/>
		
			<linearGradient id="Vector_41_1_" gradientUnits="userSpaceOnUse" x1="53559.6641" y1="-57353.5898" x2="62851.7539" y2="-67401.0156" gradientTransform="matrix(1 0 0 -1 116 735)">
			<stop  offset="0" style="stop-color:#D3C5CB"/>
			<stop  offset="1" style="stop-color:#ADA0A6"/>
		</linearGradient>
		<path id="Vector_41" opacity="0.25" fill="url(#Vector_41_1_)" enable-background="new    " d="M342.354,387.549l-16.68-20.141
			c-0.564-0.679-1.352-1.135-2.222-1.286c-0.87-0.148-1.765,0.018-2.523,0.47l-17.84,10.641c-0.154,3.381,0.434,6.552,2.535,8.632
			c5.711,5.685,18.349-0.945,21.295,3.792c2.129,3.428-2.253,10.472-6.709,14.294c-5.616,4.821-12.595,5.602-17.851,5.306
			l0.845,2.157c0.595,1.525,1.736,2.775,3.202,3.504c1.466,0.729,3.151,0.886,4.727,0.439c8.823-2.495,25.251-8.564,31.949-20.442
			c0.635-1.158,0.904-2.481,0.775-3.795C343.729,389.805,343.203,388.561,342.354,387.549z"/>
		
			<linearGradient id="Vector_42_1_" gradientUnits="userSpaceOnUse" x1="195.3564" y1="355.9414" x2="188.2265" y2="363.595" gradientTransform="matrix(1 0 0 -1 116 735)">
			<stop  offset="0" style="stop-color:#96888E"/>
			<stop  offset="1" style="stop-color:#706369"/>
		</linearGradient>
		<path id="Vector_42" fill="url(#Vector_42_1_)" d="M322.659,366.648c1.002,1.734-4.842,6.985-13.052,11.725
			c-8.21,4.74-15.679,7.177-16.682,5.441c-1.003-1.735,4.841-6.984,13.054-11.725C314.192,367.35,321.659,364.914,322.659,366.648z"
			/>
		
			<linearGradient id="Vector_43_1_" gradientUnits="userSpaceOnUse" x1="20152.9102" y1="-27596.918" x2="21408.209" y2="-29356.2441" gradientTransform="matrix(1 0 0 -1 116 735)">
			<stop  offset="0" style="stop-color:#96888E"/>
			<stop  offset="1" style="stop-color:#706369"/>
		</linearGradient>
		<path id="Vector_43" fill="url(#Vector_43_1_)" d="M322.604,371.935c-1.098-1.824-8.579-13.874-16.65-18.025
			c-0.112,1.209-0.409,2.393-0.885,3.51c5.785,3.43,12.131,12.311,14.539,16.307c0.24,0.398,0.627,0.685,1.078,0.796
			c0.449,0.112,0.926,0.039,1.324-0.2c0.397-0.238,0.683-0.626,0.795-1.076c0.112-0.451,0.04-0.927-0.2-1.324V371.935z"/>
	</g>
	
		<linearGradient id="Vector_44_1_" gradientUnits="userSpaceOnUse" x1="-1000.374" y1="-1967.0947" x2="-653.2249" y2="-1284.2422" gradientTransform="matrix(1 0 0 -1 116 735)">
		<stop  offset="0" style="stop-color:#FAEBD7"/>
		<stop  offset="1" style="stop-color:#E8D0BA"/>
	</linearGradient>
	<path id="Vector_44" fill="url(#Vector_44_1_)" d="M311.356,352.414l-6.889,4.687c0,0,0.045,2.008,2.932,0
		c2.888-2.008,4.789-2.166,4.789-2.166L311.356,352.414z"/>
	
		<linearGradient id="Vector_45_1_" gradientUnits="userSpaceOnUse" x1="221.2354" y1="465.2246" x2="299.0645" y2="324.927" gradientTransform="matrix(1 0 0 -1 116 735)">
		<stop  offset="0" style="stop-color:#95AFC7"/>
		<stop  offset="1" style="stop-color:#7595B6"/>
	</linearGradient>
	<path id="Vector_45" fill="url(#Vector_45_1_)" d="M317.406,348.482l1.63,7.322c9.106,2.785,24.438,6.069,42.88,3.208
		c35.305-5.478,56.184-29.482,61.841-36.462c0.079-16.033-4.929-30.136-13.064-31.865c-1.566-0.332-1.018-12.849-19.316,10.863
		c-12.865,16.673-14.553,20.96-19.25,26.252C364.049,336.912,348.847,346.986,317.406,348.482z"/>
	
		<linearGradient id="Vector_46_1_" gradientUnits="userSpaceOnUse" x1="103600.0156" y1="-185767.6563" x2="141897.625" y2="-254799.5313" gradientTransform="matrix(1 0 0 -1 116 735)">
		<stop  offset="0" style="stop-color:#95AFC7"/>
		<stop  offset="1" style="stop-color:#7595B6"/>
	</linearGradient>
	<path id="Vector_46" fill="url(#Vector_46_1_)" d="M450.802,284.582c-9.5-9.575-28.979-4.016-32.815-2.917
		c-5.582,1.597-17.521,5.01-22.25,14.861c-2.253,4.684-2.658,10.352,5.758,33.781c12.617,35.135,19.977,40.352,17.461,54.262
		c-1.593,8.779-6.092,15.341-2.555,19.611c2.896,3.492,8.596,2.338,15.46,2.041c20.579-0.889,20.843,7.282,43.757,8.45
		c18.902,0.972,20.161-4.507,36.183-1.377c10.683,2.092,18.685,6.196,20.699,3.419c2.112-2.921-4.256-10.784-4.898-11.567
		c-8.472-10.313-16.431-7.827-25.731-16.728c-3.621-3.466-1.816-3.272-11.73-19.546c-5.399-8.866-9.807-15.278-13.938-21.292
		c-15.038-21.882-15.267-18.75-18.085-25.087C449.729,303.703,459.307,293.161,450.802,284.582z"/>
	
		<linearGradient id="Vector_47_1_" gradientUnits="userSpaceOnUse" x1="302.8203" y1="380.8125" x2="416.9102" y2="380.8125" gradientTransform="matrix(1 0 0 -1 116 735)">
		<stop  offset="0" style="stop-color:#A6B2C7"/>
		<stop  offset="1" style="stop-color:#7595B6"/>
	</linearGradient>
	<path id="Vector_47" opacity="0.3" fill="url(#Vector_47_1_)" enable-background="new    " d="M527.582,405.169
		c-8.474-10.313-16.432-7.827-25.732-16.727c-3.622-3.467-1.816-3.272-11.73-19.546c-5.399-8.866-9.807-15.28-13.938-21.293
		c-15.037-21.881-15.265-18.749-18.085-25.087c-6.497-14.598-2.177-24.221-3.903-31.803c-9.548,6.788-15.491,16.423-15.933,25.97
		c-0.689,14.928,11.902,33.074,25.669,36.463c3.879,0.954,7.743,0.709,9.334,3.5c3.327,5.828-9.508,13.942-8.168,22.752
		c2.163,14.184,39.149,17.521,38.507,22.171c-0.462,3.35-19.929,3.662-27.714,3.501c-4.573-0.093-8.866-0.18-14.583-1.169
		c-14.147-2.444-17.666-7.061-24.504-7.292c-4.549-0.151-10.587,1.659-17.98,9.32c3.158,1.262,7.743,0.532,13.021,0.308
		c20.58-0.891,20.842,7.28,43.757,8.448c18.901,0.972,20.16-4.506,36.184-1.377c10.682,2.092,18.684,6.195,20.697,3.419
		C534.603,413.802,528.224,405.938,527.582,405.169z"/>
	
		<linearGradient id="Vector_48_1_" gradientUnits="userSpaceOnUse" x1="16083.668" y1="-25132.4785" x2="16998.3203" y2="-26614.8652" gradientTransform="matrix(1 0 0 -1 116 735)">
		<stop  offset="0" style="stop-color:#FAEBD7"/>
		<stop  offset="1" style="stop-color:#E8D0BA"/>
	</linearGradient>
	<path id="Vector_48" fill="url(#Vector_48_1_)" d="M449.993,329.149c0,0-5.794-2.534-8.41-5.019
		c-2.615-2.484-11.15-2.518-11.15-2.518s-0.051,3.057,3.45,4.67c3.502,1.613,9.669,2.866,9.669,2.866l5.399,5.233L449.993,329.149z"
		/>
	
		<linearGradient id="Vector_49_1_" gradientUnits="userSpaceOnUse" x1="47889.543" y1="-97083.6328" x2="65518.2852" y2="-133244.0313" gradientTransform="matrix(1 0 0 -1 116 735)">
		<stop  offset="0" style="stop-color:#95AFC7"/>
		<stop  offset="1" style="stop-color:#7595B6"/>
	</linearGradient>
	<path id="Vector_49" fill="url(#Vector_49_1_)" d="M429.346,282.585c5.507-8.562,32.221,0.113,43.48,4.839
		c12.714,5.352,29.632,12.44,32.971,28.322c1.688,8.01-0.194,17.743-6.062,23.969c-10.531,11.187-34.15,11.355-54.133-4.607
		l2.501-8.732c21.915,6.898,27.883,6.395,28.922,4.363c1.243-2.437-3.915-8.418-9.669-11.581c-6.436-3.537-10.921-2.07-16.188-3.282
		C436.509,312.49,424.369,290.325,429.346,282.585z"/>
	
		<linearGradient id="Vector_50_1_" gradientUnits="userSpaceOnUse" x1="74.7246" y1="-113.2803" x2="957.3845" y2="2029.4211" gradientTransform="matrix(1 0 0 -1 116 735)">
		<stop  offset="0" style="stop-color:#FAEBD7"/>
		<stop  offset="1" style="stop-color:#E8D0BA"/>
	</linearGradient>
	<path id="Vector_50" fill="url(#Vector_50_1_)" d="M421.46,267.086c0,0,3.293,9.576,7.39,11.061
		c4.099,1.484,10.582,3.199,11.394,3.861c0.811,0.662-21.777,7.999-34.446,4.622c3.608-1.58,4.575-2.084,4.575-2.084
		c1.598-0.793,3.093-1.78,4.449-2.938c1.867-1.674,3.339-3.74,4.307-6.053l-1.183-5.434L421.46,267.086z"/>
	
		<linearGradient id="Vector_51_1_" gradientUnits="userSpaceOnUse" x1="8104.752" y1="6971.1611" x2="9378.4072" y2="8032.8521" gradientTransform="matrix(1 0 0 -1 116 735)">
		<stop  offset="0" style="stop-color:#FAEBD7"/>
		<stop  offset="1" style="stop-color:#E8D0BA"/>
	</linearGradient>
	<path id="Vector_51" fill="url(#Vector_51_1_)" d="M422.741,270.452c0,0-1.69,3.739-5.675,3.166
		c-3.575-0.513-3.38-9.507-0.963-11.038c0.808-0.51,2.453-0.704,3.661-0.257c0.845,0.313,3.41,2.406,2.842,5.467
		c0.789-0.419,1.571-0.352,1.844,0.025c0.344,0.476-0.214,1.344-0.34,1.539C423.778,269.853,423.301,270.236,422.741,270.452z"/>
	<g id="Group_4">
		<g id="Vector_52">
			<path fill="#D8DEE8" d="M181.292,478.961c-0.094,0-0.184-0.037-0.251-0.104c-0.066-0.065-0.104-0.155-0.106-0.249
				c0,0,0-0.378,0-1.084c0.002-0.095,0.04-0.186,0.107-0.251c0.067-0.067,0.159-0.104,0.253-0.104c0.047,0,0.093,0.01,0.137,0.028
				c0.043,0.018,0.083,0.044,0.116,0.078c0.032,0.033,0.059,0.072,0.076,0.117c0.018,0.043,0.026,0.09,0.025,0.138
				c0,0.689,0,1.062,0,1.064c0.001,0.095-0.036,0.186-0.102,0.255c-0.065,0.067-0.155,0.107-0.25,0.111H181.292z"/>
		</g>
		<g id="Vector_53">
			<path fill="#D8DEE8" d="M181.346,475.735c-0.047-0.001-0.094-0.012-0.137-0.031s-0.082-0.047-0.114-0.082
				c-0.032-0.034-0.057-0.076-0.073-0.12c-0.017-0.044-0.024-0.092-0.022-0.139c0.022-0.642,0.056-1.366,0.101-2.177
				c0.011-0.091,0.056-0.174,0.127-0.232c0.07-0.058,0.16-0.088,0.25-0.082c0.092,0.004,0.177,0.044,0.24,0.109
				c0.063,0.066,0.1,0.153,0.1,0.245c-0.047,0.802-0.078,1.526-0.101,2.163c-0.004,0.095-0.045,0.184-0.115,0.249
				S181.441,475.738,181.346,475.735z M181.588,471.401h-0.026c-0.096-0.007-0.184-0.052-0.246-0.125
				c-0.063-0.072-0.094-0.166-0.087-0.262c0.051-0.684,0.113-1.407,0.183-2.165c0.003-0.047,0.016-0.094,0.037-0.136
				c0.021-0.042,0.052-0.079,0.088-0.11c0.036-0.03,0.079-0.053,0.124-0.065c0.046-0.015,0.093-0.019,0.141-0.013
				c0.046,0.004,0.092,0.018,0.134,0.038c0.042,0.022,0.079,0.053,0.108,0.088c0.03,0.037,0.053,0.078,0.066,0.124
				c0.014,0.044,0.019,0.092,0.014,0.139c-0.067,0.755-0.129,1.476-0.18,2.154c-0.007,0.091-0.048,0.175-0.114,0.236
				C181.765,471.366,181.678,471.4,181.588,471.401z M181.988,467.084h-0.04c-0.094-0.012-0.181-0.059-0.241-0.134
				c-0.059-0.074-0.086-0.169-0.076-0.264c0.076-0.695,0.16-1.408,0.253-2.157c0.001-0.05,0.014-0.1,0.035-0.145
				c0.023-0.045,0.054-0.085,0.092-0.117c0.038-0.032,0.082-0.056,0.13-0.071c0.048-0.014,0.099-0.017,0.148-0.011
				c0.05,0.006,0.097,0.022,0.141,0.048c0.043,0.025,0.08,0.061,0.109,0.101c0.028,0.041,0.049,0.088,0.059,0.137
				c0.01,0.049,0.009,0.1-0.001,0.147c-0.092,0.739-0.177,1.454-0.253,2.146c-0.01,0.088-0.052,0.171-0.119,0.229
				c-0.067,0.059-0.153,0.091-0.242,0.09H181.988z M182.526,462.785h-0.05c-0.095-0.014-0.179-0.063-0.236-0.141
				c-0.057-0.075-0.082-0.17-0.069-0.265c0.098-0.701,0.208-1.408,0.324-2.149c0.022-0.087,0.076-0.165,0.15-0.215
				c0.076-0.05,0.167-0.069,0.256-0.056c0.09,0.015,0.17,0.062,0.226,0.133c0.057,0.07,0.084,0.16,0.077,0.251
				c-0.116,0.728-0.224,1.438-0.321,2.135c-0.012,0.086-0.056,0.163-0.122,0.22C182.695,462.755,182.612,462.786,182.526,462.785z
				 M183.208,458.507c-0.021,0.003-0.043,0.003-0.065,0c-0.092-0.018-0.172-0.071-0.225-0.148c-0.053-0.078-0.073-0.173-0.057-0.266
				c0.12-0.7,0.251-1.411,0.394-2.135c0.009-0.046,0.026-0.091,0.052-0.13c0.026-0.039,0.06-0.073,0.099-0.1
				c0.04-0.026,0.083-0.044,0.129-0.053c0.046-0.01,0.094-0.009,0.141,0.001c0.092,0.019,0.174,0.072,0.227,0.151
				s0.072,0.176,0.054,0.269c-0.141,0.717-0.271,1.425-0.392,2.123c-0.016,0.083-0.061,0.156-0.127,0.209
				C183.373,458.48,183.291,458.509,183.208,458.507z M184.024,454.258h-0.074c-0.047-0.011-0.091-0.027-0.13-0.055
				c-0.04-0.026-0.073-0.061-0.099-0.1c-0.027-0.039-0.044-0.084-0.054-0.13c-0.008-0.048-0.008-0.095,0.001-0.142
				c0.147-0.698,0.299-1.408,0.462-2.121c0.008-0.048,0.027-0.092,0.054-0.132c0.026-0.039,0.061-0.074,0.101-0.1
				c0.04-0.026,0.086-0.045,0.132-0.054c0.047-0.008,0.096-0.007,0.143,0.004c0.047,0.01,0.092,0.028,0.131,0.056
				c0.039,0.026,0.074,0.062,0.099,0.102c0.026,0.039,0.044,0.085,0.054,0.132c0.008,0.047,0.008,0.095-0.002,0.143
				c-0.164,0.709-0.315,1.407-0.462,2.106c-0.017,0.081-0.062,0.155-0.127,0.209C184.189,454.229,184.108,454.258,184.024,454.258z
				 M184.987,450.032c-0.029,0.004-0.058,0.004-0.087,0c-0.046-0.011-0.088-0.031-0.126-0.059c-0.038-0.028-0.07-0.063-0.095-0.104
				c-0.024-0.04-0.04-0.085-0.047-0.131c-0.007-0.048-0.004-0.095,0.006-0.14c0.172-0.696,0.35-1.409,0.538-2.105
				c0.025-0.091,0.084-0.169,0.167-0.217c0.083-0.048,0.18-0.061,0.272-0.036c0.091,0.024,0.17,0.085,0.217,0.168
				c0.048,0.082,0.06,0.18,0.036,0.271c-0.186,0.701-0.363,1.408-0.535,2.09c-0.021,0.076-0.065,0.144-0.128,0.191
				s-0.14,0.074-0.218,0.074V450.032z M186.097,445.851c-0.033,0.004-0.066,0.004-0.099,0c-0.092-0.026-0.169-0.088-0.215-0.172
				c-0.046-0.083-0.059-0.182-0.032-0.273c0.197-0.69,0.4-1.384,0.614-2.082c0.027-0.091,0.09-0.167,0.173-0.212
				c0.085-0.045,0.183-0.055,0.274-0.027c0.091,0.028,0.167,0.091,0.212,0.175s0.054,0.183,0.027,0.273
				c-0.212,0.695-0.415,1.384-0.611,2.07c-0.023,0.073-0.07,0.136-0.131,0.181c-0.062,0.046-0.136,0.07-0.212,0.07V445.851z
				 M187.358,441.71c-0.037,0-0.074-0.007-0.109-0.017c-0.091-0.03-0.166-0.095-0.209-0.18c-0.043-0.084-0.051-0.184-0.021-0.274
				c0.223-0.681,0.454-1.368,0.692-2.056c0.013-0.048,0.036-0.093,0.066-0.133c0.031-0.038,0.07-0.07,0.114-0.095
				c0.043-0.023,0.091-0.037,0.141-0.04c0.05-0.004,0.099,0.003,0.146,0.02c0.046,0.016,0.09,0.041,0.126,0.075
				c0.037,0.033,0.065,0.074,0.085,0.121c0.02,0.045,0.03,0.095,0.03,0.144c0,0.05-0.011,0.1-0.03,0.146
				c-0.24,0.681-0.468,1.362-0.69,2.041c-0.022,0.073-0.067,0.137-0.129,0.182c-0.062,0.046-0.135,0.069-0.212,0.069V441.71z
				 M188.767,437.623c-0.042,0-0.084-0.007-0.124-0.022c-0.044-0.016-0.084-0.041-0.119-0.073c-0.034-0.032-0.063-0.07-0.083-0.113
				c-0.019-0.044-0.03-0.09-0.032-0.137s0.006-0.095,0.023-0.139c0.251-0.673,0.511-1.348,0.777-2.028
				c0.017-0.043,0.042-0.083,0.076-0.116c0.033-0.035,0.072-0.062,0.115-0.081c0.044-0.018,0.09-0.028,0.137-0.028
				c0.047-0.001,0.094,0.009,0.138,0.026c0.088,0.036,0.157,0.104,0.195,0.191c0.038,0.087,0.041,0.186,0.007,0.273
				c-0.269,0.674-0.526,1.345-0.772,2.014c-0.024,0.067-0.068,0.126-0.125,0.167c-0.058,0.043-0.127,0.066-0.199,0.069
				L188.767,437.623z M190.358,433.601c-0.047,0-0.094-0.01-0.138-0.027c-0.087-0.037-0.158-0.107-0.195-0.195
				c-0.035-0.088-0.035-0.187,0-0.275c0.283-0.665,0.57-1.329,0.865-1.994c0.044-0.074,0.115-0.13,0.198-0.157
				c0.083-0.025,0.172-0.021,0.252,0.013c0.08,0.035,0.145,0.097,0.183,0.175c0.038,0.079,0.046,0.167,0.022,0.252
				c-0.294,0.658-0.576,1.315-0.844,1.971c-0.022,0.071-0.066,0.134-0.125,0.179c-0.059,0.046-0.13,0.072-0.205,0.075
				L190.358,433.601z M192.125,429.658c-0.054,0-0.106-0.012-0.155-0.034c-0.042-0.019-0.082-0.048-0.113-0.083
				c-0.032-0.034-0.056-0.076-0.072-0.12c-0.015-0.045-0.022-0.093-0.019-0.14c0.003-0.048,0.015-0.093,0.036-0.135
				c0.308-0.651,0.625-1.3,0.952-1.95c0.021-0.041,0.05-0.079,0.085-0.11c0.036-0.03,0.078-0.055,0.122-0.069
				s0.092-0.021,0.139-0.018c0.046,0.004,0.092,0.017,0.135,0.037c0.042,0.021,0.08,0.051,0.11,0.086
				c0.03,0.036,0.055,0.077,0.069,0.122c0.015,0.044,0.021,0.092,0.017,0.139c-0.003,0.046-0.016,0.093-0.036,0.135
				c-0.326,0.644-0.641,1.289-0.947,1.936c-0.029,0.058-0.072,0.106-0.128,0.142c-0.054,0.036-0.117,0.056-0.182,0.058
				L192.125,429.658z M194.07,425.797c-0.059,0-0.117-0.015-0.169-0.042c-0.084-0.046-0.146-0.122-0.174-0.213
				c-0.027-0.092-0.017-0.19,0.028-0.274c0.34-0.637,0.689-1.271,1.047-1.901c0.022-0.045,0.052-0.085,0.089-0.117
				c0.037-0.033,0.081-0.058,0.128-0.073c0.047-0.015,0.098-0.02,0.146-0.015c0.05,0.006,0.098,0.021,0.141,0.045
				c0.043,0.025,0.081,0.058,0.111,0.099c0.029,0.039,0.051,0.084,0.062,0.133c0.011,0.048,0.013,0.099,0.004,0.146
				c-0.009,0.05-0.028,0.096-0.055,0.138c-0.358,0.625-0.704,1.256-1.042,1.887c-0.029,0.053-0.071,0.097-0.123,0.129
				c-0.052,0.032-0.11,0.051-0.17,0.054L194.07,425.797z M196.206,422.037c-0.063,0-0.126-0.017-0.182-0.049
				c-0.054-0.031-0.1-0.078-0.131-0.133c-0.032-0.057-0.047-0.118-0.046-0.182c0-0.063,0.019-0.127,0.052-0.181
				c0.375-0.619,0.754-1.233,1.146-1.844c0.026-0.041,0.058-0.075,0.097-0.102c0.039-0.027,0.083-0.047,0.128-0.057
				c0.046-0.011,0.094-0.012,0.14-0.003c0.047,0.008,0.091,0.024,0.13,0.05c0.04,0.026,0.075,0.059,0.102,0.098
				c0.027,0.039,0.045,0.082,0.056,0.128c0.011,0.047,0.012,0.094,0.003,0.141c-0.008,0.046-0.025,0.09-0.05,0.13
				c-0.389,0.605-0.766,1.217-1.127,1.828c-0.032,0.052-0.077,0.095-0.13,0.124c-0.053,0.029-0.113,0.045-0.173,0.045
				L196.206,422.037z M198.538,418.396c-0.066,0-0.13-0.018-0.187-0.052c-0.057-0.033-0.103-0.081-0.133-0.14
				c-0.03-0.059-0.044-0.124-0.04-0.189c0.004-0.066,0.026-0.129,0.063-0.184c0.406-0.597,0.82-1.189,1.246-1.779
				c0.058-0.068,0.141-0.112,0.23-0.122c0.09-0.012,0.18,0.012,0.253,0.064c0.073,0.053,0.124,0.132,0.142,0.22
				c0.019,0.088,0.004,0.18-0.043,0.257c-0.422,0.584-0.834,1.173-1.236,1.765c-0.031,0.045-0.074,0.084-0.123,0.11
				c-0.049,0.027-0.103,0.042-0.159,0.044L198.538,418.396z M201.072,414.888c-0.079,0.002-0.155-0.023-0.217-0.072
				c-0.074-0.059-0.124-0.144-0.137-0.238c-0.012-0.095,0.013-0.189,0.069-0.266c0.439-0.563,0.889-1.127,1.35-1.69
				c0.06-0.074,0.148-0.123,0.243-0.132c0.096-0.01,0.192,0.019,0.266,0.079c0.075,0.06,0.123,0.147,0.132,0.244
				c0.01,0.095-0.019,0.19-0.079,0.265c-0.452,0.564-0.896,1.127-1.332,1.69c-0.037,0.039-0.081,0.069-0.13,0.09
				s-0.103,0.028-0.157,0.025L201.072,414.888z M203.805,411.54c-0.086,0-0.169-0.03-0.235-0.088
				c-0.071-0.062-0.115-0.151-0.122-0.246c-0.007-0.094,0.024-0.188,0.086-0.261c0.473-0.546,0.958-1.084,1.45-1.619
				c0.064-0.07,0.155-0.111,0.25-0.115c0.094-0.003,0.188,0.031,0.257,0.096s0.111,0.154,0.115,0.249s-0.03,0.188-0.095,0.258
				c-0.488,0.529-0.965,1.063-1.433,1.603c-0.034,0.036-0.075,0.066-0.121,0.087c-0.045,0.021-0.095,0.031-0.144,0.031
				L203.805,411.54z M206.739,408.366c-0.094,0-0.185-0.037-0.253-0.103c-0.067-0.067-0.105-0.159-0.105-0.254
				s0.038-0.187,0.105-0.255c0.506-0.513,1.022-1.022,1.549-1.524c0.07-0.057,0.16-0.087,0.251-0.081
				c0.091,0.005,0.176,0.045,0.239,0.111c0.063,0.065,0.099,0.153,0.099,0.244c0.002,0.092-0.032,0.179-0.094,0.247
				c-0.521,0.495-1.034,0.997-1.531,1.507c-0.068,0.064-0.158,0.101-0.251,0.102L206.739,408.366z M209.866,405.381
				c-0.073,0-0.145-0.022-0.205-0.063s-0.106-0.099-0.132-0.167c-0.025-0.067-0.03-0.142-0.013-0.213
				c0.017-0.07,0.056-0.134,0.11-0.183c0.537-0.48,1.087-0.952,1.647-1.408c0.076-0.062,0.171-0.09,0.267-0.079
				c0.096,0.009,0.184,0.058,0.244,0.132c0.062,0.074,0.09,0.17,0.08,0.266c-0.009,0.096-0.058,0.185-0.132,0.245
				c-0.563,0.462-1.095,0.929-1.628,1.408C210.034,405.367,209.95,405.389,209.866,405.381z M213.186,402.617
				c-0.075,0-0.148-0.023-0.208-0.067c-0.061-0.044-0.105-0.104-0.13-0.175c-0.024-0.07-0.026-0.146-0.005-0.219
				c0.02-0.071,0.063-0.135,0.121-0.181c0.563-0.445,1.149-0.879,1.738-1.308c0.078-0.049,0.171-0.068,0.262-0.051
				c0.09,0.017,0.171,0.068,0.225,0.143c0.055,0.074,0.078,0.167,0.066,0.259c-0.013,0.092-0.059,0.175-0.131,0.232
				c-0.583,0.423-1.154,0.846-1.718,1.29c-0.06,0.048-0.133,0.074-0.208,0.076H213.186z M216.684,400.082
				c-0.059,0.001-0.117-0.013-0.169-0.04c-0.052-0.027-0.097-0.067-0.129-0.117c-0.027-0.039-0.045-0.082-0.055-0.129
				c-0.01-0.046-0.01-0.095-0.001-0.141c0.009-0.045,0.027-0.09,0.053-0.13c0.026-0.039,0.059-0.072,0.099-0.099
				c0.597-0.401,1.204-0.797,1.821-1.184c0.041-0.024,0.084-0.041,0.131-0.049c0.046-0.008,0.094-0.007,0.14,0.004
				c0.046,0.011,0.089,0.03,0.127,0.058c0.038,0.027,0.071,0.062,0.096,0.103c0.024,0.039,0.042,0.083,0.05,0.13
				c0.007,0.046,0.006,0.095-0.005,0.14c-0.01,0.047-0.03,0.09-0.058,0.128s-0.062,0.071-0.102,0.096
				c-0.612,0.376-1.212,0.767-1.8,1.172c-0.056,0.035-0.122,0.055-0.188,0.056L216.684,400.082z M220.345,397.79
				c-0.079,0-0.155-0.025-0.218-0.073c-0.063-0.047-0.108-0.115-0.129-0.191c-0.02-0.075-0.015-0.156,0.015-0.229
				c0.03-0.072,0.083-0.134,0.152-0.173c0.621-0.363,1.253-0.716,1.897-1.06c0.042-0.022,0.087-0.036,0.134-0.041
				c0.046-0.005,0.094,0,0.139,0.014s0.087,0.036,0.123,0.066c0.037,0.029,0.066,0.065,0.089,0.107
				c0.022,0.042,0.036,0.087,0.04,0.134c0.005,0.047,0,0.094-0.013,0.139c-0.014,0.045-0.036,0.087-0.066,0.124
				c-0.029,0.036-0.066,0.066-0.107,0.088c-0.633,0.34-1.258,0.689-1.875,1.048c-0.053,0.029-0.112,0.045-0.172,0.045
				L220.345,397.79z M224.153,395.748c-0.067,0-0.133-0.019-0.19-0.055c-0.057-0.035-0.104-0.085-0.134-0.146
				c-0.02-0.042-0.032-0.088-0.036-0.135c-0.003-0.047,0.003-0.094,0.019-0.139c0.015-0.044,0.039-0.085,0.07-0.12
				c0.031-0.035,0.069-0.063,0.11-0.085c0.644-0.319,1.302-0.629,1.972-0.93c0.043-0.02,0.089-0.03,0.137-0.033
				c0.047-0.001,0.094,0.006,0.138,0.023c0.045,0.017,0.086,0.041,0.12,0.073c0.035,0.032,0.063,0.071,0.082,0.114
				c0.038,0.088,0.04,0.187,0.007,0.274c-0.034,0.089-0.101,0.162-0.188,0.202c-0.657,0.294-1.304,0.601-1.941,0.918
				c-0.048,0.023-0.103,0.034-0.157,0.033L224.153,395.748z M228.096,393.965c-0.083,0-0.164-0.029-0.228-0.082
				c-0.064-0.053-0.108-0.127-0.125-0.208c-0.016-0.082-0.003-0.166,0.036-0.238c0.039-0.074,0.102-0.131,0.178-0.164
				c0.665-0.281,1.334-0.54,2.02-0.8c0.088-0.034,0.188-0.03,0.274,0.009c0.087,0.038,0.154,0.11,0.188,0.199
				c0.034,0.089,0.031,0.188-0.008,0.274c-0.039,0.087-0.111,0.154-0.2,0.188c-0.676,0.258-1.342,0.522-1.997,0.795
				c-0.045,0.017-0.093,0.025-0.142,0.025L228.096,393.965z M232.135,392.436c-0.086,0.003-0.17-0.027-0.236-0.082
				c-0.066-0.056-0.111-0.132-0.125-0.217c-0.014-0.085,0.003-0.172,0.048-0.245c0.045-0.074,0.115-0.128,0.197-0.154
				c0.678-0.232,1.365-0.457,2.062-0.673c0.045-0.014,0.092-0.02,0.139-0.015c0.047,0.004,0.093,0.017,0.135,0.039
				c0.042,0.022,0.079,0.052,0.109,0.088s0.053,0.077,0.067,0.122c0.014,0.046,0.02,0.093,0.015,0.141
				c-0.004,0.046-0.017,0.092-0.04,0.134c-0.021,0.041-0.051,0.078-0.087,0.108s-0.078,0.053-0.123,0.066
				c-0.691,0.215-1.372,0.438-2.042,0.668c-0.04,0.012-0.08,0.017-0.121,0.017L232.135,392.436z M236.261,391.157
				c-0.087,0.002-0.173-0.028-0.24-0.086c-0.066-0.057-0.11-0.137-0.122-0.224c-0.013-0.086,0.009-0.175,0.058-0.248
				c0.049-0.072,0.123-0.125,0.208-0.146c0.691-0.188,1.392-0.375,2.101-0.563c0.092-0.023,0.19-0.008,0.271,0.041
				c0.082,0.05,0.14,0.129,0.162,0.222c0.023,0.092,0.007,0.189-0.042,0.271c-0.049,0.081-0.129,0.14-0.221,0.162
				c-0.7,0.175-1.393,0.354-2.078,0.543c-0.031,0.015-0.064,0.023-0.099,0.025L236.261,391.157z M240.455,390.124
				c-0.086-0.004-0.169-0.037-0.233-0.097c-0.064-0.059-0.104-0.14-0.113-0.226c-0.009-0.087,0.013-0.173,0.062-0.244
				c0.05-0.072,0.123-0.122,0.208-0.144c0.702-0.152,1.409-0.282,2.127-0.428c0.046-0.01,0.093-0.009,0.14,0
				c0.046,0.01,0.09,0.028,0.129,0.055c0.039,0.026,0.072,0.06,0.099,0.101c0.025,0.038,0.043,0.082,0.052,0.129
				c0.009,0.046,0.009,0.094-0.001,0.14c-0.009,0.045-0.028,0.09-0.054,0.129c-0.026,0.038-0.06,0.071-0.1,0.099
				c-0.039,0.025-0.083,0.043-0.129,0.053c-0.712,0.135-1.408,0.281-2.109,0.425L240.455,390.124z M244.702,389.326
				c-0.089-0.002-0.175-0.036-0.24-0.098s-0.104-0.145-0.112-0.234c-0.007-0.089,0.02-0.177,0.074-0.249
				c0.055-0.07,0.134-0.118,0.222-0.134c0.708-0.112,1.409-0.22,2.147-0.316c0.091-0.005,0.18,0.024,0.25,0.083
				c0.07,0.058,0.116,0.14,0.128,0.229c0.012,0.091-0.01,0.182-0.062,0.256c-0.053,0.074-0.131,0.126-0.221,0.146
				c-0.719,0.095-1.428,0.2-2.128,0.312L244.702,389.326z M248.986,388.764c-0.095,0.005-0.188-0.027-0.259-0.091
				c-0.07-0.064-0.113-0.152-0.119-0.248c-0.005-0.094,0.027-0.188,0.091-0.258c0.063-0.071,0.152-0.114,0.248-0.119
				c0.712-0.079,1.431-0.146,2.16-0.209c0.047-0.004,0.095,0,0.14,0.015c0.046,0.014,0.087,0.037,0.124,0.067
				s0.066,0.067,0.087,0.11c0.022,0.042,0.035,0.088,0.038,0.135c0.008,0.095-0.022,0.189-0.084,0.264
				c-0.062,0.072-0.15,0.117-0.245,0.125c-0.72,0.06-1.437,0.129-2.143,0.205L248.986,388.764z"/>
		</g>
		<g id="Vector_54">
			<path fill="#D8DEE8" d="M253.289,388.38c-0.091-0.005-0.176-0.042-0.239-0.107c-0.063-0.064-0.101-0.15-0.104-0.241
				c-0.003-0.09,0.029-0.179,0.088-0.246c0.059-0.068,0.142-0.112,0.232-0.123c0.357-0.022,0.718-0.042,1.079-0.06
				c0.047-0.003,0.095,0.003,0.14,0.018c0.044,0.016,0.086,0.04,0.121,0.07c0.035,0.032,0.064,0.071,0.084,0.113
				c0.019,0.044,0.031,0.09,0.032,0.138c0.003,0.047-0.004,0.094-0.02,0.139c-0.016,0.045-0.041,0.086-0.072,0.121
				c-0.031,0.035-0.069,0.063-0.112,0.083c-0.043,0.021-0.089,0.032-0.137,0.034l-1.07,0.06L253.289,388.38z"/>
		</g>
	</g>
	<g id="Group_5">
		<g id="Vector_55">
			<path fill="#D8DEE8" d="M255.043,392.388c-0.083-0.001-0.162-0.031-0.225-0.085c-0.063-0.053-0.106-0.126-0.122-0.208
				c-0.016-0.081-0.002-0.165,0.037-0.237c0.039-0.073,0.102-0.13,0.178-0.162c0.662-0.262,1.019-0.386,1.019-0.386
				c0.045-0.016,0.092-0.021,0.139-0.02c0.047,0.003,0.093,0.016,0.136,0.035c0.043,0.021,0.08,0.051,0.112,0.086
				c0.031,0.035,0.055,0.076,0.07,0.121c0.015,0.044,0.022,0.091,0.019,0.139c-0.003,0.046-0.014,0.093-0.036,0.135
				c-0.021,0.042-0.049,0.081-0.084,0.112c-0.036,0.03-0.077,0.055-0.121,0.07c0,0-0.352,0.12-0.989,0.374
				C255.134,392.38,255.089,392.388,255.043,392.388z"/>
		</g>
		<g id="Vector_56">
			<path fill="#D8DEE8" d="M206.628,474.587c-0.09,0-0.176-0.033-0.243-0.094c-0.066-0.062-0.107-0.145-0.115-0.233
				c-0.066-0.718-0.124-1.431-0.172-2.139c-0.001-0.091,0.033-0.181,0.095-0.248c0.063-0.068,0.149-0.11,0.24-0.117
				c0.092-0.006,0.183,0.023,0.254,0.082c0.071,0.058,0.118,0.142,0.128,0.233c0.049,0.704,0.106,1.412,0.169,2.124
				c0.008,0.095-0.022,0.189-0.083,0.262s-0.149,0.117-0.243,0.127L206.628,474.587z M206.347,470.322
				c-0.092,0-0.181-0.034-0.247-0.099c-0.067-0.063-0.106-0.15-0.11-0.242c-0.037-0.718-0.065-1.434-0.084-2.141
				c-0.006-0.05-0.001-0.1,0.014-0.147c0.015-0.048,0.039-0.092,0.072-0.129c0.033-0.038,0.073-0.068,0.118-0.089
				c0.044-0.022,0.094-0.033,0.144-0.035c0.05-0.001,0.1,0.008,0.146,0.026c0.045,0.02,0.087,0.047,0.123,0.083
				c0.035,0.035,0.062,0.078,0.079,0.125c0.018,0.047,0.025,0.097,0.022,0.146c0.019,0.701,0.046,1.41,0.082,2.127
				c0.002,0.048-0.004,0.094-0.021,0.138c-0.015,0.045-0.04,0.086-0.071,0.121c-0.032,0.034-0.071,0.063-0.113,0.083
				c-0.042,0.019-0.089,0.031-0.136,0.033H206.347z M206.228,466.053c-0.046,0-0.093-0.009-0.137-0.026
				c-0.043-0.018-0.083-0.043-0.116-0.077c-0.033-0.033-0.059-0.072-0.078-0.115c-0.018-0.043-0.027-0.089-0.027-0.136v-0.539
				c0-0.538,0-1.069,0-1.603c0-0.047,0.009-0.094,0.027-0.138c0.019-0.044,0.046-0.083,0.08-0.117
				c0.035-0.032,0.075-0.058,0.12-0.075c0.045-0.016,0.092-0.024,0.139-0.021c0.047,0.001,0.094,0.011,0.138,0.029
				c0.043,0.02,0.082,0.047,0.115,0.081c0.033,0.034,0.059,0.073,0.076,0.118c0.017,0.044,0.025,0.09,0.024,0.138
				c0,0.523-0.014,1.057-0.014,1.588v0.539c0,0.047-0.008,0.094-0.026,0.138c-0.018,0.043-0.044,0.082-0.078,0.117
				c-0.033,0.033-0.073,0.059-0.116,0.077s-0.09,0.028-0.137,0.028L206.228,466.053z M206.302,461.783
				c-0.047-0.003-0.093-0.014-0.136-0.033s-0.082-0.048-0.113-0.081c-0.032-0.035-0.057-0.075-0.073-0.12
				c-0.017-0.044-0.024-0.09-0.022-0.138c0.028-0.722,0.064-1.435,0.109-2.141c0.003-0.048,0.015-0.093,0.035-0.136
				c0.021-0.043,0.049-0.081,0.085-0.112c0.035-0.03,0.077-0.055,0.121-0.069c0.045-0.015,0.093-0.021,0.14-0.018
				c0.095,0.006,0.184,0.049,0.248,0.12c0.063,0.071,0.095,0.164,0.09,0.26c-0.045,0.701-0.084,1.408-0.113,2.124
				c-0.002,0.047-0.013,0.095-0.035,0.138c-0.02,0.044-0.049,0.083-0.085,0.115c-0.037,0.031-0.079,0.055-0.125,0.07
				c-0.046,0.015-0.093,0.021-0.141,0.018L206.302,461.783z M206.583,457.519h-0.034c-0.046-0.004-0.092-0.018-0.134-0.039
				s-0.079-0.051-0.108-0.087c-0.03-0.036-0.054-0.078-0.067-0.123c-0.014-0.046-0.019-0.093-0.014-0.14
				c0.062-0.719,0.133-1.432,0.214-2.135c0.011-0.094,0.058-0.181,0.132-0.24c0.075-0.059,0.17-0.086,0.265-0.075
				c0.094,0.011,0.181,0.06,0.239,0.134c0.059,0.074,0.086,0.169,0.076,0.264c-0.079,0.698-0.149,1.403-0.211,2.114
				c-0.009,0.094-0.053,0.18-0.125,0.241c-0.07,0.061-0.163,0.092-0.255,0.086H206.583z M207.062,453.276h-0.047
				c-0.095-0.013-0.18-0.063-0.237-0.139c-0.059-0.075-0.083-0.172-0.07-0.267c0.099-0.715,0.208-1.408,0.323-2.12
				c0.017-0.095,0.068-0.178,0.146-0.232c0.038-0.027,0.082-0.047,0.127-0.058c0.045-0.011,0.093-0.013,0.139-0.005
				s0.091,0.025,0.131,0.05s0.075,0.057,0.102,0.097c0.027,0.037,0.047,0.081,0.058,0.126c0.011,0.047,0.013,0.094,0.004,0.141
				c-0.112,0.692-0.218,1.394-0.318,2.102c-0.012,0.088-0.058,0.167-0.126,0.224c-0.069,0.058-0.156,0.086-0.245,0.082H207.062z
				 M207.763,449.053h-0.07c-0.093-0.02-0.175-0.075-0.227-0.154c-0.053-0.079-0.073-0.176-0.055-0.269
				c0.137-0.707,0.282-1.408,0.436-2.098c0.009-0.047,0.028-0.092,0.054-0.131c0.027-0.041,0.061-0.074,0.102-0.102
				c0.039-0.025,0.084-0.044,0.131-0.052c0.047-0.009,0.095-0.008,0.142,0.002s0.091,0.028,0.131,0.055s0.073,0.061,0.099,0.101
				c0.027,0.04,0.044,0.084,0.054,0.131c0.008,0.047,0.008,0.096-0.002,0.142c-0.152,0.685-0.282,1.381-0.431,2.081
				c-0.014,0.091-0.061,0.173-0.133,0.229c-0.071,0.057-0.161,0.083-0.253,0.076L207.763,449.053z M208.685,444.885
				c-0.029,0.002-0.059,0.002-0.088,0c-0.045-0.013-0.088-0.032-0.126-0.061s-0.07-0.063-0.094-0.104
				c-0.024-0.042-0.04-0.087-0.046-0.134c-0.006-0.046-0.004-0.094,0.008-0.14c0.174-0.698,0.357-1.391,0.563-2.072
				c0.026-0.092,0.087-0.169,0.169-0.216s0.181-0.059,0.273-0.033c0.091,0.026,0.169,0.087,0.215,0.171
				c0.046,0.082,0.059,0.181,0.032,0.272c-0.188,0.676-0.372,1.359-0.543,2.053c-0.021,0.084-0.071,0.157-0.142,0.208
				s-0.157,0.072-0.243,0.065L208.685,444.885z M209.836,440.772c-0.036-0.001-0.072-0.007-0.107-0.018
				c-0.091-0.029-0.166-0.093-0.21-0.177c-0.044-0.084-0.054-0.183-0.026-0.273c0.214-0.687,0.437-1.367,0.667-2.039
				c0.031-0.09,0.096-0.164,0.183-0.207c0.085-0.04,0.184-0.047,0.273-0.016s0.165,0.097,0.206,0.182
				c0.042,0.086,0.048,0.185,0.017,0.274c-0.228,0.665-0.447,1.338-0.659,2.02c-0.021,0.079-0.069,0.149-0.136,0.197
				c-0.067,0.049-0.148,0.072-0.23,0.067L209.836,440.772z M211.222,436.729c-0.044,0.001-0.086-0.006-0.127-0.021
				c-0.088-0.033-0.161-0.102-0.2-0.188c-0.04-0.087-0.044-0.186-0.011-0.274c0.254-0.677,0.516-1.341,0.784-2
				c0.037-0.088,0.107-0.157,0.197-0.193c0.088-0.037,0.188-0.036,0.276,0.002c0.088,0.038,0.157,0.108,0.194,0.197
				c0.036,0.088,0.035,0.188-0.002,0.276c-0.266,0.648-0.524,1.307-0.775,1.972c-0.025,0.073-0.074,0.137-0.138,0.181
				s-0.142,0.065-0.219,0.062L211.222,436.729z M212.836,432.787c-0.05,0-0.1-0.011-0.146-0.031c-0.087-0.039-0.155-0.11-0.189-0.2
				c-0.034-0.089-0.032-0.188,0.006-0.274c0.282-0.66,0.594-1.308,0.898-1.95c0.042-0.085,0.116-0.149,0.206-0.182
				c0.089-0.031,0.188-0.027,0.274,0.013c0.042,0.021,0.081,0.05,0.112,0.084c0.031,0.035,0.056,0.076,0.071,0.12
				c0.016,0.045,0.023,0.092,0.02,0.14c-0.003,0.047-0.015,0.093-0.035,0.135c-0.305,0.638-0.6,1.279-0.89,1.933
				c-0.03,0.067-0.079,0.124-0.141,0.163c-0.063,0.039-0.136,0.058-0.208,0.054L212.836,432.787z M214.68,428.935
				c-0.058-0.001-0.114-0.015-0.166-0.039c-0.085-0.045-0.148-0.12-0.178-0.211c-0.029-0.091-0.021-0.189,0.022-0.274
				c0.329-0.642,0.666-1.272,1.011-1.893c0.022-0.041,0.053-0.077,0.09-0.106c0.038-0.029,0.079-0.052,0.125-0.064
				c0.045-0.013,0.092-0.018,0.139-0.012c0.047,0.005,0.092,0.02,0.133,0.042c0.041,0.023,0.078,0.054,0.107,0.09
				c0.029,0.037,0.051,0.079,0.064,0.125c0.013,0.045,0.017,0.092,0.012,0.14c-0.005,0.046-0.02,0.092-0.042,0.133
				c-0.338,0.617-0.673,1.242-1,1.876c-0.032,0.063-0.082,0.116-0.144,0.151c-0.061,0.035-0.132,0.051-0.203,0.045L214.68,428.935z
				 M216.745,425.197c-0.064-0.001-0.127-0.019-0.184-0.051c-0.082-0.05-0.14-0.128-0.164-0.222
				c-0.023-0.092-0.008-0.189,0.04-0.271c0.366-0.621,0.742-1.23,1.126-1.832c0.025-0.039,0.058-0.073,0.096-0.101
				c0.039-0.027,0.083-0.047,0.128-0.057c0.046-0.011,0.093-0.012,0.14-0.004c0.047,0.008,0.091,0.025,0.13,0.05
				c0.041,0.025,0.075,0.058,0.102,0.097c0.027,0.039,0.046,0.082,0.057,0.128s0.012,0.093,0.004,0.14
				c-0.008,0.047-0.025,0.091-0.05,0.131c-0.375,0.594-0.747,1.199-1.11,1.813c-0.034,0.06-0.083,0.107-0.144,0.139
				c-0.06,0.032-0.127,0.046-0.195,0.041L216.745,425.197z M219.029,421.583c-0.066,0.002-0.131-0.016-0.188-0.05
				c-0.057-0.033-0.104-0.082-0.134-0.14c-0.031-0.059-0.045-0.124-0.041-0.19c0.004-0.065,0.026-0.129,0.064-0.184
				c0.403-0.599,0.811-1.186,1.225-1.762c0.027-0.039,0.062-0.071,0.103-0.097c0.04-0.024,0.083-0.042,0.13-0.049
				c0.046-0.008,0.094-0.006,0.14,0.004c0.045,0.011,0.089,0.03,0.128,0.058c0.038,0.027,0.07,0.063,0.095,0.102
				c0.025,0.04,0.042,0.085,0.049,0.131c0.008,0.048,0.007,0.095-0.004,0.141c-0.011,0.045-0.03,0.089-0.057,0.126
				c-0.41,0.564-0.814,1.146-1.214,1.747c-0.034,0.054-0.081,0.099-0.137,0.127c-0.056,0.029-0.118,0.043-0.182,0.04
				L219.029,421.583z M221.516,418.11c-0.079,0.001-0.155-0.024-0.217-0.073c-0.038-0.027-0.069-0.063-0.093-0.104
				c-0.023-0.041-0.04-0.086-0.046-0.132c-0.007-0.047-0.004-0.094,0.008-0.14c0.012-0.045,0.033-0.089,0.061-0.126
				c0.438-0.574,0.879-1.138,1.323-1.69c0.03-0.037,0.067-0.067,0.108-0.091c0.042-0.021,0.087-0.037,0.134-0.042
				s0.094-0.001,0.14,0.012c0.046,0.014,0.087,0.035,0.125,0.065c0.037,0.029,0.067,0.066,0.091,0.107
				c0.022,0.042,0.037,0.087,0.042,0.134c0.005,0.048,0.001,0.095-0.012,0.141c-0.014,0.046-0.035,0.089-0.064,0.125
				c-0.443,0.547-0.881,1.104-1.313,1.673c-0.034,0.05-0.08,0.091-0.134,0.117c-0.054,0.027-0.115,0.041-0.175,0.038L221.516,418.11
				z M224.197,414.784c-0.085,0-0.168-0.03-0.233-0.084c-0.072-0.063-0.117-0.15-0.125-0.245c-0.007-0.096,0.023-0.189,0.085-0.263
				c0.468-0.547,0.937-1.086,1.408-1.613c0.064-0.07,0.153-0.113,0.249-0.118c0.094-0.004,0.188,0.029,0.258,0.093
				c0.07,0.063,0.113,0.153,0.118,0.248c0.004,0.096-0.029,0.189-0.092,0.26c-0.469,0.521-0.939,1.054-1.408,1.597
				c-0.034,0.041-0.077,0.074-0.126,0.097s-0.102,0.033-0.156,0.032L224.197,414.784z M227.044,411.616
				c-0.091-0.001-0.178-0.036-0.244-0.099c-0.069-0.066-0.11-0.156-0.112-0.252c-0.003-0.096,0.032-0.188,0.097-0.259
				c0.499-0.521,1-1.033,1.505-1.531c0.032-0.033,0.072-0.06,0.116-0.079c0.044-0.017,0.09-0.026,0.137-0.026
				c0.047,0,0.094,0.01,0.137,0.026c0.044,0.02,0.083,0.046,0.117,0.079c0.067,0.067,0.104,0.159,0.104,0.255
				c0,0.095-0.037,0.187-0.104,0.255c-0.497,0.494-0.993,1-1.487,1.518c-0.034,0.037-0.075,0.065-0.12,0.084
				C227.144,411.607,227.094,411.617,227.044,411.616z M230.075,408.603c-0.049-0.001-0.096-0.011-0.141-0.03
				c-0.044-0.02-0.084-0.048-0.118-0.083c-0.033-0.034-0.058-0.074-0.075-0.118c-0.017-0.044-0.025-0.091-0.023-0.139
				c0.001-0.047,0.012-0.092,0.031-0.136c0.02-0.043,0.047-0.081,0.082-0.114c0.526-0.499,1.053-0.98,1.583-1.453
				c0.035-0.031,0.076-0.055,0.12-0.07c0.045-0.016,0.092-0.021,0.139-0.02c0.046,0.003,0.092,0.015,0.135,0.035
				c0.043,0.021,0.08,0.05,0.112,0.084c0.031,0.036,0.055,0.077,0.07,0.121s0.022,0.092,0.02,0.139
				c-0.003,0.047-0.015,0.093-0.036,0.135c-0.02,0.042-0.049,0.08-0.084,0.111c-0.521,0.468-1.045,0.946-1.566,1.439
				c-0.069,0.065-0.161,0.1-0.256,0.099H230.075z M233.264,405.752c-0.073,0.001-0.146-0.021-0.207-0.063
				c-0.06-0.041-0.106-0.101-0.132-0.17c-0.025-0.069-0.029-0.145-0.011-0.215c0.019-0.071,0.059-0.135,0.115-0.183
				c0.563-0.469,1.115-0.926,1.656-1.368c0.037-0.03,0.079-0.053,0.124-0.065c0.046-0.015,0.093-0.018,0.139-0.014
				c0.047,0.006,0.093,0.02,0.134,0.043c0.042,0.021,0.079,0.052,0.107,0.089c0.06,0.074,0.088,0.17,0.079,0.266
				c-0.01,0.095-0.057,0.182-0.132,0.241c-0.547,0.438-1.093,0.891-1.642,1.355c-0.067,0.057-0.152,0.086-0.239,0.084H233.264z
				 M236.592,403.071c-0.075,0.001-0.148-0.022-0.209-0.066c-0.061-0.044-0.108-0.104-0.132-0.176
				c-0.023-0.071-0.025-0.148-0.003-0.22c0.021-0.072,0.066-0.135,0.125-0.181c0.58-0.445,1.155-0.87,1.723-1.284
				c0.078-0.05,0.171-0.068,0.262-0.053c0.091,0.018,0.171,0.069,0.226,0.145c0.055,0.074,0.078,0.166,0.065,0.258
				c-0.011,0.092-0.058,0.175-0.13,0.233c-0.563,0.407-1.133,0.831-1.709,1.27c-0.064,0.051-0.144,0.076-0.226,0.074H236.592z
				 M240.054,400.562c-0.077,0-0.151-0.025-0.213-0.07c-0.061-0.046-0.107-0.108-0.13-0.183c-0.022-0.073-0.022-0.151,0.003-0.225
				c0.025-0.072,0.072-0.135,0.135-0.179c0.605-0.414,1.2-0.813,1.785-1.194c0.04-0.025,0.083-0.044,0.13-0.053
				c0.046-0.008,0.094-0.007,0.14,0.002c0.045,0.011,0.089,0.028,0.128,0.056c0.039,0.026,0.071,0.061,0.098,0.1
				c0.025,0.039,0.044,0.083,0.052,0.13c0.009,0.046,0.008,0.094-0.001,0.139c-0.01,0.047-0.029,0.091-0.055,0.129
				c-0.026,0.039-0.061,0.073-0.1,0.098c-0.581,0.381-1.171,0.774-1.769,1.187c-0.062,0.042-0.136,0.065-0.211,0.064H240.054z
				 M243.636,398.227c-0.078-0.001-0.153-0.027-0.214-0.074c-0.062-0.048-0.106-0.113-0.128-0.188
				c-0.021-0.075-0.017-0.154,0.01-0.228c0.027-0.072,0.078-0.135,0.143-0.176c0.631-0.388,1.245-0.757,1.842-1.106
				c0.042-0.029,0.087-0.05,0.137-0.06c0.049-0.01,0.099-0.009,0.148,0.001c0.049,0.011,0.095,0.031,0.136,0.061
				c0.041,0.029,0.075,0.066,0.1,0.109c0.025,0.043,0.041,0.091,0.047,0.142c0.005,0.049,0,0.1-0.014,0.146
				c-0.014,0.049-0.039,0.093-0.071,0.13c-0.033,0.038-0.073,0.068-0.118,0.09c-0.593,0.348-1.203,0.713-1.828,1.096
				c-0.059,0.038-0.127,0.058-0.197,0.057H243.636z M247.323,396.072c-0.08,0-0.158-0.027-0.221-0.076s-0.108-0.117-0.128-0.194
				c-0.021-0.078-0.014-0.159,0.018-0.232c0.032-0.074,0.087-0.135,0.157-0.174c0.661-0.36,1.295-0.698,1.898-1.008
				c0.085-0.043,0.184-0.052,0.274-0.022c0.091,0.028,0.167,0.093,0.21,0.178c0.043,0.084,0.05,0.183,0.021,0.273
				c-0.029,0.091-0.092,0.166-0.177,0.211c-0.599,0.306-1.226,0.64-1.88,1C247.443,396.057,247.384,396.072,247.323,396.072z
				 M251.128,394.101c-0.067,0-0.133-0.02-0.191-0.056c-0.058-0.035-0.103-0.087-0.133-0.147c-0.021-0.042-0.033-0.089-0.036-0.136
				c-0.002-0.047,0.004-0.095,0.02-0.139c0.016-0.045,0.04-0.086,0.072-0.121c0.032-0.034,0.071-0.063,0.113-0.083
				c0.718-0.347,1.375-0.647,1.955-0.904c0.085-0.031,0.18-0.028,0.264,0.009c0.083,0.036,0.15,0.104,0.186,0.187
				c0.036,0.084,0.039,0.179,0.007,0.264c-0.03,0.086-0.093,0.157-0.175,0.197c-0.563,0.257-1.222,0.563-1.935,0.893
				c-0.043,0.026-0.093,0.042-0.144,0.048L251.128,394.101z"/>
		</g>
		<g id="Vector_57">
			<path fill="#D8DEE8" d="M206.964,477.792c-0.088-0.001-0.173-0.032-0.239-0.092c-0.066-0.059-0.108-0.14-0.119-0.228
				c-0.042-0.357-0.081-0.715-0.121-1.072c-0.005-0.048,0-0.095,0.013-0.14c0.014-0.045,0.036-0.087,0.065-0.124
				c0.029-0.036,0.066-0.066,0.107-0.089s0.086-0.036,0.133-0.042c0.047-0.005,0.094-0.001,0.139,0.013
				c0.045,0.013,0.087,0.035,0.124,0.064s0.067,0.066,0.089,0.107c0.022,0.042,0.037,0.087,0.042,0.135
				c0.039,0.351,0.079,0.709,0.121,1.063c0.006,0.047,0.002,0.094-0.01,0.14c-0.013,0.046-0.034,0.089-0.063,0.126
				c-0.029,0.037-0.065,0.068-0.106,0.092c-0.041,0.022-0.086,0.037-0.133,0.043L206.964,477.792z"/>
		</g>
	</g>
	<g id="Group_6">
		<g id="Vector_58">
			<path fill="#D8DEE8" d="M255.182,397.024c-0.076,0.001-0.15-0.023-0.211-0.066c-0.062-0.044-0.108-0.106-0.132-0.178
				c-0.024-0.071-0.024-0.149-0.002-0.221c0.023-0.072,0.067-0.136,0.128-0.181c0.563-0.431,0.885-0.643,0.885-0.643
				c0.039-0.025,0.082-0.044,0.129-0.054c0.046-0.009,0.093-0.009,0.139-0.001c0.047,0.01,0.09,0.027,0.13,0.055
				c0.039,0.024,0.073,0.059,0.099,0.098c0.025,0.039,0.044,0.083,0.054,0.129c0.009,0.046,0.009,0.094,0,0.14
				s-0.027,0.09-0.053,0.13c-0.026,0.038-0.059,0.072-0.099,0.099c0,0-0.309,0.208-0.845,0.62
				C255.34,397,255.262,397.026,255.182,397.024z"/>
		</g>
		<g id="Vector_59">
			<path fill="#D8DEE8" d="M233.095,477.735c-0.077,0-0.152-0.026-0.214-0.071c-0.061-0.047-0.107-0.11-0.129-0.185
				c-0.205-0.686-0.402-1.369-0.588-2.045c-0.025-0.092-0.013-0.189,0.033-0.272c0.047-0.082,0.125-0.143,0.216-0.169
				c0.091-0.024,0.189-0.013,0.271,0.033c0.083,0.047,0.144,0.124,0.169,0.216c0.188,0.675,0.383,1.352,0.586,2.031
				c0.014,0.045,0.019,0.093,0.015,0.139c-0.005,0.048-0.019,0.094-0.042,0.135c-0.021,0.042-0.052,0.079-0.089,0.108
				c-0.036,0.03-0.079,0.052-0.124,0.066C233.165,477.729,233.13,477.734,233.095,477.735z M231.969,473.646
				c-0.082,0-0.161-0.028-0.225-0.08c-0.063-0.051-0.108-0.122-0.125-0.201c-0.176-0.693-0.344-1.382-0.504-2.067
				c-0.022-0.093-0.005-0.19,0.045-0.271c0.05-0.081,0.13-0.139,0.223-0.16c0.093-0.021,0.19-0.006,0.271,0.044
				c0.081,0.051,0.138,0.13,0.16,0.224c0.157,0.679,0.327,1.365,0.501,2.053c0.012,0.046,0.015,0.094,0.009,0.141
				c-0.007,0.046-0.022,0.093-0.046,0.133s-0.057,0.075-0.095,0.104s-0.081,0.049-0.127,0.06c-0.029,0.013-0.06,0.021-0.093,0.022
				H231.969z M230.988,469.515c-0.083,0-0.162-0.028-0.226-0.08c-0.063-0.051-0.108-0.122-0.126-0.202
				c-0.147-0.702-0.282-1.408-0.414-2.09c-0.009-0.046-0.008-0.095,0.001-0.14c0.01-0.046,0.029-0.09,0.055-0.129
				c0.026-0.039,0.061-0.072,0.101-0.098c0.039-0.025,0.083-0.043,0.129-0.053c0.045-0.008,0.093-0.008,0.139,0.002
				s0.09,0.028,0.129,0.055c0.039,0.027,0.072,0.061,0.098,0.1c0.026,0.04,0.043,0.084,0.052,0.13
				c0.129,0.688,0.265,1.378,0.411,2.073c0.01,0.047,0.012,0.095,0.002,0.142c-0.008,0.047-0.026,0.091-0.052,0.131
				c-0.027,0.04-0.061,0.073-0.1,0.1c-0.04,0.026-0.085,0.044-0.131,0.054L230.988,469.515z M230.208,465.344
				c-0.085-0.001-0.167-0.031-0.232-0.087c-0.065-0.055-0.108-0.132-0.123-0.216c-0.115-0.706-0.219-1.408-0.318-2.106
				c-0.006-0.092,0.023-0.181,0.08-0.253c0.057-0.07,0.14-0.116,0.23-0.129c0.091-0.013,0.183,0.01,0.258,0.062
				c0.074,0.054,0.126,0.132,0.145,0.222c0.095,0.693,0.201,1.39,0.315,2.09c0.016,0.092-0.005,0.187-0.057,0.263
				c-0.053,0.077-0.134,0.131-0.225,0.148c-0.021,0.006-0.042,0.007-0.062,0.007H230.208z M229.625,461.141
				c-0.088,0-0.173-0.032-0.239-0.091c-0.066-0.06-0.108-0.14-0.119-0.228c-0.081-0.713-0.152-1.42-0.214-2.12
				c-0.005-0.047,0-0.095,0.014-0.14c0.014-0.046,0.037-0.087,0.067-0.123s0.067-0.066,0.108-0.088
				c0.042-0.021,0.088-0.035,0.135-0.039c0.095-0.006,0.188,0.024,0.261,0.086c0.073,0.061,0.12,0.146,0.13,0.241
				c0.062,0.693,0.132,1.393,0.211,2.101c0.005,0.048,0.002,0.095-0.011,0.141c-0.012,0.045-0.034,0.088-0.064,0.124
				c-0.029,0.038-0.066,0.069-0.106,0.091c-0.042,0.022-0.087,0.037-0.135,0.043L229.625,461.141z M229.248,456.916
				c-0.091,0-0.179-0.035-0.246-0.097c-0.066-0.063-0.106-0.148-0.112-0.238c-0.046-0.716-0.082-1.426-0.107-2.129
				c0.004-0.091,0.042-0.177,0.106-0.24c0.064-0.063,0.151-0.101,0.241-0.104c0.091-0.003,0.179,0.028,0.249,0.087
				c0.068,0.06,0.112,0.142,0.123,0.232c0.024,0.694,0.06,1.396,0.107,2.108c0.005,0.096-0.027,0.189-0.091,0.261
				c-0.063,0.07-0.152,0.114-0.247,0.12H229.248z M229.093,452.691c-0.095,0-0.186-0.037-0.253-0.104s-0.106-0.156-0.107-0.251
				c0-0.266,0-0.527,0-0.789c0-0.45,0-0.898,0-1.344c0.007-0.09,0.049-0.173,0.115-0.233c0.067-0.062,0.153-0.095,0.244-0.095
				c0.09,0,0.177,0.033,0.243,0.095c0.067,0.061,0.108,0.144,0.116,0.233c0,0.442,0,0.885,0,1.332c0,0.259,0,0.519,0,0.781
				c0.001,0.047-0.008,0.094-0.024,0.138c-0.018,0.044-0.044,0.083-0.077,0.118c-0.033,0.033-0.072,0.06-0.115,0.078
				c-0.044,0.02-0.09,0.028-0.138,0.029L229.093,452.691z M229.166,448.449h-0.016c-0.095-0.004-0.184-0.047-0.248-0.117
				s-0.098-0.162-0.094-0.257c0.03-0.719,0.072-1.429,0.127-2.13c0.002-0.047,0.015-0.092,0.036-0.135
				c0.021-0.042,0.051-0.08,0.086-0.11c0.036-0.031,0.077-0.055,0.122-0.068c0.045-0.015,0.092-0.021,0.14-0.016
				c0.047,0.003,0.092,0.016,0.135,0.036c0.042,0.021,0.08,0.051,0.11,0.087c0.031,0.035,0.055,0.076,0.07,0.122
				c0.015,0.044,0.02,0.091,0.017,0.139c-0.051,0.696-0.093,1.397-0.126,2.105c-0.009,0.088-0.048,0.169-0.112,0.229
				c-0.063,0.06-0.147,0.095-0.235,0.098L229.166,448.449z M229.479,444.225h-0.037c-0.095-0.01-0.182-0.058-0.242-0.131
				c-0.06-0.073-0.088-0.168-0.079-0.264c0.076-0.712,0.158-1.408,0.251-2.114c0.002-0.05,0.015-0.1,0.038-0.144
				c0.021-0.044,0.053-0.085,0.091-0.115c0.039-0.032,0.082-0.057,0.13-0.07c0.047-0.014,0.098-0.018,0.147-0.011
				c0.05,0.006,0.097,0.022,0.14,0.048c0.043,0.026,0.079,0.061,0.108,0.101c0.029,0.041,0.048,0.087,0.058,0.136
				c0.01,0.049,0.01,0.1,0,0.148c-0.093,0.69-0.175,1.391-0.248,2.096c-0.015,0.082-0.057,0.156-0.12,0.211
				c-0.063,0.054-0.143,0.085-0.227,0.087L229.479,444.225z M230.042,440.02h-0.059c-0.046-0.007-0.091-0.023-0.131-0.048
				c-0.041-0.025-0.075-0.058-0.102-0.096c-0.028-0.039-0.047-0.082-0.059-0.127c-0.011-0.047-0.013-0.094-0.004-0.141
				c0.115-0.707,0.24-1.408,0.375-2.099c0.009-0.045,0.027-0.089,0.053-0.129c0.026-0.039,0.06-0.073,0.098-0.1
				c0.039-0.025,0.083-0.045,0.129-0.054c0.046-0.01,0.094-0.011,0.14-0.001c0.046,0.009,0.091,0.025,0.129,0.053
				c0.04,0.025,0.074,0.059,0.1,0.098s0.045,0.083,0.055,0.128c0.009,0.048,0.01,0.095,0,0.142
				c-0.133,0.683-0.257,1.375-0.372,2.078c-0.019,0.076-0.063,0.146-0.125,0.195c-0.063,0.05-0.14,0.076-0.219,0.077L230.042,440.02
				z M230.85,435.857c-0.027,0.002-0.054,0.002-0.081,0c-0.047-0.01-0.092-0.029-0.131-0.056c-0.04-0.027-0.073-0.062-0.099-0.102
				c-0.026-0.04-0.044-0.085-0.054-0.132c-0.008-0.047-0.008-0.095,0.002-0.142c0.157-0.702,0.326-1.392,0.501-2.073
				c0.029-0.086,0.091-0.157,0.17-0.199c0.08-0.043,0.173-0.054,0.261-0.031s0.163,0.077,0.212,0.153
				c0.049,0.076,0.067,0.169,0.052,0.257c-0.174,0.675-0.339,1.357-0.495,2.052c-0.023,0.069-0.067,0.132-0.126,0.176
				c-0.059,0.045-0.13,0.07-0.204,0.074L230.85,435.857z M231.909,431.748c-0.033,0.004-0.067,0.004-0.101,0
				c-0.046-0.014-0.087-0.035-0.125-0.064c-0.036-0.03-0.067-0.066-0.09-0.107c-0.022-0.042-0.037-0.087-0.041-0.134
				s-0.001-0.094,0.013-0.14c0.199-0.688,0.408-1.368,0.626-2.039c0.03-0.091,0.095-0.165,0.179-0.207
				c0.085-0.043,0.184-0.051,0.274-0.021c0.045,0.016,0.087,0.037,0.123,0.067s0.065,0.067,0.087,0.11
				c0.021,0.042,0.034,0.088,0.038,0.135s-0.002,0.095-0.017,0.139c-0.214,0.662-0.421,1.333-0.623,2.018
				c-0.026,0.065-0.073,0.122-0.133,0.163c-0.06,0.039-0.13,0.059-0.202,0.058L231.909,431.748z M233.241,427.701
				c-0.041-0.001-0.082-0.009-0.121-0.023c-0.089-0.033-0.161-0.099-0.201-0.186c-0.042-0.085-0.047-0.183-0.016-0.273
				c0.247-0.675,0.497-1.34,0.752-1.994c0.039-0.082,0.108-0.148,0.192-0.183c0.085-0.033,0.181-0.035,0.266-0.001
				c0.085,0.033,0.155,0.099,0.195,0.181c0.039,0.084,0.046,0.179,0.017,0.266c-0.257,0.647-0.506,1.305-0.746,1.972
				c-0.024,0.07-0.07,0.131-0.13,0.175C233.389,427.678,233.315,427.701,233.241,427.701z M234.798,423.758
				c-0.048-0.001-0.096-0.012-0.14-0.031c-0.043-0.019-0.083-0.045-0.116-0.079c-0.033-0.033-0.059-0.073-0.077-0.117
				c-0.017-0.044-0.026-0.09-0.025-0.137c0-0.048,0.01-0.094,0.029-0.137c0.282-0.662,0.577-1.31,0.873-1.947
				c0.017-0.046,0.044-0.09,0.079-0.125c0.035-0.037,0.076-0.065,0.122-0.084c0.047-0.02,0.096-0.028,0.146-0.027
				c0.05,0.001,0.099,0.013,0.145,0.034c0.045,0.021,0.085,0.051,0.119,0.089c0.033,0.038,0.057,0.082,0.073,0.13
				c0.015,0.048,0.02,0.099,0.014,0.147c-0.005,0.05-0.021,0.098-0.046,0.14c-0.282,0.629-0.583,1.271-0.865,1.925
				c-0.028,0.067-0.075,0.125-0.138,0.164c-0.061,0.039-0.133,0.059-0.206,0.056H234.798z M236.599,419.913
				c-0.057,0-0.112-0.014-0.164-0.039c-0.042-0.021-0.079-0.051-0.11-0.086c-0.03-0.036-0.055-0.077-0.069-0.122
				c-0.015-0.045-0.021-0.093-0.017-0.139c0.004-0.048,0.017-0.094,0.039-0.135c0.323-0.643,0.656-1.273,0.991-1.89
				c0.021-0.046,0.05-0.087,0.086-0.121c0.038-0.034,0.081-0.06,0.127-0.076c0.047-0.016,0.098-0.021,0.147-0.018
				c0.049,0.005,0.098,0.019,0.142,0.043c0.044,0.023,0.082,0.057,0.113,0.096c0.03,0.039,0.052,0.086,0.064,0.134
				c0.012,0.048,0.014,0.098,0.005,0.148c-0.008,0.048-0.027,0.096-0.054,0.138c-0.333,0.611-0.66,1.235-0.983,1.87
				c-0.032,0.059-0.081,0.107-0.139,0.14c-0.059,0.033-0.126,0.05-0.192,0.046L236.599,419.913z M238.627,416.188
				c-0.064-0.001-0.126-0.018-0.181-0.051c-0.041-0.024-0.076-0.056-0.105-0.093c-0.028-0.037-0.05-0.08-0.062-0.126
				c-0.012-0.045-0.015-0.093-0.008-0.14c0.006-0.047,0.021-0.091,0.045-0.132c0.366-0.622,0.732-1.231,1.107-1.825
				c0.054-0.073,0.134-0.122,0.223-0.14c0.089-0.016,0.182,0.001,0.258,0.05c0.077,0.048,0.133,0.123,0.156,0.211
				c0.024,0.088,0.013,0.182-0.029,0.262c-0.376,0.586-0.741,1.188-1.096,1.806c-0.034,0.055-0.082,0.098-0.139,0.127
				c-0.057,0.03-0.121,0.043-0.185,0.039L238.627,416.188z M240.88,412.59c-0.071,0-0.141-0.021-0.2-0.062
				c-0.079-0.053-0.133-0.135-0.152-0.229c-0.019-0.093,0.001-0.189,0.053-0.269c0.403-0.6,0.808-1.185,1.214-1.755
				c0.055-0.077,0.139-0.129,0.232-0.146c0.094-0.015,0.19,0.007,0.267,0.063c0.078,0.055,0.129,0.139,0.146,0.232
				c0.015,0.094-0.007,0.19-0.063,0.268c-0.4,0.563-0.8,1.126-1.2,1.737c-0.035,0.05-0.083,0.089-0.137,0.115
				c-0.056,0.026-0.116,0.038-0.175,0.034L240.88,412.59z M243.344,409.134c-0.078,0-0.154-0.024-0.216-0.072
				c-0.076-0.059-0.125-0.144-0.138-0.238c-0.013-0.095,0.013-0.189,0.07-0.267c0.44-0.579,0.879-1.126,1.315-1.689
				c0.06-0.074,0.147-0.123,0.242-0.133c0.095-0.011,0.191,0.017,0.265,0.076c0.075,0.061,0.123,0.147,0.133,0.242
				c0.01,0.096-0.017,0.191-0.077,0.266c-0.431,0.535-0.868,1.09-1.302,1.664c-0.037,0.045-0.084,0.079-0.138,0.102
				c-0.054,0.023-0.111,0.033-0.169,0.028L243.344,409.134z M246.014,405.831c-0.07,0.002-0.138-0.016-0.198-0.053
				c-0.059-0.036-0.106-0.088-0.136-0.151c-0.03-0.063-0.041-0.132-0.031-0.201s0.038-0.134,0.083-0.187
				c0.479-0.563,0.952-1.09,1.408-1.597c0.066-0.064,0.153-0.101,0.246-0.103c0.091-0.002,0.181,0.032,0.249,0.094
				c0.068,0.063,0.109,0.147,0.116,0.238c0.008,0.092-0.021,0.183-0.079,0.255c-0.458,0.501-0.928,1.027-1.408,1.58
				c-0.034,0.036-0.075,0.065-0.12,0.085c-0.046,0.02-0.095,0.028-0.145,0.027L246.014,405.831z M248.878,402.696
				c-0.07-0.001-0.139-0.022-0.197-0.061c-0.059-0.039-0.104-0.094-0.132-0.159c-0.028-0.064-0.036-0.136-0.023-0.204
				c0.012-0.069,0.045-0.134,0.093-0.185c0.521-0.537,1.028-1.04,1.513-1.506c0.068-0.067,0.16-0.103,0.255-0.102
				c0.096,0.002,0.186,0.041,0.252,0.109c0.066,0.068,0.102,0.16,0.101,0.256c-0.001,0.094-0.041,0.186-0.109,0.251
				c-0.479,0.464-0.98,0.96-1.496,1.493c-0.036,0.033-0.078,0.059-0.125,0.075c-0.047,0.017-0.097,0.023-0.146,0.02L248.878,402.696
				z M251.934,399.75c-0.073,0.001-0.144-0.021-0.204-0.063c-0.06-0.04-0.106-0.099-0.132-0.167
				c-0.026-0.067-0.031-0.143-0.013-0.213c0.017-0.07,0.055-0.135,0.11-0.183c0.588-0.532,1.126-0.996,1.613-1.408
				c0.036-0.03,0.078-0.054,0.122-0.067c0.045-0.014,0.093-0.02,0.139-0.015c0.047,0.004,0.092,0.018,0.134,0.04
				c0.042,0.021,0.079,0.051,0.108,0.087c0.062,0.073,0.091,0.168,0.082,0.263s-0.054,0.183-0.127,0.244
				c-0.479,0.397-1.01,0.859-1.594,1.383c-0.069,0.062-0.161,0.094-0.253,0.088L251.934,399.75z"/>
		</g>
		<g id="Vector_60">
			<path fill="#D8DEE8" d="M234.059,480.797c-0.076,0-0.149-0.024-0.211-0.068c-0.062-0.046-0.106-0.107-0.13-0.18
				c-0.112-0.343-0.223-0.685-0.332-1.028c-0.016-0.045-0.022-0.092-0.019-0.14c0.004-0.047,0.017-0.094,0.038-0.137
				c0.021-0.041,0.051-0.08,0.087-0.111c0.036-0.03,0.078-0.054,0.124-0.067c0.045-0.015,0.093-0.02,0.141-0.016
				s0.093,0.018,0.135,0.04s0.079,0.054,0.109,0.09s0.053,0.078,0.066,0.125c0.11,0.338,0.22,0.679,0.333,1.019
				c0.015,0.045,0.021,0.092,0.018,0.14c-0.004,0.047-0.017,0.093-0.037,0.135c-0.022,0.042-0.051,0.08-0.087,0.11
				c-0.036,0.031-0.077,0.055-0.122,0.068C234.135,480.79,234.097,480.796,234.059,480.797z"/>
		</g>
	</g>
</g>
</svg>
