<?xml version="1.0" encoding="utf-8"?>
<!-- Generator: Adobe Illustrator 16.0.0, SVG Export Plug-In . SVG Version: 6.00 Build 0)  -->
<!DOCTYPE svg PUBLIC "-//W3C//DTD SVG 1.1//EN" "http://www.w3.org/Graphics/SVG/1.1/DTD/svg11.dtd">
<svg version="1.1" id="Layer_1" xmlns="http://www.w3.org/2000/svg" xmlns:xlink="http://www.w3.org/1999/xlink" x="0px" y="0px"
	 width="253px" height="262px" viewBox="0 0 253 262" enable-background="new 0 0 253 262" xml:space="preserve">
<g id="learn">
	<g id="learntoinvest">
		<path id="Vector" fill="#F9EFE4" d="M172.521,40.719c-43.475-3.533-37.928-9.643-53.76-14.031
			c-15.832-4.388-88.775,3.91-69.796,101.289c4.662,23.914,12.723,47.383,32.577,62.063c10.79,7.981,25.646,10.353,38.647,7.568
			c11.937-2.555,24.303-4.484,36.461-5.494c4.895-0.407,10.026-0.119,14.74-1.731c11.615-3.974,20.946-14.372,25.294-25.84
			c4.264-11.243,6.012-23.703,7.649-35.583C204.328,128.956,215.997,44.251,172.521,40.719z"/>
		<g id="leaves">
			
				<linearGradient id="Vector142_1_" gradientUnits="userSpaceOnUse" x1="79.8872" y1="186.2041" x2="-191.7392" y2="192.4859" gradientTransform="matrix(1 0 0 -1 116 341)">
				<stop  offset="0" style="stop-color:#799B91"/>
				<stop  offset="1" style="stop-color:#3E6764"/>
			</linearGradient>
			<path id="Vector142" fill="url(#Vector142_1_)" d="M59.414,171.174c-0.917-1.316-1.822-5.038-1.682-6.111
				c0.934-7.146,1.864-20.644,7.31-25.6c0.93-0.848,5.535,2.501,6.874,2.261c3.422,1.375,4.53,2.079,8.387,1.686
				c11.39-1.157,12.25-26.014,29.609-15.905c12.714,7.405,17.385,19.875,31.82,2.887c14.435-16.989,54.431-32.818,59.367-4.384
				c2.834,16.319-19.481,19.672-24.538,34.743c-4.805,14.324-16.161,17.941-31.122,13.19c-14.961-4.753-14.18,5.172-20.199,17.179
				c-7.231,14.422-24.685-0.895-32.176-8.697C87.031,176.14,67.687,164.472,59.414,171.174z"/>
			<g id="veins">
				<g id="Vector141">
					<path fill="#FCFDFE" d="M61.076,152.863l0.112-0.326c47.341,18.435,99.832,4.982,140.41-35.982l0.226,0.252
						c-19.231,19.415-42.022,33.145-65.91,39.708C110.806,163.414,84.927,162.15,61.076,152.863z"/>
				</g>
				<path id="Vector140" fill="#FCFDFE" d="M122.88,197.478c-5.991-13.213-21.107-30.096-33.696-37.632l0.16-0.303
					c12.638,7.565,27.813,24.517,33.83,37.784L122.88,197.478z"/>
				<path id="Vector139" fill="#FCFDFE" d="M70.409,156.369l0.022-0.348c7.49,0.559,14.957-2.933,22.194-10.378
					c5.305-5.459,10.369-12.878,15.046-22.049l0.288,0.166c-4.692,9.203-9.775,16.648-15.106,22.132
					C85.547,153.411,77.995,156.935,70.409,156.369z"/>
				<g id="Vector138">
					<path fill="#FCFDFE" d="M139.272,155.442l0.006-0.348c14.169,0.281,26.268,9.536,33.923,17.253l-0.226,0.252
						C165.363,164.931,153.336,155.722,139.272,155.442z"/>
				</g>
				<g id="Vector137">
					<path fill="#FCFDFE" d="M169.284,142.342l-0.208-0.269c12.269-10.867,16.021-28.246,17.166-37.638l0.324,0.045
						C185.416,113.924,181.642,131.397,169.284,142.342z"/>
				</g>
			</g>
			<g id="bigleaf">
				
					<linearGradient id="Vector136_1_" gradientUnits="userSpaceOnUse" x1="65.9976" y1="273.0137" x2="-54.3039" y2="108.7988" gradientTransform="matrix(1 0 0 -1 116 341)">
					<stop  offset="0" style="stop-color:#46736E"/>
					<stop  offset="1" style="stop-color:#2F4F4F"/>
				</linearGradient>
				<path id="Vector136" fill="url(#Vector136_1_)" d="M70.212,240.974c-7.7-5.174-15.306-10.544-22.818-16.109
					c-0.187,0.064,5.05-20.262,17.714-26.241c24.881-11.424,20.789-34.14,21.85-45.957c0.923-16.919,10.161-31.355,24.128-25.043
					c15.628,6.679,29.711-19.107,37.188-45.072c2.852-13.04,19.589-22.599,31.616-20.915c12.399,1.429,20.089,14.101,13.427,39.632
					c-6.529,30.119-32.531,37.876-45.373,48.465c-12.622,10.386-1.096,29.042-19.119,35.019
					c-15.398,5.601-32.382,6.838-32.973,22.719C95.461,223.262,89.676,233.594,70.212,240.974z"/>
				<g id="Vector135">
					<path fill="#FFFFFF" d="M58.313,236.71c0.068-0.171,24.638-36.549,54.477-69.176c4.503-5.431,9.195-10.84,13.729-16.075
						c25.262-29.138,49.123-56.661,52.969-97.966l0.54,0.058c-3.867,41.498-27.785,69.089-53.109,98.302
						c-4.534,5.229-9.223,10.637-13.731,16.073c-30,32.803-54.257,68.794-54.384,69.03L58.313,236.71z"/>
				</g>
				<g id="Vector134">
					<path fill="#FFFFFF" d="M149.75,124.374l-0.222-0.526c13.702-6.524,31.207-16.725,40.61-22.206
						c7.613-4.436,7.632-4.424,7.866-4.262l-0.146,0.243l0.02,0.288c-0.35,0.086-3.496,1.92-7.479,4.242
						C180.991,107.633,163.473,117.84,149.75,124.374z"/>
				</g>
				<g id="Vector133">
					<path fill="#FFFFFF" d="M158.605,110.681c3.267-13.271,1.883-23.682,0.146-30.076c-1.889-6.966-4.696-11.083-5.125-11.386
						l0.118-0.186l-0.06-0.357c0.16-0.031,0.286,0.075,0.462,0.277c2.518,2.909,10.729,18.54,4.984,41.877L158.605,110.681z"/>
				</g>
				<path id="Vector132" fill="#FFFFFF" d="M94.557,189.515l-0.467-0.295c13.087-23.46,6.905-54.022,3.641-66.075
					c-0.18-0.646-0.232-0.861-0.242-0.957l0.54-0.063l-0.27,0.032l0.27-0.034c0.01,0.072,0.109,0.438,0.224,0.861
					c2.355,8.691,3.785,17.335,4.25,25.689C103.393,164.724,100.721,178.464,94.557,189.515z"/>
				<path id="Vector131" fill="#FFFFFF" d="M103.319,179.105l-0.306-0.479c16.922-12.302,38.198-3.731,38.518-3.534l0.081,0.334
					l-0.276,0.18l0.024-0.287l-0.126,0.251C141.043,175.479,120.073,166.929,103.319,179.105z M141.39,175.036l-0.026,0.286
					L141.39,175.036z"/>
				<path id="Vector130" fill="#FFFFFF" d="M62.416,230.808c2.268-4.942,4.146-14.31,0.226-30.86
					c-0.223-0.939-0.223-0.939-0.147-1.067l0.458,0.308l-0.229-0.154h0.27c0.007,0.069,0.084,0.397,0.175,0.777
					c3.961,16.719,2.043,26.225-0.263,31.255L62.416,230.808z"/>
				<path id="Vector129" fill="#FFFFFF" d="M68.938,222.573l-0.416-0.371c6.177-7.814,20.665-8.826,28.751-8.734
					c0.257,0,0.422,0.005,0.483,0l0.03,0.574c-0.064,0-0.242,0-0.519,0C89.274,213.954,74.971,214.941,68.938,222.573z"/>
			</g>
		</g>
		
			<linearGradient id="Vector128_1_" gradientUnits="userSpaceOnUse" x1="-1.4834" y1="148.0352" x2="-13.1247" y2="143.4398" gradientTransform="matrix(1 0 0 -1 116 341)">
			<stop  offset="0" style="stop-color:#3B3138"/>
			<stop  offset="1" style="stop-color:#241F21"/>
		</linearGradient>
		<path id="Vector128" fill="url(#Vector128_1_)" d="M208.774,186.842l-162.817-1.505v4.466c0,1.211,0.71,2.242,1.671,2.426
			l46.038,8.791c0.545,0.104,1.101,0.132,1.652,0.082l111.684-10.023c0.998-0.089,1.77-1.123,1.77-2.368L208.774,186.842z"/>
		
			<linearGradient id="Vector127_1_" gradientUnits="userSpaceOnUse" x1="27468.1055" y1="14983.0977" x2="12978.1133" y2="7189.8857" gradientTransform="matrix(1 0 0 -1 116 341)">
			<stop  offset="0" style="stop-color:#3B3138"/>
			<stop  offset="1" style="stop-color:#241F21"/>
		</linearGradient>
		<path id="Vector127" fill="url(#Vector127_1_)" d="M156.362,179.608L47.75,187.775c-1.944,0.147-3.524-1.405-3.524-3.467v-82.621
			c0.003-0.992,0.376-1.942,1.037-2.642s1.555-1.092,2.487-1.09h108.613c1.602,0,2.895,1.511,2.895,3.375v74.688
			C159.257,177.88,157.964,179.489,156.362,179.608z"/>
		
			<linearGradient id="Vector126_1_" gradientUnits="userSpaceOnUse" x1="-70.0425" y1="198.1289" x2="44.9893" y2="198.1289" gradientTransform="matrix(1 0 0 -1 116 341)">
			<stop  offset="0" style="stop-color:#5D535A"/>
			<stop  offset="1" style="stop-color:#464143"/>
		</linearGradient>
		<path id="Vector126" fill="url(#Vector126_1_)" d="M158.095,179.608l-108.613,8.167c-1.944,0.147-3.524-1.405-3.524-3.467v-82.621
			c0.003-0.992,0.375-1.942,1.037-2.642c0.661-0.7,1.555-1.092,2.487-1.09h108.613c1.6,0,2.895,1.511,2.895,3.375v74.688
			C160.989,177.88,159.694,179.489,158.095,179.608z"/>
		
			<linearGradient id="Vector125_1_" gradientUnits="userSpaceOnUse" x1="-44.7754" y1="269.4951" x2="29.4052" y2="109.3031" gradientTransform="matrix(1 0 0 -1 116 341)">
			<stop  offset="0" style="stop-color:#F3E9E1"/>
			<stop  offset="1" style="stop-color:#E1D1C5"/>
		</linearGradient>
		<path id="Vector125" fill="url(#Vector125_1_)" d="M154.71,174.345l-101.158,7.093c-0.368,0.032-0.738-0.017-1.086-0.146
			c-0.349-0.129-0.669-0.335-0.938-0.603c-0.27-0.269-0.484-0.593-0.629-0.954c-0.145-0.362-0.218-0.751-0.213-1.144v-72.334
			c0-0.81,0.302-1.587,0.84-2.161c0.537-0.574,1.267-0.897,2.028-0.9l101.158-0.446c1.321-0.006,2.389,1.233,2.389,2.766v65.883
			C157.099,172.933,156.031,174.251,154.71,174.345z"/>
		<path id="Vector124" fill="#FFFFFF" d="M107.623,100.213c0,0.765-0.559,1.391-1.249,1.394s-1.252-0.62-1.252-1.389
			c0-0.77,0.561-1.394,1.252-1.394C107.064,98.824,107.623,99.445,107.623,100.213z"/>
		
			<linearGradient id="Vector123_1_" gradientUnits="userSpaceOnUse" x1="57611.1797" y1="152.8662" x2="352439.0313" y2="152.8662" gradientTransform="matrix(1 0 0 -1 116 341)">
			<stop  offset="0" style="stop-color:#5D535A"/>
			<stop  offset="1" style="stop-color:#464143"/>
		</linearGradient>
		<path id="Vector123" fill="url(#Vector123_1_)" d="M155.384,179.239l-109.43,8.596l47.712,9.112
			c0.545,0.103,1.101,0.132,1.652,0.083l113.458-10.188l-51.652-7.549C156.548,179.21,155.964,179.192,155.384,179.239
			L155.384,179.239z"/>
		
			<linearGradient id="Vector122_1_" gradientUnits="userSpaceOnUse" x1="63391.2656" y1="154.2852" x2="221663.7031" y2="154.2852" gradientTransform="matrix(1 0 0 -1 116 341)">
			<stop  offset="0" style="stop-color:#5D535A"/>
			<stop  offset="1" style="stop-color:#464143"/>
		</linearGradient>
		<path id="Vector122" opacity="0.3" fill="url(#Vector122_1_)" enable-background="new    " d="M61.925,188.053l91.101-7.265
			l28.195,4.089l-90.316,7.764L61.925,188.053z"/>
		<g id="Vector121" opacity="0.7">
			<path fill="#ECECEC" d="M131.925,156.949c-8.373-4.794-14.957,1.279-21.31-4.713c-3.853-3.636-1.96-6.344-6.701-11.769
				c-5.249-6.014-8.667-3.993-13.943-9.406c-6.671-6.843-3.334-12.167-9.082-17.082c-6.972-5.961-14.489-0.443-21.125-6.16
				c-2.863-2.466-4.433-6.051-5.253-9.863H48.02c-0.271,0-0.539,0.056-0.789,0.167c-0.25,0.11-0.478,0.271-0.669,0.475
				c-0.191,0.203-0.343,0.445-0.447,0.711c-0.104,0.266-0.157,0.551-0.158,0.839v85.641c-0.003,0.281,0.049,0.562,0.153,0.821
				c0.104,0.259,0.258,0.492,0.453,0.684c0.195,0.192,0.425,0.339,0.676,0.431c0.25,0.092,0.517,0.125,0.781,0.101l110.694-8.36
				c0.27-0.027,0.529-0.12,0.761-0.271c0.231-0.149,0.427-0.354,0.572-0.599c-8.103-0.313-13.08-3.204-16.264-6.191
				C137.561,166.559,138.64,160.793,131.925,156.949z"/>
		</g>
		<g id="upwards">
			<path id="Vector120" opacity="0.8" fill="#FFFFFF" enable-background="new    " d="M168.234,113.552l-0.947-0.852
				c-0.211-0.19-0.481-0.29-0.758-0.281c-0.276,0.008-0.541,0.125-0.742,0.328l-44.468,44.975l-23.773-21.408
				c-0.22-0.197-0.502-0.298-0.79-0.28c-0.288,0.019-0.558,0.153-0.755,0.376l-46.685,52.929c-0.196,0.233-0.3,0.538-0.288,0.851
				c0.013,0.313,0.139,0.607,0.354,0.822c0.214,0.214,0.499,0.33,0.793,0.323s0.574-0.136,0.779-0.358l45.956-52.103l23.73,21.364
				c0.212,0.19,0.481,0.29,0.759,0.283c0.276-0.01,0.541-0.126,0.741-0.33l44.47-44.968l1.805,1.626L168.234,113.552z"/>
			<path id="Vector119" fill="#FFFFFF" d="M96.594,145.253c3.061-0.188,5.406-2.848,5.239-5.939
				c-0.167-3.094-2.784-5.449-5.844-5.262c-3.061,0.188-5.406,2.846-5.239,5.939C90.917,143.084,93.534,145.44,96.594,145.253z"/>
			<path id="Vector118" fill="#FFFFFF" d="M121.53,164.22c3.061-0.188,5.406-2.847,5.238-5.939
				c-0.167-3.094-2.783-5.448-5.843-5.261c-3.06,0.187-5.406,2.846-5.239,5.938S118.47,164.407,121.53,164.22z"/>
			<path id="Vector117" fill="#FFFFFF" d="M166.829,119.217c3.06-0.187,5.405-2.846,5.238-5.939
				c-0.166-3.094-2.783-5.449-5.845-5.262c-3.059,0.188-5.405,2.846-5.238,5.939C161.151,117.049,163.768,119.405,166.829,119.217z"
				/>
		</g>
		
			<linearGradient id="Vector116_1_" gradientUnits="userSpaceOnUse" x1="-82010.0781" y1="-79731.6406" x2="-98779.0469" y2="-96101.1484" gradientTransform="matrix(1 0 0 -1 116 341)">
			<stop  offset="0" style="stop-color:#3B3138"/>
			<stop  offset="1" style="stop-color:#241F21"/>
		</linearGradient>
		<path id="Vector116" fill="url(#Vector116_1_)" d="M88.704,64.468c0.919-0.635,0.082-2.483,0.031-6.451
			c-0.061-4.863,1.153-5.77,0.18-7.677c-1.192-2.334-4.194-3.299-6.182-3.349c-0.438-0.01-0.54-0.265-4.215,0.747
			c-6.619,1.824-8.272-0.131-11.24,1.818c-2.864,1.888-1.609,3.954-4.39,6.167c-4.508,3.587-9.248-0.287-12.469,2.71
			c-3.047,2.838-3.118,10.069,0.09,14.016c3.63,4.484,10.182,3.14,14.577,2.257c0.924-0.191,5.591-1.229,10.45-5.045
			c2.167-1.705,4.089-3.735,5.708-6.028c0.275-0.33,0.705-0.73,1.273-0.794c0.682-0.078,1.229,0.366,1.493,0.561
			C85.391,64.417,87.799,65.094,88.704,64.468z"/>
		
			<linearGradient id="Vector115_1_" gradientUnits="userSpaceOnUse" x1="-7.5908" y1="284.6904" x2="-41.6819" y2="237.1281" gradientTransform="matrix(1 0 0 -1 116 341)">
			<stop  offset="0" style="stop-color:#F6AF9A"/>
			<stop  offset="1" style="stop-color:#F89F8A"/>
		</linearGradient>
		<path id="Vector115" fill="url(#Vector115_1_)" d="M85.006,61.805c1.184-1.147,5.408,1.064,8.207,4
			c3.289,3.445,3.037,6.245,5.906,10.525c1.427,2.13,3.874,4.997,8.208,7.509l-0.92,2.449c-2.095,0.134-6.21,0.055-10.048-2.611
			c-2.666-1.854-4.038-4.306-6.673-9.143C87.04,69.686,83.526,63.24,85.006,61.805z"/>
		
			<linearGradient id="Vector114_1_" gradientUnits="userSpaceOnUse" x1="-10487.499" y1="6860.7676" x2="-10834.2158" y2="7080.687" gradientTransform="matrix(1 0 0 -1 116 341)">
			<stop  offset="0" style="stop-color:#3B3138"/>
			<stop  offset="1" style="stop-color:#241F21"/>
		</linearGradient>
		<path id="Vector114" fill="url(#Vector114_1_)" d="M110.855,129.228l-1.349-3.042c-0.191-0.433-0.489-0.801-0.863-1.067
			l-0.666-0.478c0,0-1.594-0.045-1.842,1.021c-0.053,1.353,2.417,4.376,3.98,5.578c0.26,0.199,0.63,0.464,0.855,0.328
			C111.359,131.339,111.092,130.095,110.855,129.228z"/>
		
			<linearGradient id="Vector113_1_" gradientUnits="userSpaceOnUse" x1="-5.7188" y1="209.3652" x2="-18.8334" y2="246.3407" gradientTransform="matrix(1 0 0 -1 116 341)">
			<stop  offset="0" style="stop-color:#E4D6CA"/>
			<stop  offset="0.59" style="stop-color:#D4BDAC"/>
		</linearGradient>
		<path id="Vector113" fill="url(#Vector113_1_)" d="M108.329,122.989c-0.212,1.306,0.056,1.985,0.346,2.367
			c0.203,0.269,1.854,3.164,1.176,3.636c-0.306,0.211-2.404-2.561-2.607-2.985c-0.181-0.382-0.304-0.293-0.315-1.339
			c-0.006-0.541-0.087-1.077-0.243-1.592L108.329,122.989z"/>
		<g id="Leg">
			
				<linearGradient id="Vector_2_1_" gradientUnits="userSpaceOnUse" x1="-4.0142" y1="226.2568" x2="-6.9722" y2="226.2568" gradientTransform="matrix(1 0 0 -1 116 341)">
				<stop  offset="0" style="stop-color:#3B3138"/>
				<stop  offset="1" style="stop-color:#241F21"/>
			</linearGradient>
			<path id="Vector_2" fill="url(#Vector_2_1_)" d="M110.712,112.645c0,0,1.49,1.892,1.248,3.966
				c-0.244,2.073-2.423-0.985-2.786-2.011c-0.328-0.921,0-1.777,0-1.777S109.618,111.49,110.712,112.645z"/>
			
				<linearGradient id="Vector_3_1_" gradientUnits="userSpaceOnUse" x1="-747.1602" y1="-850.8105" x2="-130.2229" y2="47.8312" gradientTransform="matrix(1 0 0 -1 116 341)">
				<stop  offset="0" style="stop-color:#E4D6CA"/>
				<stop  offset="0.59" style="stop-color:#D4BDAC"/>
			</linearGradient>
			<path id="Vector_3" fill="url(#Vector_3_1_)" d="M110.144,109.684c0,0-0.403,2.201,0.367,3.368
				c0.384,0.58,0.899,1.071,0.749,1.542c-0.102,0.315-0.49,0.543-0.817,0.506c-0.63-0.068-0.977-1.094-1.223-1.818
				c-0.36-1.067-0.565-3.349-0.565-3.349L110.144,109.684z"/>
			
				<linearGradient id="Vector_4_1_" gradientUnits="userSpaceOnUse" x1="-9589.123" y1="-33242.75" x2="-11544.0381" y2="-40076.9961" gradientTransform="matrix(1 0 0 -1 116 341)">
				<stop  offset="0" style="stop-color:#5D535A"/>
				<stop  offset="1" style="stop-color:#464143"/>
			</linearGradient>
			<path id="Vector_4" fill="url(#Vector_4_1_)" d="M108.957,111.543l1.375-0.533c0.719-1.738,1.587-4.592,1.296-8.059
				c-0.75-8.917-8.506-13.645-9.364-14.151c-2.112,1.128-4.251,2.718-4.329,4.724c-0.097,2.519,3.125,3.848,6.156,7.53
				C105.91,103.262,107.853,106.556,108.957,111.543z"/>
		</g>
		
			<linearGradient id="Vector112_1_" gradientUnits="userSpaceOnUse" x1="3901.0625" y1="-10762.8945" x2="405.6587" y2="-964.75" gradientTransform="matrix(1 0 0 -1 116 341)">
			<stop  offset="0" style="stop-color:#5D535A"/>
			<stop  offset="1" style="stop-color:#464143"/>
		</linearGradient>
		<path id="Vector112" fill="url(#Vector112_1_)" d="M108.462,124.01c1.514-6.292,1.127-11.428,0.69-14.386
			c-0.66-4.471-2.002-13.566-7.708-16.957c-1.247-0.74-3.028-1.403-5.199-3.462c-1.452-1.384-2.688-3.005-3.661-4.802
			c-7.632-2.381-14.671-1.416-17.776,2.938c-0.359,0.503-1.259,1.595-1.432,3.204c-0.392,3.636,2.961,8.004,6.724,8.917
			c4.782,1.16,7.553-4.065,11.794-2.327c1.185,0.487,2.189,1.691,4.199,4.102c1.783,2.131,3.308,4.492,4.538,7.026
			c1.619,3.371,2.847,5.859,3.025,9.089c0.042,0.751,0.067,2.27,0.894,3.906c0.527,1.023,1.256,1.915,2.136,2.613L108.462,124.01z"
			/>
		
			<linearGradient id="Vector111_1_" gradientUnits="userSpaceOnUse" x1="1025.0342" y1="-5558.4985" x2="88.5342" y2="-385.6289" gradientTransform="matrix(1 0 0 -1 116 341)">
			<stop  offset="0" style="stop-color:#5D535A"/>
			<stop  offset="1" style="stop-color:#464143"/>
		</linearGradient>
		<path id="Vector111" opacity="0.3" fill="url(#Vector111_1_)" enable-background="new    " d="M73.376,90.545
			c0.174-1.609,1.073-2.701,1.432-3.204c3.105-4.354,10.145-5.32,17.776-2.938c0.974,1.797,2.209,3.418,3.661,4.802
			c2.171,2.059,3.956,2.722,5.199,3.462c3.484,2.071,5.34,6.268,6.408,10.238c-1.585-2.616-2.942-3.312-3.992-3.324
			c-1.504-0.017-2.175,1.35-3.97,1.164c-1.918-0.199-2.356-1.887-3.912-2.081c-0.465-0.059-1.038,0.018-1.726,0.407
			c-0.918-1.022-1.603-1.626-2.358-1.938c-4.237-1.739-7.014,3.486-11.794,2.327C76.337,98.549,72.984,94.177,73.376,90.545z"/>
		
			<linearGradient id="Vector110_1_" gradientUnits="userSpaceOnUse" x1="-1655.5132" y1="-21680.375" x2="-1986.9283" y2="-26144.2598" gradientTransform="matrix(1 0 0 -1 116 341)">
			<stop  offset="0" style="stop-color:#5D535A"/>
			<stop  offset="1" style="stop-color:#464143"/>
		</linearGradient>
		<path id="Vector110" fill="url(#Vector110_1_)" d="M104.509,95.481c-1.267-0.07-2.537-0.038-3.799,0.096
			c-7.614,0.801-9.711,4.809-16.005,5.787c-1.488,0.232-8.117,1.261-10.988-2.815c-2.062-2.928-1.749-7.973,0.505-9.956
			c0.954-0.84,1.899-0.816,8.009-0.758c2.301,0.022,4.603,0.031,6.904,0.061c9.741,0.132,11.604-0.585,13.376,1.129
			C103.336,89.824,104.546,91.538,104.509,95.481z"/>
		
			<linearGradient id="Vector109_1_" gradientUnits="userSpaceOnUse" x1="-31825.084" y1="-60901.0586" x2="-38582.4023" y2="-73901.6797" gradientTransform="matrix(1 0 0 -1 116 341)">
			<stop  offset="0" style="stop-color:#F6AF9A"/>
			<stop  offset="1" style="stop-color:#F89F8A"/>
		</linearGradient>
		<path id="Vector109" fill="url(#Vector109_1_)" d="M83.945,62.226c0,0-7.689-2.386-11.076,1.692
			c-0.621,0.75-1.113,1.734-1.47,3.636c-1.823,9.687,5.071,15.5,2.355,20.615c-1.08,2.029-2.979,2.641-4.329,6.287
			c-0.228,0.618-1.055,2.852-0.296,3.555c0.668,0.62,1.767-0.688,3.719-0.435c2.068,0.267,2.549,1.957,3.94,1.71
			c0.907-0.161,1.296-0.984,2.633-3.038c1.933-2.973,2.9-4.459,3.597-4.98c2.734-2.056,4.849,0.625,7.967-1.411
			c1.128-0.737,5.312-6.468,4.081-4.893c-2.929-3.888-3.609-7.097-3.68-9.327c-0.077-2.446,0.586-3.557,0-6.447
			c0,0-0.654-3.226-3.01-5.996C88.033,62.796,87.629,62.383,83.945,62.226z"/>
		
			<linearGradient id="Vector108_1_" gradientUnits="userSpaceOnUse" x1="-34.4893" y1="272.8809" x2="-31.26" y2="286.6505" gradientTransform="matrix(1 0 0 -1 116 341)">
			<stop  offset="0" style="stop-color:#FAEBD7"/>
			<stop  offset="1" style="stop-color:#E8D0BA"/>
		</linearGradient>
		<path id="Vector108" fill="url(#Vector108_1_)" d="M81.477,56.919c0.104,0.518,0.634,3.295-0.435,4.01
			c-0.231,0.155-0.676,0.243-1.566,0.42c-0.582,0.116-1.071,0.191-1.415,0.232c0.064,0.694,0.307,1.356,0.702,1.914
			c1.416,1.934,4.256,1.435,4.661,1.355c1.428-0.277,2.833-0.747,3.173-1.034c0.517-0.437,0.922-0.765,1.164-1.097
			c-0.553-0.287-1.669-1.035-2.418-1.279c-0.513-0.168-1.035-0.305-1.563-0.408c-0.078-0.537-0.157-1.074-0.235-1.61L81.477,56.919z
			"/>
		
			<linearGradient id="Vector107_1_" gradientUnits="userSpaceOnUse" x1="-911.2197" y1="-1790.6094" x2="-499.4968" y2="-818.6152" gradientTransform="matrix(1 0 0 -1 116 341)">
			<stop  offset="0" style="stop-color:#FAEBD7"/>
			<stop  offset="1" style="stop-color:#E8D0BA"/>
		</linearGradient>
		<path id="Vector107" fill="url(#Vector107_1_)" d="M81.427,58.303c0,0,0.193,2.036,2.053,2.393
			c1.665,0.321,2.919-3.96,2.068-5.071c-0.284-0.369-0.989-0.72-1.595-0.702c-0.428,0.013-1.873,0.599-2.074,2.137
			c-0.288-0.322-0.646-0.415-0.824-0.28c-0.224,0.171-0.104,0.67-0.076,0.783C81.051,57.853,81.208,58.112,81.427,58.303z"/>
		
			<linearGradient id="Vector106_1_" gradientUnits="userSpaceOnUse" x1="-94462.2422" y1="254.1074" x2="-102254.5234" y2="254.1067" gradientTransform="matrix(1 0 0 -1 116 341)">
			<stop  offset="0" style="stop-color:#F6AF9A"/>
			<stop  offset="1" style="stop-color:#F89F8A"/>
		</linearGradient>
		<path id="Vector106" opacity="0.3" fill="url(#Vector106_1_)" enable-background="new    " d="M95.062,84.963
			c-0.352-0.468-0.67-0.926-0.96-1.374c-1.335-0.484-2.728-0.77-4.136-0.849c-2.543-0.131-3.935,0.505-5.665-0.603
			c-1.965-1.258-1.619-3.005-3.513-3.979c-1.995-1.026-3.406,0.133-5.326-0.241c-1.16-0.227-2.572-1.053-4.013-3.458
			c1.101,5.796,4.307,9.945,2.306,13.709c-1.08,2.029-2.979,2.641-4.329,6.287c-0.228,0.619-1.055,2.852-0.296,3.555
			c0.668,0.62,1.767-0.688,3.719-0.435c2.068,0.267,2.549,1.957,3.94,1.71c0.907-0.16,1.296-0.984,2.633-3.038
			c1.933-2.973,2.9-4.458,3.597-4.98c2.734-2.056,4.848,0.625,7.967-1.412C92.109,89.12,96.293,83.388,95.062,84.963z"/>
		
			<linearGradient id="Vector105_1_" gradientUnits="userSpaceOnUse" x1="-18.1553" y1="253.54" x2="-37.1694" y2="253.54" gradientTransform="matrix(1 0 0 -1 116 341)">
			<stop  offset="0" style="stop-color:#5D535A"/>
			<stop  offset="1" style="stop-color:#464143"/>
		</linearGradient>
		<path id="Vector105" fill="url(#Vector105_1_)" d="M97.379,85.957l-17.397,0.9c-0.118,0.006-0.232,0.043-0.334,0.106
			c-0.102,0.063-0.188,0.152-0.25,0.259l-0.481,0.823c-0.054,0.093-0.084,0.199-0.085,0.308c-0.002,0.109,0.024,0.217,0.076,0.311
			c0.051,0.095,0.126,0.173,0.216,0.225c0.09,0.053,0.192,0.078,0.294,0.074l18.428-0.748L97.379,85.957z"/>
		
			<linearGradient id="Vector104_1_" gradientUnits="userSpaceOnUse" x1="-29123.7363" y1="-58468.8906" x2="-30540.0879" y2="-61326.207" gradientTransform="matrix(1 0 0 -1 116 341)">
			<stop  offset="0" style="stop-color:#5D535A"/>
			<stop  offset="1" style="stop-color:#464143"/>
		</linearGradient>
		<path id="Vector104" fill="url(#Vector104_1_)" d="M115.472,75.648l-17.973,0.371c-0.261,0.005-0.517,0.083-0.741,0.225
			c-0.225,0.143-0.411,0.345-0.54,0.586l-6.225,11.654l18.981-0.805c0.257-0.011,0.507-0.089,0.728-0.229
			c0.22-0.139,0.405-0.334,0.537-0.568l5.766-10.251c0.057-0.099,0.087-0.212,0.088-0.329c0.001-0.116-0.027-0.23-0.082-0.33
			c-0.054-0.1-0.133-0.183-0.228-0.24C115.688,75.675,115.581,75.646,115.472,75.648L115.472,75.648z"/>
		
			<linearGradient id="Vector103_1_" gradientUnits="userSpaceOnUse" x1="-11.6201" y1="261.0332" x2="-19.3034" y2="248.4286" gradientTransform="matrix(1 0 0 -1 116 341)">
			<stop  offset="0" style="stop-color:#5D535A"/>
			<stop  offset="1" style="stop-color:#464143"/>
		</linearGradient>
		<path id="Vector103" opacity="0.3" fill="url(#Vector103_1_)" enable-background="new    " d="M96.218,76.83
			c0.129-0.242,0.315-0.443,0.54-0.586c0.224-0.142,0.48-0.22,0.741-0.226l0.394-0.007c0.058,0.617,0.237,1.182,0.591,1.638
			c1.109,1.422,2.949,0.545,4.323,2.051c1.506,1.655,0.114,3.625,1.462,5.167c1.419,1.621,3.712,0.301,6.349,1.339l-0.379,0.675
			c-0.132,0.234-0.317,0.43-0.537,0.569c-0.222,0.139-0.471,0.218-0.728,0.229l-18.982,0.804L96.218,76.83z"/>
		
			<linearGradient id="Vector102_1_" gradientUnits="userSpaceOnUse" x1="-38567.5625" y1="25684.9609" x2="-48895.125" y2="32499.4844" gradientTransform="matrix(1 0 0 -1 116 341)">
			<stop  offset="0" style="stop-color:#F6AF9A"/>
			<stop  offset="1" style="stop-color:#F89F8A"/>
		</linearGradient>
		<path id="Vector102" fill="url(#Vector102_1_)" d="M81.4,85.338c0.226-0.638,0.453-1.276,0.679-1.914
			c-2.502-0.729-5.963-1.808-9.513-3.158c-0.557-0.211-1.217-0.473-1.434-1.095c-0.607-1.748,3.252-3.557,4.752-7.368
			c1.388-3.527,0.624-8.419-0.989-9c-3.348-1.201-15.23,14.538-10.986,21.172C66.308,87.727,73.704,88.324,81.4,85.338z"/>
		
			<linearGradient id="Vector101_1_" gradientUnits="userSpaceOnUse" x1="-30.7041" y1="257.6709" x2="-32.3512" y2="254.434" gradientTransform="matrix(1 0 0 -1 116 341)">
			<stop  offset="0" style="stop-color:#FAEBD7"/>
			<stop  offset="1" style="stop-color:#E8D0BA"/>
		</linearGradient>
		<path id="Vector101" fill="url(#Vector101_1_)" d="M82.082,83.43c1.572-0.888,3.452,0.021,3.573,0.083
			c0.506,0.256,0.965,0.606,1.355,1.034c0.058,0.083,0.739,1.088,0.491,1.41c-0.199,0.258-0.97,0.044-1.896-0.574
			c-0.55-0.082-1.106-0.097-1.658-0.043c-1.272,0.124-1.854,0.552-2.316,0.184c-0.338-0.271-0.45-0.842-0.331-1.266
			C81.427,83.807,81.812,83.58,82.082,83.43z"/>
	</g>
</g>
</svg>
