<?xml version="1.0" encoding="utf-8"?>
<!-- Generator: Adobe Illustrator 16.0.0, SVG Export Plug-In . SVG Version: 6.00 Build 0)  -->
<!DOCTYPE svg PUBLIC "-//W3C//DTD SVG 1.1//EN" "http://www.w3.org/Graphics/SVG/1.1/DTD/svg11.dtd">
<svg version="1.1" id="Layer_1" xmlns="http://www.w3.org/2000/svg" xmlns:xlink="http://www.w3.org/1999/xlink" x="0px" y="0px"
	 width="611.969px" height="146.993px" viewBox="0 0 611.969 146.993" enable-background="new 0 0 611.969 146.993"
	 xml:space="preserve">
<g>
	<path fill="#18191A" d="M77.956,53.415v-19h-54v1h6v76h-6v2h26v-2h-7v-37h13.87c2.013,1,3.216,2.891,3.92,4.697
		c1.007,2.611,1.31,5.303,1.31,5.303h0.9v-21h-0.9c0,0-0.303,2.74-1.31,5.352c-0.704,1.906-1.907,3.648-3.92,4.648h-13.87v-38
		h24.022c8.646,4,10.152,18,10.152,18H77.956z"/>
	<path fill="#18191A" d="M128.672,110.515c-3.618,0-2.611-10.626-2.611-13.745c0-9.443,0.299-15.667,0.299-21.594
		c0-10.254-5.729-20.093-26.23-20.093c-5.229,0-20.104,0.502-20.104,12.967c0,4.42,2.815,8.441,6.735,8.441
		c3.114,0,6.232-3.11,6.232-6.229c0-1.907-1.109-3.715-2.717-4.926c-2.513-1.711-3.618-3.11-3.618-4.224
		c0-2.914,7.239-5.025,11.962-5.025c11.961,0,13.851,4.928,14.056,13.774c0,3.217,0.281,6.933,0.281,11.155v0.605
		c0,0-25.01-0.605-33.148,8.037c-3.217,2.717-4.114,15.582,1.313,19.902c9.952,7.938,29.053,3.82,31.164-10.654
		c0,9.648,0.354,14.616,12.314,14.616c6.834,0,10.911-3.11,10.911-11.11H134.4C134.303,102.415,135.51,110.515,128.672,110.515z
		 M111.182,98.106c-4.723,15.682-14.572,13.268-14.772,12.964c-6.134-2.308-3.318-18.897-3.318-19.493
		c0-7.646,18.897-8.849,18.897-8.849C111.988,90.364,111.387,98.106,111.182,98.106z"/>
	<polygon fill="#18191A" points="141.956,57.415 148.956,57.415 148.956,111.415 141.956,111.415 141.956,113.415 167.956,113.415 
		167.956,111.415 161.956,111.415 161.956,57.415 167.956,57.415 167.956,56.415 141.956,56.415 	"/>
	<path fill="#18191A" d="M154.939,47.249c3.314,0,6.531-3.216,6.531-6.638c0-3.314-3.217-6.53-6.531-6.53
		c-3.417,0-6.634,3.216-6.634,6.53C148.306,44.033,151.522,47.249,154.939,47.249z"/>
	<path fill="#18191A" d="M216.923,56.195c-10.656-2.619-16.967,4.215-19.967,13.364V56.415h-20v1h7v54h-7v2h26v-2h-6v-38.14
		l0.668-3.314c1.912-6.932,6.263-10.354,6.463-10.656c5.328-4.019,10.167-2.61,10.167-2.61c1.813,0.499,2.068,2.315,2.068,2.315
		c0,4.117-5.849,2.709-5.849,8.242c0,3.109,3.207,6.326,6.32,6.326c3.119,0,6.499-3.217,6.499-6.326
		C223.293,57.398,216.923,56.195,216.923,56.195z"/>
	<path fill="#18191A" d="M261.572,64.838c-10.651-4.224-34.979-16.59-13.267-27.541c8.643-5.025,25.83-2.716,33.769,15.985
		c0.908,3.217,1.211,6.133,1.211,6.133h0.671V34.277c-3,9.15-2.533,6.947-9.936,3.421c0,0-28.236-13.267-41.707,11.557
		c-0.602,1.007-1.702,3.821-1.6,7.537c-0.205,14.077,11.559,21.313,25.631,25.134c10.955,4.519,35.676,16.787,13.17,27.639
		c-8.646,5.025-26.841,3.189-34.779-15.501c-0.904-3.217-1.206-5.647-1.206-5.647h-0.573v24.16c4-9.142,3.053-7.636,10.895-3.412
		c0,0,28.21,13.269,41.673-11.557c0.605-1.007,1.703-3.822,1.604-7.546C286.719,75.592,276.247,69.462,261.572,64.838z"/>
	<path fill="#18191A" d="M352.956,73.685c0-10.059-9.498-17.597-19.353-17.597c-8.35,0-16.647,5.328-19.647,13.07V35.415h5v-1h-25v1
		h7v76h-8v2h27v-2h-6V72.475c2-8.741,10.479-15.28,19.221-15.477c5.14,0,6.779,8.741,6.779,8.741v45.677h-7v2h26v-2h-6V73.685z"/>
	<path fill="#18191A" d="M416.538,110.515c-3.617,0-2.617-10.626-2.617-13.745c0-9.443,0.312-15.667,0.312-21.594
		c0-10.254-5.729-20.093-26.238-20.093c-5.223,0-20.102,0.502-20.102,12.967c0,4.42,2.813,8.441,6.729,8.441
		c3.127,0,6.234-3.11,6.234-6.229c0-1.907-1.111-3.715-2.717-4.926c-2.505-1.711-3.617-3.11-3.617-4.224
		c0-2.914,7.233-5.025,11.965-5.025c11.967,0,13.924,4.928,14.119,13.774c0,3.217,0.354,6.933,0.354,11.155v0.605
		c0,0-25.084-0.605-33.223,8.037c-3.226,2.717-4.152,15.582,1.281,19.902c9.95,7.938,29.038,3.82,31.151-10.654
		c0,9.648,0.336,14.616,12.301,14.616c6.843,0,10.896-3.11,10.896-11.11h-1.099C422.168,102.415,423.364,110.515,416.538,110.515z
		 M399.04,98.106c-4.713,15.682-14.565,13.268-14.765,12.964c-6.139-2.308-3.321-18.897-3.321-19.493
		c0-7.646,18.889-8.849,18.889-8.849C399.842,90.364,399.252,98.106,399.04,98.106z"/>
	<path fill="#18191A" d="M469.946,56.195c-10.656-2.619-16.99,4.215-19.99,13.364V56.415h-20v1h7v54h-7v2h26v-2h-6v-38.14
		l0.691-3.314c1.915-6.932,6.276-10.354,6.489-10.656c5.32-4.019,10.172-2.61,10.172-2.61c1.802,0.499,2.072,2.315,2.072,2.315
		c0,4.117-5.846,2.709-5.846,8.242c0,3.109,3.197,6.326,6.324,6.326c3.106,0,6.467-3.217,6.467-6.326
		C476.329,57.398,469.946,56.195,469.946,56.195z"/>
	<path fill="#18191A" d="M588.467,71.099l-3.961-37.654l-29.707,23.534c0,0,8.33-2.986,18.754,1.169l-14.246,31.269l-12.596-7.459
		l-0.264,1.021c-5.726,20.279-20.135,29.438-31.896,29.438c-0.016,0-0.031,0-0.047,0c-2.613,0-5.07-0.625-7.354-1.396
		c-5.101-3.884-8.314-13.604-8.128-30.604h39.71c-1.701-14-13.474-24.624-27.646-24.624c-15.582,0-28.137,12.817-28.137,28.597
		c0,15.657,12.362,28.446,27.78,28.642c1.222,0.178,2.476,0.385,3.771,0.385c0.018,0,0.033,0,0.049,0
		c12.146,0,26.957-8.967,33.07-29.344l12.359,7.523l14.952-32.836C584.719,63.223,588.467,71.099,588.467,71.099z M508.073,57.146
		c0.897-0.098,1.914-0.173,3.012-0.173c1.014,0,2.012,0.063,3.125,0.16c4.617,2.717,8.137,11.282,8.84,22.282h-23.914
		C499.938,68.415,503.456,59.862,508.073,57.146z"/>
</g>
</svg>
