<?xml version="1.0" encoding="utf-8"?>
<!-- Generator: Adobe Illustrator 16.0.0, SVG Export Plug-In . SVG Version: 6.00 Build 0)  -->
<!DOCTYPE svg PUBLIC "-//W3C//DTD SVG 1.1//EN" "http://www.w3.org/Graphics/SVG/1.1/DTD/svg11.dtd">
<svg version="1.1" id="Layer_1" xmlns="http://www.w3.org/2000/svg" xmlns:xlink="http://www.w3.org/1999/xlink" x="0px" y="0px"
	 width="611.969px" height="146.993px" viewBox="0 0 611.969 146.993" enable-background="new 0 0 611.969 146.993"
	 xml:space="preserve">
<rect fill="#18191A" width="611.969" height="146.993"/>
<g>
	<path fill="#FFFFFF" d="M92.789,54.742V36.995H42.351v0.934h5.604v70.985h-5.604v1.867h24.285v-1.867h-6.538V74.356h12.955
		c1.88,0.934,3.003,2.7,3.661,4.387c0.94,2.439,1.224,4.953,1.224,4.953h0.84V64.082h-0.84c0,0-0.283,2.56-1.224,4.999
		c-0.658,1.78-1.781,3.407-3.661,4.341H60.098V37.929h22.437c8.076,3.736,9.482,16.813,9.482,16.813H92.789z"/>
	<path fill="#FFFFFF" d="M140.158,108.075c-3.379,0-2.439-9.925-2.439-12.838c0-8.82,0.279-14.634,0.279-20.17
		c0-9.578-5.351-18.767-24.5-18.767c-4.884,0-18.777,0.469-18.777,12.111c0,4.128,2.629,7.884,6.291,7.884
		c2.908,0,5.821-2.905,5.821-5.818c0-1.781-1.036-3.47-2.538-4.601c-2.347-1.598-3.379-2.904-3.379-3.945
		c0-2.721,6.761-4.693,11.172-4.693c11.172,0,12.938,4.603,13.128,12.865c0,3.005,0.263,6.476,0.263,10.419v0.564
		c0,0-23.36-0.564-30.961,7.508c-3.005,2.537-3.843,14.554,1.227,18.589c9.295,7.414,27.136,3.567,29.108-9.951
		c0,9.013,0.331,13.651,11.501,13.651c6.383,0,10.191-2.904,10.191-10.377h-1.038C145.418,100.508,146.545,108.075,140.158,108.075z
		 M123.822,96.484c-4.412,14.647-13.611,12.394-13.797,12.108c-5.729-2.155-3.1-17.65-3.1-18.207c0-7.141,17.65-8.266,17.65-8.266
		C124.575,89.252,124.014,96.484,123.822,96.484z"/>
	<polygon fill="#FFFFFF" points="152.566,58.478 159.104,58.478 159.104,108.915 152.566,108.915 152.566,110.784 176.851,110.784 
		176.851,108.915 171.246,108.915 171.246,58.478 176.851,58.478 176.851,57.544 152.566,57.544 	"/>
	<path fill="#FFFFFF" d="M164.692,48.982c3.096,0,6.101-3.003,6.101-6.2c0-3.095-3.005-6.099-6.101-6.099
		c-3.191,0-6.196,3.003-6.196,6.099C158.497,45.979,161.5,48.982,164.692,48.982z"/>
	<path fill="#FFFFFF" d="M222.586,57.338c-9.953-2.446-15.847,3.937-18.649,12.482V57.544h-18.68v0.934h6.538v50.437h-6.538v1.869
		h24.284v-1.869h-5.604V73.292l0.624-3.096c1.786-6.475,5.85-9.671,6.037-9.953c4.977-3.754,9.496-2.438,9.496-2.438
		c1.693,0.466,1.931,2.162,1.931,2.162c0,3.846-5.462,2.53-5.462,7.698c0,2.904,2.995,5.909,5.903,5.909
		c2.913,0,6.07-3.005,6.07-5.909C228.537,58.462,222.586,57.338,222.586,57.338z"/>
	<path fill="#FFFFFF" d="M264.29,65.411c-9.948-3.945-32.671-15.496-12.391-25.724c8.073-4.693,24.125-2.537,31.541,14.931
		c0.848,3.004,1.131,5.728,1.131,5.728h0.627v-23.48c-2.802,8.546-2.366,6.489-9.281,3.196c0,0-26.373-12.392-38.955,10.794
		c-0.563,0.941-1.59,3.569-1.495,7.04c-0.191,13.148,10.796,19.907,23.94,23.476c10.232,4.221,33.322,15.68,12.301,25.815
		c-8.076,4.694-25.07,2.979-32.485-14.479c-0.844-3.004-1.126-5.273-1.126-5.273h-0.535V110c3.736-8.539,2.851-7.133,10.176-3.188
		c0,0,26.349,12.394,38.923-10.794c0.565-0.939,1.591-3.57,1.498-7.049C287.777,75.456,277.997,69.73,264.29,65.411z"/>
	<path fill="#FFFFFF" d="M349.645,73.674c0-9.396-8.871-16.436-18.074-16.436c-7.799,0-15.551,4.977-18.354,12.208V37.929h4.67
		v-0.934h-23.349v0.934h6.538v70.985h-7.473v1.867h25.219v-1.867h-5.605V72.544c1.869-8.165,9.789-14.272,17.953-14.456
		c4.801,0,6.332,8.165,6.332,8.165v42.664h-6.539v1.869h24.285v-1.869h-5.604V73.674L349.645,73.674z"/>
	<path fill="#FFFFFF" d="M409.031,108.075c-3.379,0-2.445-9.925-2.445-12.838c0-8.82,0.293-14.634,0.293-20.17
		c0-9.578-5.354-18.767-24.508-18.767c-4.877,0-18.775,0.469-18.775,12.111c0,4.128,2.627,7.884,6.285,7.884
		c2.92,0,5.822-2.905,5.822-5.818c0-1.781-1.037-3.47-2.537-4.601c-2.34-1.598-3.379-2.904-3.379-3.945
		c0-2.721,6.756-4.693,11.176-4.693c11.178,0,13.006,4.603,13.188,12.865c0,3.005,0.33,6.476,0.33,10.419v0.564
		c0,0-23.428-0.564-31.028,7.508c-3.015,2.537-3.879,14.554,1.194,18.589c9.293,7.414,27.121,3.567,29.097-9.951
		c0,9.013,0.313,13.651,11.488,13.651c6.393,0,10.178-2.904,10.178-10.377h-1.025C414.291,100.508,415.406,108.075,409.031,108.075z
		 M392.688,96.484c-4.401,14.647-13.604,12.394-13.789,12.108c-5.733-2.155-3.104-17.65-3.104-18.207
		c0-7.141,17.643-8.266,17.643-8.266C393.438,89.252,392.887,96.484,392.688,96.484z"/>
	<path fill="#FFFFFF" d="M458.916,57.338c-9.953-2.446-15.869,3.937-18.672,12.482V57.544h-18.68v0.934h6.536v50.437h-6.536v1.869
		h24.282v-1.869h-5.604V73.292l0.646-3.096c1.789-6.475,5.863-9.671,6.063-9.953c4.969-3.754,9.5-2.438,9.5-2.438
		c1.682,0.466,1.936,2.162,1.936,2.162c0,3.846-5.461,2.53-5.461,7.698c0,2.904,2.986,5.909,5.908,5.909
		c2.9,0,6.039-3.005,6.039-5.909C464.877,58.462,458.916,57.338,458.916,57.338z"/>
	<path fill="#FFFFFF" d="M569.617,71.259l-3.699-35.17L538.172,58.07c0,0,7.779-2.789,17.517,1.092l-13.308,29.206L530.617,81.4
		l-0.246,0.954c-5.35,18.941-18.807,27.495-29.793,27.495c-0.014,0-0.029,0-0.043,0c-2.441,0-4.736-0.583-6.871-1.304
		c-4.764-3.627-7.766-12.707-7.59-28.586h37.088c-1.588-13.076-12.584-22.999-25.822-22.999c-14.553,0-26.278,11.971-26.278,26.709
		c0,14.625,11.547,26.57,25.946,26.752c1.142,0.166,2.313,0.359,3.523,0.359c0.016,0,0.031,0,0.045,0
		c11.346,0,25.18-8.375,30.889-27.408l11.545,7.027l13.966-30.67C566.117,63.903,569.617,71.259,569.617,71.259z M494.527,58.227
		c0.84-0.092,1.787-0.162,2.813-0.162c0.947,0,1.879,0.059,2.92,0.149c4.313,2.538,7.601,10.538,8.256,20.812H486.18
		C486.93,68.752,490.215,60.763,494.527,58.227z"/>
</g>
</svg>
