<svg width="500" height="517" viewBox="0 0 500 517" fill="none" xmlns="http://www.w3.org/2000/svg">
<g id="Group">
<g id="Illustration">
<path id="Vector" d="M347.037 106.85C253.137 100.074 265.107 88.3562 230.921 79.9392C196.735 71.5221 39.1813 87.4364 80.1733 274.219C90.2393 320.091 107.651 365.11 150.525 393.265C173.837 408.576 205.915 413.121 233.995 407.784C259.779 402.881 286.489 399.181 312.751 397.242C323.321 396.463 334.405 397.015 344.587 393.922C369.673 386.301 389.827 366.356 399.217 344.361C408.417 322.795 412.201 298.885 415.735 276.107C415.735 276.104 440.937 113.626 347.037 106.85Z" fill="#F9EFE4"/>
<g id="Gear">
<path id="Vector_2" d="M374.139 189.2L376.057 184.834C376.775 183.197 376.349 181.233 375.101 180.442L370.137 177.289C371.507 173.272 372.433 169.108 372.897 164.877L378.439 164.476C379.867 164.372 381.021 162.822 381.021 161.028V156.24C381.021 154.44 379.867 153.049 378.439 153.14L373.039 153.458C372.686 149.254 371.846 145.109 370.535 141.112L375.097 137.612C375.242 137.5 375.376 137.373 375.497 137.234L376.081 138.803L383.577 129.276L373.797 128.408C373.606 128.138 373.364 127.911 373.086 127.74C372.808 127.569 372.5 127.457 372.179 127.411C371.599 127.347 371.016 127.513 370.549 127.876L366.041 131.258C363.994 127.84 361.489 124.737 358.601 122.043L358.941 121.311L365.831 122.758L366.707 110.976L356.243 109.192C355.043 108.713 353.679 109.32 353.017 110.73L350.417 116.274C347.075 114.556 349.845 112.76 346.045 112.227L350.019 106.181C350.019 104.295 338.383 103.041 336.819 103.041H332.619C331.019 103.041 329.731 104.589 329.731 106.499V112.973C325.8 113.604 321.992 114.882 318.451 116.758L325.637 111.301C325.637 111.301 312.979 108.82 311.539 109.806L307.671 112.448C306.213 113.442 305.713 115.621 306.555 117.306L309.469 123.133C306.281 126.068 304.923 127.761 302.509 131.636L295.741 130.057C294.247 129.108 292.327 129.751 291.459 131.504L289.141 136.174C288.265 137.935 288.785 140.126 290.297 141.064L295.755 144.444C294.21 148.885 293.209 153.51 292.775 158.208L286.229 158.595C284.465 158.698 283.029 160.412 283.029 162.421V167.764C283.029 169.587 284.209 171.005 285.741 171.16L293.181 172.401C293.772 176.282 294.793 180.08 296.225 183.72L290.293 188.174C288.781 189.311 288.261 191.573 289.137 193.218L291.455 197.582C292.323 199.217 306.113 200.211 306.113 200.211L301.735 193.865C304.069 197.124 306.857 200.008 310.007 202.425L306.551 209.79C305.709 211.586 306.209 213.698 307.667 214.5L311.519 216.625C311.756 216.755 312.011 216.845 312.275 216.89L312.261 216.964L324.277 218.494L325.453 209.12C326.863 209.345 328.285 209.478 329.711 209.519V217.537C329.711 218.963 330.433 220.092 331.463 220.484L331.409 220.72L343.315 222.256L343.553 207.051C345.735 206.193 347.839 205.136 349.839 203.892L353.017 210.219C353.182 210.575 353.426 210.885 353.73 211.124C354.033 211.363 354.388 211.523 354.763 211.592V211.592L366.269 213.202L362.327 201.993L360.727 202.497L358.105 197.183C360.903 194.3 363.353 191.078 365.403 187.587L370.539 190.769C371.809 191.55 373.415 190.845 374.139 189.2ZM334.713 185.092C323.447 186.126 314.113 175.913 314.113 162.251C314.113 148.59 323.455 137.16 334.713 136.734C345.699 136.32 354.409 146.575 354.409 159.635C354.409 172.694 345.699 184.08 334.713 185.092V185.092ZM382.823 158.857L390.623 155.044L382.823 154.068V158.857ZM373.255 191.409L382.173 192.65L383.475 189.508L376.087 184.867L373.255 191.409Z" fill="url(#paint200_linear)"/>
<path id="Vector_3" d="M389.928 154.903L384.562 155.223C384.212 151.032 383.376 146.899 382.072 142.914L386.61 139.423C387.85 138.47 388.274 136.455 387.558 134.917L385.652 130.818C384.934 129.27 383.336 128.778 382.082 129.722L377.596 133.102C375.56 129.695 373.069 126.603 370.196 123.916L372.774 118.335C373.514 116.733 373.076 114.705 371.792 113.8L368.36 111.381C367.062 110.468 365.396 111.028 364.642 112.64L362.058 118.169C358.697 116.433 355.081 115.285 351.356 114.771V108.386C351.356 106.503 350.092 104.978 348.53 104.978H344.346C342.762 104.978 341.474 106.522 341.474 108.427V114.883C337.564 115.515 333.778 116.79 330.258 118.661L327.458 112.981C326.636 111.313 324.812 110.751 323.38 111.741L319.55 114.366C318.102 115.358 317.604 117.529 318.442 119.209L321.338 125.018C318.104 128.026 315.278 131.473 312.938 135.264L307.696 131.928C306.21 130.983 304.296 131.626 303.438 133.375L301.134 138.03C300.264 139.787 300.78 141.972 302.284 142.906L307.71 146.275C306.176 150.702 305.183 155.309 304.754 159.99L298.246 160.379C296.494 160.484 295.068 162.194 295.068 164.197V169.525C295.068 171.528 296.494 173.039 298.246 172.919L304.928 172.432C305.466 176.888 306.565 181.253 308.196 185.415L302.3 189.859C300.796 190.992 300.28 193.245 301.15 194.886L303.454 199.227C304.318 200.856 306.226 201.246 307.712 200.103L313.674 195.516C315.994 198.764 318.766 201.639 321.9 204.047L318.464 211.394C317.626 213.186 318.124 215.29 319.572 216.09L323.402 218.207C324.834 218.998 326.658 218.194 327.48 216.414L330.88 209.041C334.284 210.313 337.863 211.011 341.48 211.108V219.106C341.48 221.009 342.768 222.384 344.352 222.173L348.536 221.619C350.098 221.413 351.362 219.72 351.362 217.837V209.928C354.928 208.961 358.34 207.466 361.492 205.49L364.648 211.819C365.402 213.33 367.068 213.68 368.366 212.584L371.798 209.709C373.082 208.634 373.52 206.548 372.78 205.044L369.718 198.82C372.501 195.942 374.938 192.729 376.976 189.249L382.082 192.443C383.336 193.222 384.934 192.517 385.652 190.876L387.558 186.523C388.274 184.89 387.85 182.93 386.61 182.143L381.674 179.001C383.036 174.994 383.956 170.842 384.418 166.623L389.928 166.22C391.348 166.117 392.496 164.567 392.496 162.783V158.008C392.496 156.205 391.348 154.822 389.928 154.903ZM346.45 186.789C335.25 187.823 325.96 177.647 325.96 164.023C325.96 150.399 335.25 139.012 346.45 138.571C357.374 138.158 366.036 148.375 366.036 161.396C366.036 174.416 357.374 185.777 346.45 186.789Z" fill="url(#paint201_linear)"/>
</g>
<path id="Vector_4" d="M124.854 242.637C122.276 246.858 119.696 250.028 116.992 254.03C137.026 257.716 155.686 265.062 175.992 268.837C168.578 242.436 158.798 229.236 173.556 201.238C180.478 188.102 197.846 164.31 195.56 149.268C192.96 132.128 181.24 133.414 187.36 120.156C196.928 99.4252 192.1 73.8206 161.248 75.7781C130.796 77.7088 113.342 157.544 124.448 183.265C129.654 207.119 138.32 220.596 124.854 242.637Z" fill="url(#paint202_linear)"/>
<g id="Group_2">
<g id="Vector_5" style="mix-blend-mode:soft-light">
<path d="M148.469 259.291L148.083 259.279C148.325 251.523 147.979 243.654 147.647 236.043L147.521 233.164C147.261 227.047 147.133 221.572 147.019 216.743C146.957 214.023 146.897 211.455 146.819 208.965C146.583 201.41 146.403 196.106 146.313 193.441C146.281 192.519 146.261 191.911 146.253 191.637C145.599 170.78 152.155 142.189 155.675 126.828C156.055 125.164 156.395 123.676 156.675 122.397C161.579 100.42 164.135 76.9441 164.275 52.6252H164.661C164.525 76.9751 161.965 100.478 157.061 122.492C156.777 123.773 156.435 125.261 156.061 126.925C152.547 142.269 146.007 170.825 146.661 191.624C146.661 191.899 146.691 192.505 146.721 193.427C146.811 196.091 146.991 201.395 147.227 208.952C147.305 211.433 147.365 214.012 147.427 216.733C147.541 221.561 147.669 227.035 147.929 233.145L148.055 236.024C148.367 243.644 148.711 251.521 148.469 259.291Z" fill="#FCFDFE"/>
</g>
<g id="Vector_6" style="mix-blend-mode:soft-light">
<path d="M146.98 220.732H146.592C146.792 206.929 152.426 190.799 162.86 174.091C171.552 160.172 183.356 146.341 195.246 136.145L195.492 136.45C183.632 146.624 171.856 160.428 163.186 174.309C152.8 190.948 147.186 207.003 146.98 220.732Z" fill="#FCFDFE"/>
</g>
<g id="Vector_7" style="mix-blend-mode:soft-light">
<path d="M155.434 129.472L155.092 129.286C160.47 118.721 167.174 108.797 173.656 99.2002C178.092 92.6311 182.68 85.8387 186.806 78.8955L187.136 79.1022C183 86.0578 178.412 92.8564 173.972 99.4255C167.498 109.017 160.8 118.93 155.434 129.472Z" fill="#FCFDFE"/>
</g>
<g id="Vector_8" style="mix-blend-mode:soft-light">
<path d="M147.855 167.277C145.293 150.883 134.671 130.134 125.123 122.874L125.351 122.552C134.967 129.865 145.661 150.734 148.237 167.212L147.855 167.277Z" fill="#FCFDFE"/>
</g>
</g>
<path id="Vector_9" d="M128.069 182.756C124.909 208.158 139.869 207.71 158.981 207.999C148.659 229.335 139.367 250.502 130.011 272.016C117.211 271.627 108.063 271.1 106.049 255.18C103.769 237.172 103.033 226.702 86.3305 216.598C69.6285 206.494 60.5125 188.073 72.3965 172.301C84.9025 155.697 77.2185 125.667 96.9845 117.318C131.425 102.774 131.359 156.304 128.069 182.756Z" fill="url(#paint203_linear)"/>
<g id="Group_3">
<g id="Vector_10" style="mix-blend-mode:soft-light">
<path d="M137.839 242.959C122.989 227.771 111.023 214.688 103.397 196.265C96.0987 178.633 95.1467 162.069 100.217 140.88C102.845 129.898 103.527 121.721 104.265 110.494L104.651 110.523C103.911 121.764 103.227 129.954 100.593 140.971C95.5447 162.069 96.4887 178.558 103.753 196.103C111.353 214.461 123.291 227.523 138.111 242.67L137.839 242.959Z" fill="#FCFDFE"/>
</g>
<path id="Vector_11" d="M105.598 264.529L105.398 264.19C111.232 260.43 117.062 257.755 123.224 256.015C126.374 255.124 129.4 254.833 132.97 254.671L132.988 255.07C129.442 255.232 126.442 255.519 123.326 256.399C117.186 258.13 111.398 260.79 105.598 264.529Z" fill="#FCFDFE"/>
<g id="Vector_12" style="mix-blend-mode:soft-light">
<path d="M108.669 207.197C97.4689 195.702 81.3269 188.193 63.2109 186.049L63.2549 185.652C81.4549 187.804 97.6829 195.367 108.943 206.914L108.669 207.197Z" fill="#FCFDFE"/>
</g>
<g id="Vector_13" style="mix-blend-mode:soft-light">
<path d="M97.3858 164.331L97.0078 164.248C97.3978 162.367 104.694 148.076 111.398 135.328C118.124 122.531 125.526 108.843 126.274 108.093L126.542 108.38C125.908 109.017 119.266 121.196 111.742 135.518C105.046 148.241 97.7658 162.491 97.3858 164.331Z" fill="#FCFDFE"/>
</g>
</g>
<path id="Vector_14" d="M304.372 405.8C301.876 404.935 299.645 403.405 297.906 401.363C296.166 399.321 294.98 396.841 294.466 394.173L287.1 356.503L224.1 358.814L216.348 398.059C215.262 403.555 219.608 409.068 224.614 411.081L250.97 421.739C255.867 423.721 261.14 424.511 266.38 424.048L322.08 419.124C322.873 419.05 323.618 418.694 324.187 418.117C324.757 417.54 325.116 416.778 325.204 415.959C325.392 414.262 326.534 412.357 324.98 411.825L304.372 405.8Z" fill="url(#paint204_linear)"/>
<path id="Vector_15" d="M304.997 403.509C302.514 402.667 300.291 401.162 298.552 399.145C296.814 397.129 295.623 394.673 295.099 392.027L287.743 354.82L226.283 357.106L218.537 395.857C218.012 398.485 218.406 401.22 219.649 403.576C220.891 405.932 222.902 407.756 225.323 408.724L251.653 419.248C256.553 421.204 261.819 421.982 267.053 421.522L322.697 416.658C323.486 416.59 324.229 416.242 324.798 415.673C325.367 415.103 325.728 414.348 325.821 413.535C325.913 412.722 325.73 411.901 325.303 411.212C324.876 410.522 324.232 410.006 323.479 409.752L304.997 403.509Z" fill="url(#paint205_linear)"/>
<path id="Vector_16" d="M95.3809 381.539C88.5489 381.952 82.9609 377.38 82.9609 371.328V153.156C82.9609 147.104 88.5489 142.43 95.3809 142.736L411.309 156.889C416.325 157.115 420.385 161.485 420.385 166.634V352.185C420.385 357.334 416.325 361.772 411.309 362.08L95.3809 381.539Z" fill="url(#paint206_linear)"/>
<path id="Vector_17" d="M98.2188 381.539C91.3888 381.952 85.7988 377.38 85.7988 371.328V153.156C85.7988 147.104 91.3888 142.43 98.2188 142.736L414.147 156.889C419.163 157.115 423.225 161.485 423.225 166.634V352.185C423.225 357.334 419.163 361.772 414.147 362.08L98.2188 381.539Z" fill="url(#paint207_linear)"/>
<path id="Vector_18" d="M414.146 161.251L98.2177 147.815C94.5657 147.66 91.5977 150.155 91.5977 153.396V370.997C91.5977 374.23 94.5657 376.675 98.2177 376.458L414.146 357.708C415.451 357.62 416.677 357.027 417.578 356.046C418.479 355.066 418.99 353.77 419.008 352.418V166.458C418.994 165.112 418.483 163.823 417.579 162.855C416.675 161.887 415.446 161.313 414.146 161.251V161.251Z" fill="url(#paint208_linear)"/>
<path id="Vector_19" opacity="0.5" d="M98.2187 357.923C96.7967 357.995 95.6387 357.032 95.6387 355.775V153.551C95.6387 152.292 96.7967 151.317 98.2187 151.377L414.147 164.308C414.654 164.334 415.133 164.558 415.486 164.935C415.84 165.313 416.041 165.815 416.049 166.34V339.731C416.041 340.258 415.841 340.762 415.488 341.143C415.135 341.523 414.656 341.751 414.147 341.781L98.2187 357.923Z" fill="white"/>
<g id="Vector_20" style="mix-blend-mode:soft-light" opacity="0.4">
<path d="M381.167 348.569C354.587 331.578 373.151 283.265 343.303 258.989C313.209 234.516 270.865 264.533 249.785 239.187C234.089 220.315 252.455 197.53 237.469 179.782C213.967 151.949 153.799 190.227 126.161 162.807C122.235 158.915 118.275 153.01 116.021 143.532L98.2208 142.736C91.3988 142.43 85.7988 147.104 85.7988 153.156V371.327C85.7988 377.38 91.3888 381.96 98.2188 381.539L414.147 362.073C419.163 361.765 423.225 357.319 423.225 352.178V348.871C402.247 356.236 389.423 353.849 381.167 348.569Z" fill="white"/>
</g>
<g id="Vector_21" style="mix-blend-mode:soft-light">
<path d="M115.76 341.43L191.802 338.151V296.949L115.76 298.855V341.43Z" fill="#F4F7FA"/>
</g>
<g id="Group_4" style="mix-blend-mode:soft-light">
<g id="Group_5" style="mix-blend-mode:soft-light" opacity="0.7">
<g id="Vector_22" style="mix-blend-mode:soft-light" opacity="0.7">
<path d="M319.473 270.482L331.025 270.319V183.021L319.473 182.715V270.482Z" fill="#F4F7FA"/>
</g>
<g id="Vector_23" style="mix-blend-mode:soft-light" opacity="0.7">
<path d="M298.621 270.78L310.399 270.613V226.543L298.621 226.473V270.78Z" fill="#F4F7FA"/>
</g>
<g id="Vector_24" style="mix-blend-mode:soft-light" opacity="0.7">
<path d="M277.367 271.084L289.375 270.912V173.486L277.367 173.122V271.084Z" fill="#F4F7FA"/>
</g>
<g id="Vector_25" style="mix-blend-mode:soft-light" opacity="0.7">
<path d="M255.689 271.392L267.933 271.218V187.43L255.689 187.139V271.392Z" fill="#F4F7FA"/>
</g>
<g id="Vector_26" style="mix-blend-mode:soft-light" opacity="0.7">
<path d="M233.584 271.708L246.074 271.531V248.841L233.584 248.892V271.708Z" fill="#F4F7FA"/>
</g>
<g id="Vector_27" style="mix-blend-mode:soft-light" opacity="0.7">
<path d="M211.027 272.031L223.769 271.849V217.983L211.027 217.859V272.031Z" fill="#F4F7FA"/>
</g>
<g id="Vector_28" style="mix-blend-mode:soft-light" opacity="0.7">
<path d="M188.018 272.357L201.02 272.171V193.756L188.018 193.491V272.357Z" fill="#F4F7FA"/>
</g>
<g id="Vector_29" style="mix-blend-mode:soft-light" opacity="0.7">
<path d="M164.529 272.692L177.799 272.504V214.732L164.529 214.587V272.692Z" fill="#F4F7FA"/>
</g>
<g id="Vector_30" style="mix-blend-mode:soft-light" opacity="0.7">
<path d="M140.557 273.035L154.103 272.841V182.304L140.557 181.969V273.035Z" fill="#F4F7FA"/>
</g>
<g id="Vector_31" style="mix-blend-mode:soft-light" opacity="0.7">
<path d="M116.08 273.385L129.91 273.186V171.502L116.08 171.099V273.385Z" fill="#F4F7FA"/>
</g>
</g>
</g>
<g id="Vector_32" style="mix-blend-mode:soft-light">
<path d="M341.631 331.689L398.461 329.238V323.295L341.631 325.583V331.689Z" fill="#F4F7FA"/>
</g>
<g id="Vector_33" style="mix-blend-mode:soft-light">
<path d="M341.631 252.859L398.461 252.509V246.566L341.631 246.752V252.859Z" fill="#F4F7FA"/>
</g>
<g id="Vector_34" style="mix-blend-mode:soft-light">
<path d="M341.631 242.405L398.461 242.335V236.39L341.631 236.297V242.405Z" fill="#F4F7FA"/>
</g>
<g id="Vector_35" style="mix-blend-mode:soft-light">
<path d="M341.631 323.248L350.893 322.886V313.518L341.631 313.841V323.248Z" fill="#F4F7FA"/>
</g>
<path id="Vector_36" d="M348.49 292.387C348.49 304.808 358.37 314.529 370.428 314.103C382.352 313.69 391.918 303.478 391.918 291.312C391.918 279.145 382.352 269.417 370.428 269.585C358.37 269.75 348.49 279.966 348.49 292.387Z" fill="#D8DEE8"/>
<g id="Vector_37" style="mix-blend-mode:soft-light" opacity="0.35">
<path d="M349.766 291.688C350.038 282.744 355.742 275.106 363.582 272.152C365.778 271.324 368.093 270.883 370.43 270.848C381.682 270.683 390.714 279.858 390.714 291.343C390.714 302.827 381.682 312.45 370.43 312.84C359.058 313.235 349.75 304.066 349.75 292.356C349.75 292.133 349.76 291.911 349.766 291.688Z" fill="white"/>
</g>
<g id="Vector_38" style="mix-blend-mode:soft-light">
<path d="M349.766 291.688C350.038 282.744 355.742 275.106 363.582 272.152C365.778 271.324 368.093 270.883 370.43 270.848C381.682 270.683 390.714 279.858 390.714 291.343C390.714 302.827 381.682 312.45 370.43 312.84C359.058 313.235 349.75 304.066 349.75 292.356C349.75 292.133 349.76 291.911 349.766 291.688Z" fill="#F4F7FA"/>
</g>
<path id="Vector_39" d="M349.764 291.688C350.036 282.744 355.74 275.106 363.58 272.152L370.428 291.845L349.764 291.688Z" fill="white"/>
<g id="Group_6" style="mix-blend-mode:soft-light">
<g id="Vector_40" style="mix-blend-mode:soft-light">
<path d="M136.644 315.495C141.474 315.683 142.192 312.793 146.948 312.512C155.014 312.038 156.99 320.16 164.762 320.028C171.108 319.926 172.704 314.447 178.986 315.067C183.654 315.517 184.574 318.729 189.126 319.201C190.017 319.288 190.916 319.263 191.802 319.126V338.172L115.76 341.451V307.758C119.836 308.059 122.812 309.014 124.942 309.98C130.068 312.276 131.77 315.304 136.644 315.495Z" fill="#F4F7FA"/>
</g>
</g>
<g id="Vector_41" style="mix-blend-mode:soft-light">
<path d="M341.631 228.015L398.461 228.329V176.797L341.631 175.073V228.015Z" fill="#F4F7FA"/>
</g>
<g id="Vector_42" style="mix-blend-mode:soft-light">
<path d="M116.08 294.179L331.024 289.218V279.906L116.08 283.933V294.179Z" fill="#F4F7FA"/>
</g>
<g id="Vector_43" style="mix-blend-mode:soft-light">
<path d="M201.018 337.752L331.024 332.146V292.821L201.018 296.039V337.752Z" fill="#F4F7FA"/>
</g>
<path id="Vector_44" d="M126.785 337.467C124.811 337.553 122.84 337.224 120.993 336.5C119.146 335.776 117.46 334.672 116.038 333.255C114.615 331.837 113.486 330.137 112.718 328.255C111.95 326.374 111.56 324.351 111.571 322.309V157.185C111.558 155.147 111.948 153.129 112.716 151.253C113.485 149.376 114.616 147.682 116.04 146.274C117.465 144.865 119.152 143.772 121 143.061C122.847 142.351 124.816 142.038 126.785 142.141L392.421 153.923C398.997 154.214 404.317 160.649 404.317 168.268V313.413C404.317 321.032 398.997 327.425 392.421 327.675L126.785 337.467Z" fill="url(#paint209_linear)"/>
<path id="Vector_45" d="M392.422 158.419L126.786 147.203C121.306 146.972 116.844 151.529 116.844 157.383V322.15C116.844 328.004 121.306 332.595 126.786 332.403L392.422 323.157C396.74 323.006 400.222 318.696 400.222 313.528V168.105C400.228 162.937 396.74 158.603 392.422 158.419Z" fill="white"/>
<path id="Vector_46" d="M171.94 305.889L151.422 306.387V271.499L171.94 271.303V305.889Z" fill="url(#paint210_linear)"/>
<path id="Vector_47" d="M205.364 305.079L185.424 305.562V259.851L205.364 259.756V305.079Z" fill="url(#paint211_linear)"/>
<path id="Vector_48" d="M237.851 304.293L218.467 304.762V244.855L237.851 244.886V304.293Z" fill="url(#paint212_linear)"/>
<path id="Vector_49" d="M269.444 303.526L250.592 303.983V225.456L269.444 225.648V303.526Z" fill="url(#paint213_linear)"/>
<g id="arrow">
<path id="Vector_50" d="M151.421 241.765C150.941 241.765 150.466 241.671 150.021 241.486C148.197 240.725 147.341 238.662 148.111 236.876C148.991 234.838 151.111 234.586 152.261 234.451C153.123 234.35 154.295 234.259 155.777 234.143C203.885 230.386 237.629 211.819 257.263 179.282C257.493 178.911 257.792 178.592 258.143 178.342C258.493 178.091 258.888 177.915 259.304 177.824C259.721 177.732 260.151 177.727 260.57 177.809C260.988 177.89 261.387 178.056 261.743 178.298C262.481 178.765 263.01 179.514 263.215 180.383C263.421 181.251 263.287 182.168 262.841 182.934C249.611 204.936 230.161 221.084 204.731 230.89C183.985 238.894 164.719 240.456 156.395 241.13C155.013 241.242 153.595 241.357 152.927 241.451C152.452 241.662 151.939 241.769 151.421 241.765V241.765Z" fill="url(#paint214_linear)"/>
<path id="Vector_51" d="M263.198 198.838C262.369 198.816 261.577 198.476 260.978 197.884C260.378 197.292 260.013 196.49 259.954 195.634L259.026 180.958L245.374 189.938C244.628 190.413 243.732 190.569 242.875 190.374C242.019 190.179 241.27 189.647 240.786 188.892C240.543 188.526 240.373 188.114 240.288 187.68C240.202 187.245 240.201 186.798 240.286 186.363C240.371 185.928 240.539 185.516 240.782 185.15C241.024 184.784 241.335 184.472 241.696 184.233L264.786 169.129L266.438 195.357C266.467 195.794 266.41 196.232 266.272 196.645C266.133 197.058 265.916 197.438 265.632 197.763C265.348 198.087 265.004 198.349 264.621 198.533C264.237 198.717 263.821 198.82 263.398 198.834C263.334 198.838 263.262 198.838 263.198 198.838Z" fill="url(#paint215_linear)"/>
</g>
<path id="Vector_52" d="M299.2 187.253C299.206 187.895 299.087 188.533 298.85 189.127C298.613 189.721 298.262 190.26 297.819 190.711C297.376 191.162 296.849 191.516 296.271 191.752C295.692 191.989 295.074 192.102 294.452 192.085C293.174 192.04 291.962 191.484 291.073 190.534C290.184 189.584 289.687 188.314 289.686 186.992C289.679 186.348 289.798 185.708 290.037 185.113C290.275 184.517 290.627 183.977 291.072 183.526C291.518 183.075 292.046 182.721 292.627 182.486C293.208 182.251 293.828 182.14 294.452 182.159C295.726 182.21 296.933 182.769 297.818 183.718C298.703 184.668 299.198 185.934 299.2 187.253V187.253Z" fill="url(#paint216_linear)"/>
<path id="Vector_53" d="M386.008 200.254L306.328 198.453V176.446L386.008 179.034V200.254Z" fill="url(#paint217_linear)"/>
<path id="Vector_54" d="M299.2 217.338C299.204 217.984 299.084 218.623 298.847 219.22C298.61 219.817 298.26 220.359 297.819 220.815C297.377 221.271 296.851 221.631 296.273 221.875C295.695 222.119 295.076 222.241 294.452 222.235C293.178 222.21 291.964 221.669 291.072 220.728C290.181 219.787 289.683 218.521 289.686 217.204C289.681 216.557 289.801 215.916 290.039 215.317C290.277 214.719 290.629 214.176 291.073 213.72C291.516 213.264 292.044 212.904 292.624 212.661C293.205 212.419 293.826 212.298 294.452 212.307C295.722 212.338 296.931 212.882 297.818 213.822C298.706 214.763 299.202 216.025 299.2 217.338V217.338Z" fill="url(#paint218_linear)"/>
<path id="Vector_55" d="M386.008 229.168L306.328 228.442V206.435L386.008 207.948V229.168Z" fill="url(#paint219_linear)"/>
<path id="Vector_56" d="M299.2 277.508C299.202 278.821 298.706 280.083 297.818 281.022C296.93 281.962 295.722 282.504 294.452 282.533C293.826 282.541 293.204 282.42 292.624 282.177C292.044 281.933 291.516 281.573 291.072 281.116C290.628 280.66 290.277 280.116 290.039 279.518C289.801 278.919 289.681 278.277 289.686 277.63C289.683 276.314 290.181 275.049 291.073 274.109C291.964 273.168 293.178 272.628 294.452 272.605C295.076 272.6 295.696 272.723 296.274 272.968C296.852 273.212 297.377 273.573 297.819 274.029C298.261 274.486 298.61 275.028 298.847 275.625C299.084 276.223 299.204 276.863 299.2 277.508V277.508Z" fill="url(#paint220_linear)"/>
<path id="Vector_57" d="M386.008 281.692L306.328 282.918V271.913L386.008 271.082V281.692Z" fill="url(#paint221_linear)"/>
<path id="Vector_58" d="M299.198 297.285C299.198 298.602 298.703 299.867 297.816 300.812C296.93 301.758 295.723 302.31 294.45 302.352C293.825 302.367 293.204 302.252 292.624 302.014C292.043 301.776 291.515 301.419 291.07 300.966C290.626 300.513 290.274 299.971 290.036 299.375C289.797 298.778 289.678 298.138 289.684 297.492C289.683 296.173 290.181 294.905 291.071 293.959C291.961 293.012 293.173 292.462 294.45 292.426C295.073 292.414 295.691 292.531 296.27 292.771C296.848 293.01 297.374 293.367 297.816 293.82C298.259 294.273 298.609 294.813 298.847 295.408C299.084 296.003 299.203 296.642 299.198 297.285V297.285Z" fill="url(#paint222_linear)"/>
<path id="Vector_59" d="M386.008 300.7L306.328 302.633V291.628L386.008 290.09V300.7Z" fill="url(#paint223_linear)"/>
<path id="Vector_60" d="M347.026 415.97C347.026 415.97 339.074 419.705 338.944 420.31C338.814 420.916 344.058 420.104 346.198 420.197C348.338 420.29 350.1 419.628 349.906 418.692C349.712 417.755 348.962 415.397 348.962 415.397L347.026 415.97Z" fill="url(#paint224_linear)"/>
<path id="Vector_61" d="M346.732 412.939L347.216 416.639C347.216 416.639 348.474 417.102 349.32 416.554L349.682 412.497L346.732 412.939Z" fill="url(#paint225_linear)"/>
<path id="Vector_62" d="M384.179 413.028L385.105 414.562C385.233 414.773 385.318 415.01 385.354 415.256C385.39 415.503 385.378 415.755 385.317 415.996C384.993 417.274 384.347 419.76 384.065 420.41C383.681 421.292 378.537 421.817 378.537 421.817C378.537 421.817 378.077 421.15 379.137 420.343C380.197 419.537 380.893 419.411 381.269 418.221C381.645 417.03 381.899 413.673 381.899 413.673L384.179 413.028Z" fill="url(#paint226_linear)"/>
<path id="Vector_63" d="M342.358 338.602C341.938 349.64 341.92 361.631 342.536 374.441C343.228 388.867 344.618 402.201 346.37 414.287C347.02 414.308 347.706 414.312 348.42 414.287C348.904 414.273 349.37 414.248 349.82 414.217C350.976 411.029 351.959 407.777 352.766 404.477C353.68 400.724 354.366 396.916 354.822 393.075C356.354 380.574 354.56 379.482 355.802 370.218C356.902 362.013 358.468 361.693 360.304 350.043C362.304 337.403 360.814 335.508 360.092 334.821C357.024 331.909 349.808 333.895 342.358 338.602Z" fill="url(#paint227_linear)"/>
<path id="Vector_64" d="M380.332 409.128C380.668 409.407 382.322 414.591 382.322 414.591C382.322 414.591 382.856 415.298 383.872 414.254C384.888 413.21 384.332 413.787 384.332 413.787L384.132 408.688L380.332 409.128Z" fill="url(#paint228_linear)"/>
<path id="Vector_65" style="mix-blend-mode:multiply" opacity="0.3" d="M360.097 334.825C357.167 332.045 350.467 333.728 343.389 337.974C351.531 347.069 352.419 352.964 351.443 356.784C350.339 361.11 346.985 362.365 346.997 367.086C347.013 372.896 352.089 374.436 351.981 380.588C351.909 384.654 349.679 384.612 349.153 389.635C348.529 395.578 351.443 397.627 350.499 402.023C350.099 403.915 348.935 406.387 345.635 408.933C345.873 410.74 346.117 412.526 346.371 414.281C347.021 414.301 347.707 414.306 348.421 414.281C348.905 414.266 349.373 414.242 349.821 414.211C350.978 411.023 351.962 407.771 352.769 404.471C353.682 400.718 354.369 396.91 354.825 393.069C356.357 380.567 354.563 379.476 355.805 370.211C356.905 362.007 358.471 361.687 360.307 350.037C362.303 337.407 360.819 335.512 360.097 334.825Z" fill="url(#paint229_linear)"/>
<path id="Vector_66" d="M347.398 338.416C362.108 360.649 373.212 385.211 380.274 411.137C381.007 411.487 381.821 411.618 382.622 411.513C383.651 411.362 384.594 410.835 385.28 410.029C386.183 404.211 386.384 398.299 385.88 392.43C385.64 389.627 385.214 384.962 383.48 379.201C381.544 372.75 380.214 372.38 377.68 365.558C375.06 358.473 375.694 356.705 373.184 347.838C371.676 342.525 369.804 337.33 367.584 332.291L347.398 338.416Z" fill="url(#paint230_linear)"/>
<path id="Vector_67" d="M350.689 293.079C344.257 286.622 340.911 286.324 339.707 281.692C338.507 277.111 340.049 270.718 344.423 268.239C349.649 265.281 354.665 268.578 358.623 272.14C363.165 276.23 366.961 279.416 373.307 279.511C378.707 279.594 384.077 278.589 389.455 279.42C390.993 279.648 392.495 280.087 393.921 280.724C399.763 283.372 398.135 292.579 404.079 294.689C408.053 296.099 409.961 292.415 415.561 292.684C422.143 293.011 428.127 298.538 430.895 304.109C435.951 314.287 431.105 326.317 424.863 332.824C419.737 338.168 410.211 343.389 404.009 340.16C399.111 337.61 398.865 331.127 394.255 330.59C390.977 330.207 390.101 333.368 385.955 334.05C379.155 335.172 372.755 328.093 371.023 326.162C366.061 320.658 367.623 318.343 361.897 308.386C359.635 304.458 356.383 298.794 350.689 293.079Z" fill="url(#paint231_linear)"/>
<path id="Vector_68" d="M328.41 292.147C322.984 298.311 318.974 308.568 322.184 312.197C323.288 313.448 325.036 313.671 326.384 313.851C332.142 314.587 334.876 310.209 337.126 311.348C340.016 312.809 338.306 321.811 337.64 328.676C336.464 340.787 333.326 342.916 335.412 347.073C338.126 352.492 345.812 353.633 347.902 353.941C355.014 354.998 356.208 351.581 364 351.982C372.898 352.439 373.718 357.019 380.236 355.791C386.19 354.671 388.594 350.268 393.002 351.699C395.756 352.592 396.292 354.799 398.97 354.843C401.648 354.886 404.662 352.742 405.098 350.256C405.64 347.155 402.346 342.852 396.572 342.234C394.196 342.823 390.298 343.387 386.172 341.868C379.416 339.387 376.416 332.907 373.082 325.72C370.776 320.747 366.538 311.608 367.594 300.324C368.03 295.671 369.014 294.4 368.034 291.785C366.674 288.155 358.022 282.504 347.962 282.841C346.638 282.887 336.098 283.414 328.41 292.147Z" fill="url(#paint232_linear)"/>
<path id="Vector_69" d="M323.527 299.857L342.855 302.693C342.96 302.709 343.057 302.757 343.135 302.83C343.213 302.904 343.267 303 343.291 303.107L349.837 330.284C349.931 330.673 349.437 331.57 349.037 331.487L330.117 326.76C330.022 326.739 329.935 326.692 329.864 326.624C329.794 326.555 329.743 326.468 329.717 326.371L322.629 300.901C322.543 300.516 323.153 299.803 323.527 299.857Z" fill="url(#paint233_linear)"/>
<path id="Vector_70" d="M323.163 300.467L342.491 303.303C342.596 303.318 342.694 303.366 342.772 303.44C342.85 303.514 342.905 303.61 342.929 303.716L349.475 330.894C349.496 330.983 349.495 331.077 349.472 331.166C349.448 331.255 349.404 331.336 349.342 331.402C349.28 331.468 349.203 331.517 349.118 331.545C349.033 331.572 348.942 331.576 348.855 331.558L329.765 327.37C329.67 327.349 329.583 327.302 329.512 327.234C329.442 327.165 329.391 327.078 329.365 326.981L322.581 301.155C322.557 301.068 322.554 300.976 322.573 300.887C322.592 300.798 322.633 300.716 322.69 300.647C322.748 300.579 322.822 300.526 322.905 300.495C322.987 300.463 323.076 300.454 323.163 300.467V300.467Z" fill="url(#paint234_linear)"/>
<path id="Vector_71" d="M328.374 301.997L327.834 299.828C327.822 299.783 327.821 299.735 327.831 299.69C327.841 299.644 327.862 299.601 327.892 299.566C327.921 299.53 327.959 299.503 328.001 299.485C328.043 299.468 328.088 299.462 328.134 299.466L335.198 300.215C335.257 300.221 335.313 300.246 335.357 300.287C335.402 300.329 335.432 300.384 335.444 300.444L335.926 302.83C335.935 302.875 335.934 302.922 335.922 302.967C335.91 303.012 335.888 303.053 335.857 303.087C335.826 303.121 335.788 303.147 335.746 303.163C335.704 303.178 335.658 303.183 335.614 303.177L328.614 302.212C328.557 302.205 328.504 302.181 328.461 302.142C328.419 302.104 328.388 302.053 328.374 301.997V301.997Z" fill="url(#paint235_linear)"/>
<path id="Vector_72" style="mix-blend-mode:multiply" opacity="0.25" d="M338.265 324.019C337.423 319.662 339.769 317.129 337.977 313.624C335.441 308.663 328.813 309.948 327.177 305.99C326.739 304.921 326.629 303.39 327.589 301.118L323.157 300.467C323.071 300.454 322.983 300.464 322.901 300.496C322.82 300.527 322.747 300.579 322.689 300.646C322.632 300.714 322.592 300.795 322.572 300.883C322.552 300.971 322.554 301.062 322.577 301.149L329.361 326.975C329.387 327.071 329.438 327.159 329.508 327.227C329.579 327.296 329.666 327.343 329.761 327.363L341.361 329.908C339.465 327.804 338.599 325.79 338.265 324.019Z" fill="url(#paint236_linear)"/>
<path id="Vector_73" d="M352.746 322.38C352.746 322.38 349.872 321.466 348.814 320.61C347.756 319.755 346.674 318.446 345 318.337C343.326 318.227 341.562 318.924 342.312 319.207C343.062 319.49 344.344 321.22 345.382 321.958C346.42 322.696 348.926 323.018 349.398 323.033C349.87 323.047 351.598 324.391 351.598 324.391L352.746 322.38Z" fill="url(#paint237_linear)"/>
<path id="Vector_74" style="mix-blend-mode:multiply" opacity="0.3" d="M396.567 342.236C394.191 342.825 390.293 343.389 386.167 341.87C379.411 339.39 376.411 332.909 373.077 325.722C370.771 320.749 366.533 311.61 367.589 300.326C368.025 295.674 369.009 294.402 368.029 291.787C367.872 291.378 367.684 290.982 367.467 290.603C364.233 292.395 362.851 294.388 362.323 296.211C361.041 300.645 364.609 304.76 362.175 308.444C359.845 311.974 355.099 310.428 353.775 313.522C352.343 316.863 357.501 319.517 357.209 324.891C356.859 331.328 349.093 333.678 349.975 338.104C350.739 341.938 357.005 342.331 356.805 344.322C356.567 346.69 347.363 349.57 340.089 345.853C338.166 344.856 336.46 343.465 335.073 341.765C334.585 343.832 334.493 345.258 335.409 347.085C338.123 352.505 345.809 353.646 347.899 353.954C355.011 355.01 356.205 351.593 363.997 351.992C372.895 352.451 373.715 357.032 380.233 355.804C386.187 354.684 388.591 350.281 392.999 351.711C395.753 352.604 396.289 354.812 398.967 354.855C401.645 354.899 404.659 352.755 405.095 350.268C405.635 347.168 402.341 342.854 396.567 342.236Z" fill="url(#paint238_linear)"/>
<path id="Vector_75" d="M352.798 321.115L349.598 325.803C350.92 326.654 365.072 335.499 376.566 329.441C377.986 328.69 381.766 326.7 384.132 322.268C386.732 317.386 386.032 312.511 385.57 309.347C384.432 301.515 379.864 292.938 372.57 288.918C369.786 287.382 366.398 286.394 363.212 285.466C360.508 284.681 356.244 283.606 356.11 284.036C356.044 284.242 357.022 284.614 357.68 285.096C361.718 288.056 355.25 297.829 359.796 303.323C364.152 308.588 370.492 308.466 371.074 312.879C371.344 314.932 370.196 316.631 369.674 317.39C366.828 321.613 360.13 322.929 352.798 321.115Z" fill="url(#paint239_linear)"/>
<path id="Vector_76" d="M347.138 275.237C347.138 275.237 348.364 280.669 350.458 281.717C352.552 282.765 355.9 284.065 356.294 284.474C356.688 284.883 344.294 287.637 337.764 285.076C339.764 284.412 340.306 284.189 340.306 284.189C341.197 283.844 342.043 283.386 342.826 282.827C343.902 282.013 344.79 280.961 345.426 279.749L345.092 276.704L347.138 275.237Z" fill="url(#paint240_linear)"/>
<path id="Vector_77" d="M347.635 277.153C347.635 277.153 346.539 279.11 344.453 278.573C342.583 278.089 343.167 273.167 344.539 272.465C344.997 272.229 345.879 272.214 346.503 272.529C346.941 272.75 348.183 274.04 347.715 275.687C348.155 275.501 348.567 275.582 348.691 275.803C348.849 276.084 348.505 276.528 348.427 276.63C348.223 276.886 347.946 277.069 347.635 277.153V277.153Z" fill="url(#paint241_linear)"/>
<path id="Vector_78" d="M324.533 308.582C324.533 308.582 322.933 305.43 324.533 304.531C326.133 303.632 328.733 304.531 328.733 304.531C328.733 304.531 328.345 305.316 327.181 305.99C326.017 306.664 324.533 308.582 324.533 308.582Z" fill="url(#paint242_linear)"/>
<g id="Group_7" style="mix-blend-mode:multiply" opacity="0.3">
<path id="Vector_79" style="mix-blend-mode:multiply" opacity="0.3" d="M138.327 337.717C135.707 332.715 137.839 328.333 134.191 324.449C128.835 318.742 120.487 324.201 116.129 319.5C109.907 312.786 120.729 294.944 116.347 291.835C115.501 291.233 114.019 291.14 111.295 292.554C110.685 295.293 109.895 298.389 108.845 301.914C105.333 313.64 103.577 319.502 99.7427 324.492C95.4727 330.048 91.0847 332.76 90.3647 338.974C90.2687 339.801 89.7127 345.615 93.2327 349.692C97.3927 354.51 104.419 354.032 111.107 353.569C118.347 353.073 118.281 351.585 126.443 350.376C139.231 348.484 143.857 351.496 148.179 347.412C148.579 347.044 148.949 346.624 149.441 345.595C142.969 343.662 139.863 340.65 138.327 337.717Z" fill="url(#paint243_linear)"/>
</g>
</g>
</g>
<defs>
<linearGradient id="paint200_linear" x1="288.925" y1="111.051" x2="302.285" y2="124.515" gradientUnits="userSpaceOnUse">
<stop stop-color="#E4D6CA"/>
<stop offset="1" stop-color="#D4BDAC"/>
</linearGradient>
<linearGradient id="paint201_linear" x1="315.738" y1="99.8575" x2="332.784" y2="136.141" gradientUnits="userSpaceOnUse">
<stop stop-color="#F3E9E1"/>
<stop offset="1" stop-color="#E1D1C5"/>
</linearGradient>
<linearGradient id="paint202_linear" x1="165.37" y1="315.23" x2="136.235" y2="-28.2832" gradientUnits="userSpaceOnUse">
<stop stop-color="#46736E"/>
<stop offset="1" stop-color="#2F4F4F"/>
</linearGradient>
<linearGradient id="paint203_linear" x1="85.8478" y1="148.483" x2="191.846" y2="294.98" gradientUnits="userSpaceOnUse">
<stop stop-color="#799B91"/>
<stop offset="1" stop-color="#3E6764"/>
</linearGradient>
<linearGradient id="paint204_linear" x1="315.99" y1="322.055" x2="252.41" y2="416.643" gradientUnits="userSpaceOnUse">
<stop stop-color="#96888E"/>
<stop offset="1" stop-color="#706369"/>
</linearGradient>
<linearGradient id="paint205_linear" x1="148994" y1="140820" x2="146325" y2="115287" gradientUnits="userSpaceOnUse">
<stop stop-color="#96888E"/>
<stop offset="1" stop-color="#706369"/>
</linearGradient>
<linearGradient id="paint206_linear" x1="591935" y1="413316" x2="342194" y2="108008" gradientUnits="userSpaceOnUse">
<stop stop-color="#96888E"/>
<stop offset="1" stop-color="#706369"/>
</linearGradient>
<linearGradient id="paint207_linear" x1="706818" y1="546177" x2="383677" y2="-1012.72" gradientUnits="userSpaceOnUse">
<stop stop-color="#96888E"/>
<stop offset="1" stop-color="#706369"/>
</linearGradient>
<linearGradient id="paint208_linear" x1="301453" y1="126123" x2="420929" y2="485992" gradientUnits="userSpaceOnUse">
<stop stop-color="#F3E9E1"/>
<stop offset="1" stop-color="#E1D1C5"/>
</linearGradient>
<linearGradient id="paint209_linear" x1="158730" y1="-262.266" x2="320026" y2="383857" gradientUnits="userSpaceOnUse">
<stop stop-color="#E4D6CA"/>
<stop offset="1" stop-color="#D4BDAC"/>
</linearGradient>
<linearGradient id="paint210_linear" x1="9593" y1="29212.8" x2="39941.7" y2="58388.7" gradientUnits="userSpaceOnUse">
<stop stop-color="#F3E9E1"/>
<stop offset="1" stop-color="#E1D1C5"/>
</linearGradient>
<linearGradient id="paint211_linear" x1="12079.2" y1="34247.3" x2="49612" y2="61105.1" gradientUnits="userSpaceOnUse">
<stop stop-color="#F3E9E1"/>
<stop offset="1" stop-color="#E1D1C5"/>
</linearGradient>
<linearGradient id="paint212_linear" x1="14424.8" y1="39724.3" x2="57428.3" y2="62597.5" gradientUnits="userSpaceOnUse">
<stop stop-color="#F3E9E1"/>
<stop offset="1" stop-color="#E1D1C5"/>
</linearGradient>
<linearGradient id="paint213_linear" x1="16664.3" y1="45394.3" x2="63089.4" y2="63715.3" gradientUnits="userSpaceOnUse">
<stop stop-color="#F3E9E1"/>
<stop offset="1" stop-color="#E1D1C5"/>
</linearGradient>
<linearGradient id="paint214_linear" x1="91415.1" y1="40126.7" x2="124973" y2="139644" gradientUnits="userSpaceOnUse">
<stop stop-color="#F3E9E1"/>
<stop offset="1" stop-color="#E1D1C5"/>
</linearGradient>
<linearGradient id="paint215_linear" x1="27212.3" y1="14404.3" x2="51247.6" y2="49277.7" gradientUnits="userSpaceOnUse">
<stop stop-color="#F3E9E1"/>
<stop offset="1" stop-color="#E1D1C5"/>
</linearGradient>
<linearGradient id="paint216_linear" x1="11356.3" y1="4126.92" x2="19135.7" y2="16380.2" gradientUnits="userSpaceOnUse">
<stop stop-color="#F3E9E1"/>
<stop offset="1" stop-color="#E1D1C5"/>
</linearGradient>
<linearGradient id="paint217_linear" x1="107752" y1="6950.86" x2="115005" y2="46854" gradientUnits="userSpaceOnUse">
<stop stop-color="#F3E9E1"/>
<stop offset="1" stop-color="#E1D1C5"/>
</linearGradient>
<linearGradient id="paint218_linear" x1="10740" y1="4547.89" x2="18518.4" y2="16800.5" gradientUnits="userSpaceOnUse">
<stop stop-color="#F3E9E1"/>
<stop offset="1" stop-color="#E1D1C5"/>
</linearGradient>
<linearGradient id="paint219_linear" x1="102711" y1="7549.78" x2="109343" y2="45759.1" gradientUnits="userSpaceOnUse">
<stop stop-color="#F3E9E1"/>
<stop offset="1" stop-color="#E1D1C5"/>
</linearGradient>
<linearGradient id="paint220_linear" x1="9507.69" y1="5390.39" x2="17285.9" y2="17642.9" gradientUnits="userSpaceOnUse">
<stop stop-color="#F3E9E1"/>
<stop offset="1" stop-color="#E1D1C5"/>
</linearGradient>
<linearGradient id="paint221_linear" x1="92645.8" y1="5003.89" x2="94482.6" y2="25330.5" gradientUnits="userSpaceOnUse">
<stop stop-color="#F3E9E1"/>
<stop offset="1" stop-color="#E1D1C5"/>
</linearGradient>
<linearGradient id="paint222_linear" x1="9102.74" y1="5667.07" x2="16880.3" y2="17919.5" gradientUnits="userSpaceOnUse">
<stop stop-color="#F3E9E1"/>
<stop offset="1" stop-color="#E1D1C5"/>
</linearGradient>
<linearGradient id="paint223_linear" x1="89331.9" y1="5622.93" x2="91392.6" y2="27142.2" gradientUnits="userSpaceOnUse">
<stop stop-color="#F3E9E1"/>
<stop offset="1" stop-color="#E1D1C5"/>
</linearGradient>
<linearGradient id="paint224_linear" x1="343.174" y1="403.011" x2="345.281" y2="428.985" gradientUnits="userSpaceOnUse">
<stop stop-color="#3B3138"/>
<stop offset="1" stop-color="#241F21"/>
</linearGradient>
<linearGradient id="paint225_linear" x1="348.27" y1="417.478" x2="347.888" y2="390.568" gradientUnits="userSpaceOnUse">
<stop stop-color="#CBAF85"/>
<stop offset="1" stop-color="#BA7C44"/>
</linearGradient>
<linearGradient id="paint226_linear" x1="17920.2" y1="17420.2" x2="18029.8" y2="18520.9" gradientUnits="userSpaceOnUse">
<stop stop-color="#3B3138"/>
<stop offset="1" stop-color="#241F21"/>
</linearGradient>
<linearGradient id="paint227_linear" x1="33265.3" y1="146564" x2="35118.4" y2="146564" gradientUnits="userSpaceOnUse">
<stop stop-color="#3B3138"/>
<stop offset="1" stop-color="#241F21"/>
</linearGradient>
<linearGradient id="paint228_linear" x1="10920.7" y1="12789.8" x2="10904.4" y2="11990.9" gradientUnits="userSpaceOnUse">
<stop stop-color="#CBAF85"/>
<stop offset="1" stop-color="#BA7C44"/>
</linearGradient>
<linearGradient id="paint229_linear" x1="343.389" y1="373.882" x2="361.309" y2="373.882" gradientUnits="userSpaceOnUse">
<stop stop-color="#5D535A"/>
<stop offset="1" stop-color="#464143"/>
</linearGradient>
<linearGradient id="paint230_linear" x1="67660.2" y1="142938" x2="75170" y2="142938" gradientUnits="userSpaceOnUse">
<stop stop-color="#3B3138"/>
<stop offset="1" stop-color="#241F21"/>
</linearGradient>
<linearGradient id="paint231_linear" x1="141761" y1="112606" x2="150869" y2="130662" gradientUnits="userSpaceOnUse">
<stop stop-color="#3B3138"/>
<stop offset="1" stop-color="#241F21"/>
</linearGradient>
<linearGradient id="paint232_linear" x1="343.938" y1="280.483" x2="381.942" y2="373.476" gradientUnits="userSpaceOnUse">
<stop stop-color="#F6AF9A"/>
<stop offset="1" stop-color="#F89F8A"/>
</linearGradient>
<linearGradient id="paint233_linear" x1="42495.8" y1="46093.3" x2="40399.2" y2="48517.7" gradientUnits="userSpaceOnUse">
<stop stop-color="#3B3138"/>
<stop offset="1" stop-color="#241F21"/>
</linearGradient>
<linearGradient id="paint234_linear" x1="43106.4" y1="45335.7" x2="38966.9" y2="46769.5" gradientUnits="userSpaceOnUse">
<stop stop-color="#96888E"/>
<stop offset="1" stop-color="#706369"/>
</linearGradient>
<linearGradient id="paint235_linear" x1="13827.2" y1="5781.2" x2="13806.8" y2="5631.65" gradientUnits="userSpaceOnUse">
<stop stop-color="#5D535A"/>
<stop offset="1" stop-color="#464143"/>
</linearGradient>
<linearGradient id="paint236_linear" x1="29150.6" y1="41429.1" x2="26044.1" y2="42155.5" gradientUnits="userSpaceOnUse">
<stop stop-color="#96888E"/>
<stop offset="1" stop-color="#706369"/>
</linearGradient>
<linearGradient id="paint237_linear" x1="17721.4" y1="10366.6" x2="18293.6" y2="10422.5" gradientUnits="userSpaceOnUse">
<stop stop-color="#CBAF85"/>
<stop offset="1" stop-color="#BA7C44"/>
</linearGradient>
<linearGradient id="paint238_linear" x1="121847" y1="76056.8" x2="136158" y2="105862" gradientUnits="userSpaceOnUse">
<stop stop-color="#F6AF9A"/>
<stop offset="1" stop-color="#F89F8A"/>
</linearGradient>
<linearGradient id="paint239_linear" x1="65237.3" y1="54961.3" x2="78521.7" y2="78346.8" gradientUnits="userSpaceOnUse">
<stop stop-color="#F6AF9A"/>
<stop offset="1" stop-color="#F89F8A"/>
</linearGradient>
<linearGradient id="paint240_linear" x1="32659.5" y1="15781.3" x2="32517.8" y2="14537.9" gradientUnits="userSpaceOnUse">
<stop stop-color="#CBAF85"/>
<stop offset="1" stop-color="#BA7C44"/>
</linearGradient>
<linearGradient id="paint241_linear" x1="11886.4" y1="7604.84" x2="12446.6" y2="7241.44" gradientUnits="userSpaceOnUse">
<stop stop-color="#CBAF85"/>
<stop offset="1" stop-color="#BA7C44"/>
</linearGradient>
<linearGradient id="paint242_linear" x1="8313.99" y1="6851.8" x2="8352.47" y2="6933.95" gradientUnits="userSpaceOnUse">
<stop stop-color="#CBAF85"/>
<stop offset="1" stop-color="#BA7C44"/>
</linearGradient>
<linearGradient id="paint243_linear" x1="102.669" y1="360.508" x2="157.933" y2="283.27" gradientUnits="userSpaceOnUse">
<stop stop-color="#A6B2C7"/>
<stop offset="1" stop-color="#7595B6"/>
</linearGradient>
</defs>
</svg>
